<svg id="Layer_1" data-name="Layer 1" xmlns="http://www.w3.org/2000/svg" viewBox="0 0 275.45 33.75"><defs><style>.cls-1{fill:#fff;}.cls-2{fill:#fff04d;}.cls-3{fill:#3dccd4;}.cls-4{fill:#7ed8a7;}</style></defs><title>title_logo</title><path class="cls-1" d="M56.78,13.5V6.26c0-1.6.87-3.5,3.74-3.5A3.09,3.09,0,0,1,63.75,5.9a2.31,2.31,0,0,1-1.31,2.19c1.28.48,1.46,1.18,1.46,2.41v3H61.67v-3c0-.81-.3-1.21-1.19-1.21h-.84v-2c1,0,1.88-.2,1.88-1.24a1.25,1.25,0,0,0-2.5,0V13.5Z" transform="translate(-2.1 -2.49)"/><path class="cls-1" d="M65.36,13.5V2.94h2.23V13.5Z" transform="translate(-2.1 -2.49)"/><path class="cls-1" d="M69.39,13.5V2.94h2.23v4c1.06,0,1.24-.24,1.52-.92l1.3-3h2.44L75.63,5.72a2.77,2.77,0,0,1-1.37,1.67v0a2.14,2.14,0,0,1,2.19,2.1v4H74.21V10c0-.72-.3-1-1-1H71.62V13.5Z" transform="translate(-2.1 -2.49)"/><path class="cls-1" d="M83.72,5.06H82.37a2.61,2.61,0,0,0-2.7,2.19h4.06v2H79.67a2.61,2.61,0,0,0,2.7,2.19h1.36V13.5H82.56a5,5,0,0,1-5.19-5.28,5,5,0,0,1,5.19-5.28h1.16Z" transform="translate(-2.1 -2.49)"/><path class="cls-1" d="M85.35,13.5V4.3a1.46,1.46,0,0,1,1.54-1.54A2.16,2.16,0,0,1,88.8,4.3L91.4,9.71h0V2.94h2.23v9.21c0,.81-.3,1.52-1.25,1.52s-1.33-.57-1.82-1.58l-3-6.17,0,0V13.5Z" transform="translate(-2.1 -2.49)"/><path class="cls-1" d="M105.91,5.06h-1.63c-1.54,0-2.74,1.67-2.74,3.17s1.21,3.17,2.74,3.17h1.63V13.5h-1.75a5.09,5.09,0,0,1-5-5.28,5.09,5.09,0,0,1,5-5.28h1.75Z" transform="translate(-2.1 -2.49)"/><path class="cls-1" d="M109.35,2.94V10c0,1,.39,1.24,1.15,1.24h1.67V13.5H110c-1.69,0-2.83-.84-2.83-3.17V2.94Z" transform="translate(-2.1 -2.49)"/><path class="cls-1" d="M118.79,4.9h-3a.73.73,0,0,0-.78.8c0,.95,4.19,2.4,4.19,4.6,0,1.48-.66,3.2-3,3.2h-3.53V11.39h3.47a.7.7,0,0,0,.69-.75c0-1.12-4.19-2.23-4.19-4.88a2.62,2.62,0,0,1,2.62-2.8h3.53Z" transform="translate(-2.1 -2.49)"/><path class="cls-1" d="M121.91,5.06h-2.29V2.94h6.81V5.06h-2.29V13.5h-2.23Z" transform="translate(-2.1 -2.49)"/><path class="cls-1" d="M66.21,18.23H63.86A4.51,4.51,0,0,0,59.19,22h7V25.4h-7a4.51,4.51,0,0,0,4.67,3.78h2.35v3.65h-2c-6.26,0-9-4.64-9-9.13s2.71-9.13,9-9.13h2Z" transform="translate(-2.1 -2.49)"/><path class="cls-1" d="M68.2,14.58h3.39V32.83H68.2Z" transform="translate(-2.1 -2.49)"/><path class="cls-1" d="M77.49,29.76l-1-1.71,1.7-.93a1.5,1.5,0,0,0-1.07-.36c-.54,0-1.22.83-1.22,1.56a1.69,1.69,0,0,0,1.7,1.9,2.88,2.88,0,0,0,2.17-1.14L81.71,31a6,6,0,0,1-4.41,2,4.44,4.44,0,0,1-.17-8.88,4.45,4.45,0,0,1,4.58,3.29Z" transform="translate(-2.1 -2.49)"/><path class="cls-1" d="M89,32.83H86.93a4.24,4.24,0,0,1,0-8.48H89v2.92H87.86c-1.14,0-1.63.47-1.63,1.32s.49,1.32,1.63,1.32H89Z" transform="translate(-2.1 -2.49)"/><path class="cls-1" d="M95.25,27.27H93.42v1.54c0,.95.27,1.2,1.12,1.2h.71v2.81H93.18c-1.86,0-3.15-1-3.15-3.46v-7.7h3.39v2.68h1.83Z" transform="translate(-2.1 -2.49)"/><path class="cls-1" d="M96.4,24.35h3.22v1h0c.73-1.07,1.32-1.2,2.81-1.2h.41v2.92h-.37c-2,0-2.73.73-2.73,2.59v3.17H96.4Z" transform="translate(-2.1 -2.49)"/><path class="cls-1" d="M112.49,28.59A4.46,4.46,0,1,1,108,24.15,4.47,4.47,0,0,1,112.49,28.59Zm-5.56,0a1.1,1.1,0,1,0,1.1-1.08A1.12,1.12,0,0,0,106.93,28.59Z" transform="translate(-2.1 -2.49)"/><path class="cls-1" d="M113.6,32.83V27.75c0-2,1.36-3.59,4-3.59s4,1.63,4,3.59v5.09h-3.39V28.27c0-.75-.19-1-.61-1s-.61.25-.61,1v4.56Z" transform="translate(-2.1 -2.49)"/><path class="cls-1" d="M122.68,32.83l1.8-14.71c.29-2.32,1.12-3.86,3.21-3.86A3.22,3.22,0,0,1,131.05,17l2,8.63h.05L135,17a3.22,3.22,0,0,1,3.36-2.71c2.09,0,2.92,1.54,3.21,3.86l1.8,14.71h-4.15L137.91,18.7h-.05l-3.31,13.14c-.23.94-.7,1.15-1.67,1.15s-1.46-.21-1.67-1.15l-3-13.14h-.05l-1.41,14.13Z" transform="translate(-2.1 -2.49)"/><path class="cls-1" d="M148.24,21.68a2,2,0,1,1-2-2A2,2,0,0,1,148.24,21.68Zm-3.7,11.16V24.35h3.39v8.48Z" transform="translate(-2.1 -2.49)"/><path class="cls-1" d="M155.29,32.83h-2.07a4.24,4.24,0,0,1,0-8.48h2.07v2.92h-1.14c-1.13,0-1.63.47-1.63,1.32s.49,1.32,1.63,1.32h1.14Z" transform="translate(-2.1 -2.49)"/><path class="cls-1" d="M156.42,24.35h3.22v1h0c.73-1.07,1.32-1.2,2.81-1.2h.41v2.92h-.37c-2,0-2.73.73-2.73,2.59v3.17h-3.37Z" transform="translate(-2.1 -2.49)"/><path class="cls-1" d="M172.51,28.59a4.46,4.46,0,1,1-4.46-4.44A4.47,4.47,0,0,1,172.51,28.59Zm-5.56,0a1.1,1.1,0,1,0,1.1-1.08A1.12,1.12,0,0,0,167,28.59Z" transform="translate(-2.1 -2.49)"/><path class="cls-1" d="M179.8,27.07h-2c-.14,0-.31.1-.31.24,0,.61,2.56.8,2.56,3.17,0,1.49-1.08,2.36-3,2.36h-3.51V30h2c.54,0,.66-.14.66-.32,0-.68-2.66-.68-2.66-3.05a2.45,2.45,0,0,1,2.66-2.25h3.51Z" transform="translate(-2.1 -2.49)"/><path class="cls-1" d="M187.31,32.83h-2.07a4.24,4.24,0,0,1,0-8.48h2.07v2.92h-1.14c-1.13,0-1.63.47-1.63,1.32s.49,1.32,1.63,1.32h1.14Z" transform="translate(-2.1 -2.49)"/><path class="cls-1" d="M197.31,28.59a4.46,4.46,0,1,1-4.46-4.44A4.47,4.47,0,0,1,197.31,28.59Zm-5.56,0a1.1,1.1,0,1,0,1.1-1.08A1.12,1.12,0,0,0,191.75,28.59Z" transform="translate(-2.1 -2.49)"/><path class="cls-1" d="M198.52,36.24v-6.7c0-3.81,2.14-5.39,4.66-5.39a4.36,4.36,0,0,1,4.39,4.54A4.08,4.08,0,0,1,203.44,33a8,8,0,0,1-1.15-.07V29.63a2.36,2.36,0,0,0,.83.19,1.23,1.23,0,0,0,1.24-1.22,1.17,1.17,0,0,0-1.19-1.22c-.71,0-1.25.47-1.25,1.49v7.37Z" transform="translate(-2.1 -2.49)"/><path class="cls-1" d="M211.1,36.24V32.86a4.64,4.64,0,0,1-1.64-1.3,3.2,3.2,0,0,1-.66-2V24.35h3.37v4.56c0,.69.17,1,.61,1s.61-.31.61-1V24.35h3.37v5.1a3.47,3.47,0,0,1-2.37,3.41v3.37Z" transform="translate(-2.1 -2.49)"/><path class="cls-1" d="M221.2,14.58l3.21,14h.05l3.52-14h4.12L228,29.91c-.5,1.9-1.3,3.23-3.62,3.23s-3.16-1.33-3.62-3.23l-3.7-15.33Z" transform="translate(-2.1 -2.49)"/><path class="cls-1" d="M236.19,21.68a2,2,0,1,1-2-2A2,2,0,0,1,236.19,21.68Zm-3.7,11.16V24.35h3.39v8.48Z" transform="translate(-2.1 -2.49)"/><path class="cls-1" d="M241.79,29.76l-1-1.71,1.7-.93a1.51,1.51,0,0,0-1.07-.36c-.54,0-1.22.83-1.22,1.56a1.69,1.69,0,0,0,1.7,1.9,2.88,2.88,0,0,0,2.17-1.14L246,31a6,6,0,0,1-4.41,2,4.44,4.44,0,0,1-.17-8.88A4.45,4.45,0,0,1,246,27.44Z" transform="translate(-2.1 -2.49)"/><path class="cls-1" d="M255.19,24.35v4.39c0,1,.27,1.24.63,1.24s.61-.24.61-1.24V24.35h3.39v5.32A3.45,3.45,0,0,1,256.17,33,3.78,3.78,0,0,1,253.5,32,3.78,3.78,0,0,1,250.82,33a3.45,3.45,0,0,1-3.65-3.36V24.35h3.39v4.39c0,1,.25,1.24.61,1.24s.63-.24.63-1.24V24.35Z" transform="translate(-2.1 -2.49)"/><path class="cls-1" d="M265.65,29.76l-1-1.71,1.7-.93a1.51,1.51,0,0,0-1.07-.36c-.54,0-1.22.83-1.22,1.56a1.69,1.69,0,0,0,1.7,1.9A2.88,2.88,0,0,0,268,29.08L269.87,31a6,6,0,0,1-4.41,2,4.44,4.44,0,0,1-.17-8.88,4.45,4.45,0,0,1,4.58,3.29Z" transform="translate(-2.1 -2.49)"/><path class="cls-1" d="M271.07,24.35h3.22v1h0c.73-1.07,1.32-1.2,2.81-1.2h.41v2.92h-.37c-2,0-2.73.73-2.73,2.59v3.17h-3.37Z" transform="translate(-2.1 -2.49)"/><polygon class="cls-2" points="44.8 0 44.8 30.45 33.81 30.48 33.81 0 44.8 0"/><polygon class="cls-3" points="10.99 17.74 10.99 30.57 0 30.6 0 17.74 10.99 17.74"/><polygon class="cls-4" points="27.9 8.87 27.9 30.51 16.91 30.54 16.91 8.87 27.9 8.87"/></svg>