<svg id="Layer_1" data-name="Layer 1" xmlns="http://www.w3.org/2000/svg" viewBox="0 0 96.85 40.67"><defs><style>.cls-1{fill:#fff;}.cls-2{fill:#666;}.cls-3{fill:#3a3a3a;}.cls-4{fill:#252525;}.cls-5{fill:#1d1d1d;}.cls-6{fill:#757575;}.cls-7{fill:#454545;}.cls-8{fill:#2f2f2f;}.cls-9{fill:#858585;}.cls-10{fill:#4f4f4f;}.cls-11{fill:#949494;}.cls-12{fill:#5e5e5e;}.cls-13{fill:#a4a4a4;}.cls-14{fill:#707070;}.cls-15{fill:#b0b0b0;}.cls-16{fill:#7f7f7f;}.cls-17{fill:#bdbdbd;}.cls-18{fill:#c9c9c9;}.cls-19{fill:#d6d6d6;}.cls-20{fill:#e0e0e0;}.cls-21{fill:#eaeaea;}.cls-22{fill:#f4f4f4;}.cls-23{fill:#fefefe;}</style></defs><title>logo_riken_database</title><path class="cls-1" d="M53.28,13.06a17.5,17.5,0,0,0-.12-2.87,3.75,3.75,0,0,0,.46,0c.2,0,1,0,1.31,0a3.39,3.39,0,0,1,1.74.36,1.91,1.91,0,0,1,.88,1.63,2.48,2.48,0,0,1-1.21,2.11c.63.84,1.36,1.84,2,2.58a3.31,3.31,0,0,0,.91.8,2.33,2.33,0,0,1-.64.06,1.32,1.32,0,0,1-1.09-.56,29.78,29.78,0,0,1-1.92-2.53.16.16,0,0,0-.13-.07c-.21,0-.92,0-1.36,0,0,0,0,0,0,.06v.31c0,1.25,0,2.32.09,2.76a2.67,2.67,0,0,0-.44,0,4.87,4.87,0,0,0-.58,0,28.09,28.09,0,0,0,.1-2.88Zm.83.81c0,.06,0,.08,0,.09a8.22,8.22,0,0,0,1.22.07,1,1,0,0,0,.58-.12,1.84,1.84,0,0,0,.75-1.52,1.62,1.62,0,0,0-1.81-1.7,4.37,4.37,0,0,0-.72,0s0,0,0,.07Z" transform="translate(-1.68 -1.46)"/><path class="cls-1" d="M60,13.75a18.57,18.57,0,0,0-.09-2.42h.41a4.74,4.74,0,0,0,.57,0c0,.31-.06,1.25-.06,2.44v1.49a21.7,21.7,0,0,0,.08,2.44l-.42,0c-.2,0-.47,0-.56,0,0-.3.07-1.36.07-2.45Z" transform="translate(-1.68 -1.46)"/><path class="cls-1" d="M63.16,13.75a18.77,18.77,0,0,0-.09-2.43,2.47,2.47,0,0,0,.41,0,3.72,3.72,0,0,0,.57,0c0,.32-.06,1.25-.06,2.44v1.49a21.7,21.7,0,0,0,.08,2.44l-.38,0a4.93,4.93,0,0,0-.59,0c0-.29.07-1.36.07-2.45Zm4.08-2.41c.34,0,.63,0,.79,0a8.31,8.31,0,0,0-1.16,1c-.3.3-1.76,1.73-2,1.93.53.6,1.76,1.86,2.3,2.39a4.42,4.42,0,0,0,1.3,1,1.24,1.24,0,0,1-.54.08,1.72,1.72,0,0,1-1.5-.74c-.81-.78-1.65-1.76-2.38-2.58a0,0,0,0,1,0-.07A23.85,23.85,0,0,0,66,12.37a9.15,9.15,0,0,0,.9-1.05Z" transform="translate(-1.68 -1.46)"/><path class="cls-1" d="M69.38,13.75a16.44,16.44,0,0,0-.1-2.43,4.67,4.67,0,0,0,.57,0h2a4,4,0,0,0,.7,0,5.93,5.93,0,0,0-.06.75,1.84,1.84,0,0,0-.72-.15c-.28,0-.79,0-1.51,0,0,0,0,0,0,0V14s0,0,0,0h1.39a4,4,0,0,0,.76-.07,4.06,4.06,0,0,0-.08.75,1.62,1.62,0,0,0-.6-.13c-.3,0-1.3,0-1.47,0s0,0,0,0v.57a8.22,8.22,0,0,0,.06,1.9.56.56,0,0,0,.19,0c.21,0,.49,0,.86,0A3.93,3.93,0,0,0,72.76,17a4.77,4.77,0,0,0-.18.69,2.33,2.33,0,0,1-.46,0c-1.2,0-1.86,0-2.23,0l-.59,0c0-.3.08-1.25.08-2.44Z" transform="translate(-1.68 -1.46)"/><path class="cls-1" d="M74.6,17.65l-.46,0c.06-.71.09-4.5.09-6,0-.46,0-.5.08-.5s.11.07.29.24c.85.84,3.75,4.1,4.54,4.75,0-1.27,0-3.94-.11-4.86l.36,0a4.27,4.27,0,0,0,.49,0c0,.51-.1,2.67-.11,4.27,0,.55,0,1.37,0,1.73s0,.5-.07.5-.18-.1-.73-.63c-.75-.7-3.25-3.54-4.09-4.42,0,1.79,0,4.26.11,4.93A2.66,2.66,0,0,0,74.6,17.65Z" transform="translate(-1.68 -1.46)"/><path class="cls-1" d="M53.56,21.88c.06-.57.11-1.08.16-1.56,0-.12,0-.15.07-.15s.07.08.13.17.62,1.2.89,1.69L57,26.34l1.93-3.83c.53-.92.81-1.51,1.12-2.12.1-.18.15-.22.18-.22s.06,0,.09.28c0,.48.09,1,.14,1.54.22,2.34.49,5.24.62,5.81a2.24,2.24,0,0,0-.43,0,4.67,4.67,0,0,0-.6,0c0-.62-.23-3.79-.34-5.64-.84,1.75-1.9,3.79-2.74,5.54-.08.18-.11.18-.18,0-1-2.11-1.86-3.84-2.66-5.58-.11,1.76-.37,5-.37,5.65a2.53,2.53,0,0,0-.38,0,3.22,3.22,0,0,0-.53,0C53,27.28,53.32,24.24,53.56,21.88Z" transform="translate(-1.68 -1.46)"/><path class="cls-1" d="M63.2,23.87a16.44,16.44,0,0,0-.1-2.43,4.67,4.67,0,0,0,.57,0h2a4,4,0,0,0,.7,0,5.93,5.93,0,0,0-.06.75,1.84,1.84,0,0,0-.72-.15c-.28,0-.79,0-1.51,0,0,0,0,0,0,0v2.1s0,0,0,0h1.39a4,4,0,0,0,.76-.07,4.06,4.06,0,0,0-.08.75,1.62,1.62,0,0,0-.6-.13c-.3,0-1.3,0-1.47,0s0,0,0,0v.57a8.22,8.22,0,0,0,.06,1.9.56.56,0,0,0,.19,0c.21,0,.49,0,.86,0a3.93,3.93,0,0,0,1.46-.17,4.77,4.77,0,0,0-.18.69,2.33,2.33,0,0,1-.46,0c-1.2,0-1.86,0-2.23,0l-.59,0c0-.3.08-1.25.08-2.44Z" transform="translate(-1.68 -1.46)"/><path class="cls-1" d="M67,21.38a6.3,6.3,0,0,0,1.31.08h2.86a9.57,9.57,0,0,0,1.32-.07,5.08,5.08,0,0,0-.1.8,2,2,0,0,0-1-.17c-.37,0-.74,0-1.38,0v3.33c0,1.06,0,2.16.07,2.48a2.22,2.22,0,0,0-.39,0,4.16,4.16,0,0,0-.58,0c0-.3.07-1.36.07-2.45V22c-.41,0-.62,0-1.2,0a4.4,4.4,0,0,0-1.18.14A5.21,5.21,0,0,0,67,21.38Z" transform="translate(-1.68 -1.46)"/><path class="cls-1" d="M74.17,25.64s0,0,0,0c-.27.72-.65,1.74-.75,2.13a1.83,1.83,0,0,0-.38,0,4.72,4.72,0,0,0-.51,0c.22-.45.55-1.19.91-2l1.71-4.1c.12-.26.17-.36.22-.36s.09.07.22.36l1.75,3.81a25.3,25.3,0,0,0,1.12,2.32l-.44,0a5.13,5.13,0,0,0-.62,0c-.14-.39-.59-1.48-.87-2.14,0,0,0,0,0,0Zm2.06-.54s0,0,0,0l-1-2.37-.91,2.37s0,0,0,0Z" transform="translate(-1.68 -1.46)"/><path class="cls-1" d="M53.27,33.29a24.38,24.38,0,0,0-.09-2.85l.48,0c.24,0,.8,0,1.46,0a5.17,5.17,0,0,1,3.78,1.16,3.51,3.51,0,0,1,.94,2.51,4,4,0,0,1-1,2.79A4.16,4.16,0,0,1,55.66,38c-.42,0-.79,0-1.15,0a7.37,7.37,0,0,0-1.3-.07c0-.42.06-1.32.06-2.8Zm.85,1.48c0,1.05,0,1.86,0,2.13s0,.31.06.34a3.61,3.61,0,0,0,1.55.23,3.29,3.29,0,0,0,2.15-.67,3.17,3.17,0,0,0,1-2.45,3.43,3.43,0,0,0-.7-2.25,3.9,3.9,0,0,0-3.11-1.15,4.65,4.65,0,0,0-.91.08.07.07,0,0,0,0,.07c0,.19,0,1.15,0,2.17Z" transform="translate(-1.68 -1.46)"/><path class="cls-1" d="M62.08,35.77s0,0,0,0c-.27.72-.65,1.74-.75,2.13a1.83,1.83,0,0,0-.38,0,4.72,4.72,0,0,0-.51,0c.22-.45.55-1.19.91-2L63,31.79c.12-.26.17-.36.22-.36s.09.07.22.36L65.2,35.6a25.3,25.3,0,0,0,1.12,2.32l-.44,0a5.13,5.13,0,0,0-.62,0c-.14-.39-.59-1.48-.87-2.14,0,0,0,0,0,0Zm2.06-.54s0,0,0,0l-1-2.37-.91,2.37s0,0,0,0Z" transform="translate(-1.68 -1.46)"/><path class="cls-1" d="M66.47,31.5a6.3,6.3,0,0,0,1.31.08h2.86A9.57,9.57,0,0,0,72,31.51a5.08,5.08,0,0,0-.1.8,2,2,0,0,0-1-.17c-.37,0-.74,0-1.38,0v3.33c0,1.06,0,2.16.07,2.48a2.22,2.22,0,0,0-.39,0,4.16,4.16,0,0,0-.58,0c0-.3.07-1.36.07-2.45V32.11c-.41,0-.62,0-1.2,0a4.4,4.4,0,0,0-1.18.14A5.21,5.21,0,0,0,66.47,31.5Z" transform="translate(-1.68 -1.46)"/><path class="cls-1" d="M73.65,35.77s0,0,0,0c-.27.72-.65,1.74-.75,2.13a1.83,1.83,0,0,0-.38,0,4.72,4.72,0,0,0-.51,0c.22-.45.55-1.19.91-2l1.71-4.1c.12-.26.17-.36.22-.36s.09.07.22.36l1.75,3.81a25.3,25.3,0,0,0,1.12,2.32l-.44,0a5.13,5.13,0,0,0-.62,0c-.14-.39-.59-1.48-.87-2.14,0,0,0,0,0,0Zm2.06-.54s0,0,0,0l-1-2.37-.91,2.37s0,0,0,0Z" transform="translate(-1.68 -1.46)"/><path class="cls-1" d="M79.12,34A18.35,18.35,0,0,0,79,31.56l.43,0c.35,0,.7,0,1.25,0,1.51,0,1.87.84,1.87,1.47a1.52,1.52,0,0,1-.83,1.35,1.76,1.76,0,0,1,1.43,1.7c0,1-.75,1.9-2.31,1.9-.6,0-1.05,0-1.25-.06a5,5,0,0,0-.55,0c0-.35.07-1.35.07-2.44Zm.8.2s0,0,0,0l1,0a.55.55,0,0,0,.35-.08,1.17,1.17,0,0,0,.51-1c0-.7-.45-1.16-1.31-1.16a1.68,1.68,0,0,0-.54,0s0,0,0,0Zm1.81.88a1.78,1.78,0,0,0-1-.32,6.5,6.5,0,0,0-.74,0s0,0,0,0v.69a15.26,15.26,0,0,0,0,1.8,1.72,1.72,0,0,0,.92.18,1.32,1.32,0,0,0,.85-2.39Z" transform="translate(-1.68 -1.46)"/><path class="cls-1" d="M85.33,35.77s0,0,0,0c-.27.72-.65,1.74-.75,2.13a1.83,1.83,0,0,0-.38,0,4.72,4.72,0,0,0-.51,0c.22-.45.55-1.19.91-2l1.71-4.1c.12-.26.17-.36.22-.36s.09.07.22.36l1.75,3.81a25.3,25.3,0,0,0,1.12,2.32l-.44,0a5.13,5.13,0,0,0-.62,0c-.14-.39-.59-1.48-.87-2.14,0,0,0,0,0,0Zm2.06-.54s0,0,0,0l-1-2.37-.91,2.37s0,0,0,0Z" transform="translate(-1.68 -1.46)"/><path class="cls-1" d="M90,36.8a1.94,1.94,0,0,0,1.48.68,1.07,1.07,0,0,0,1.21-1.08c0-.51-.18-.83-.92-1.31l-.44-.28a2,2,0,0,1-1.16-1.75,1.71,1.71,0,0,1,1.92-1.64,4.62,4.62,0,0,1,.85.08l.46.07a4.91,4.91,0,0,0-.08.87A1.65,1.65,0,0,0,92.09,32a1,1,0,0,0-1.08.92c0,.44.11.74.88,1.25l.43.27c1.05.66,1.26,1.17,1.26,1.82a1.85,1.85,0,0,1-.79,1.46,2.57,2.57,0,0,1-1.36.35A2.91,2.91,0,0,1,90,37.69,5.34,5.34,0,0,0,90,36.8Z" transform="translate(-1.68 -1.46)"/><path class="cls-1" d="M95.14,34a16.44,16.44,0,0,0-.1-2.43,4.67,4.67,0,0,0,.57,0h2a4,4,0,0,0,.7,0,5.93,5.93,0,0,0-.06.75,1.84,1.84,0,0,0-.72-.15c-.28,0-.79,0-1.51,0,0,0,0,0,0,0v2.1s0,0,0,0h1.39a4,4,0,0,0,.76-.07,4.06,4.06,0,0,0-.08.75,1.62,1.62,0,0,0-.6-.13c-.3,0-1.3,0-1.47,0s0,0,0,0v.57a8.22,8.22,0,0,0,.06,1.9.56.56,0,0,0,.19,0c.21,0,.49,0,.86,0a3.93,3.93,0,0,0,1.46-.17,4.77,4.77,0,0,0-.18.69,2.33,2.33,0,0,1-.46,0c-1.2,0-1.86,0-2.23,0l-.59,0c0-.3.08-1.25.08-2.44Z" transform="translate(-1.68 -1.46)"/><path class="cls-2" d="M20.12,40.62a1,1,0,0,1,.45-.6,7.35,7.35,0,0,1-2.42-.45c-.43.48-.2,1,.76,1.43a6.44,6.44,0,0,0,1.72.41C20.27,41.17,20.08,40.9,20.12,40.62Z" transform="translate(-1.68 -1.46)"/><path class="cls-2" d="M28,36.76a1,1,0,0,1-.45.6,7.35,7.35,0,0,1,2.42.45c.43-.48.2-1-.76-1.43A6.44,6.44,0,0,0,27.54,36C27.89,36.21,28.08,36.48,28,36.76Z" transform="translate(-1.68 -1.46)"/><path class="cls-2" d="M23.71,41.26a9.42,9.42,0,0,1-3.09.15,6.24,6.24,0,0,0,3.1.73,7.48,7.48,0,0,0,3.15-.54A8.66,8.66,0,0,1,23.71,41.26Z" transform="translate(-1.68 -1.46)"/><path class="cls-3" d="M23.71,41.26l-.33-.11c-.84-.35-1.12-.82-.89-1.25a9.3,9.3,0,0,1-1.77.13h-.15a1,1,0,0,0-.45.6c0,.29.15.56.5.79A9.42,9.42,0,0,0,23.71,41.26Z" transform="translate(-1.68 -1.46)"/><path class="cls-2" d="M24.45,36.12A9.42,9.42,0,0,1,27.54,36a6.23,6.23,0,0,0-3.1-.73,7.48,7.48,0,0,0-3.15.54A8.66,8.66,0,0,1,24.45,36.12Z" transform="translate(-1.68 -1.46)"/><path class="cls-3" d="M24.45,36.12l.33.11c.84.35,1.12.82.89,1.25a9.3,9.3,0,0,1,1.77-.13h.15a1,1,0,0,0,.45-.6c0-.29-.15-.56-.5-.79A9.42,9.42,0,0,0,24.45,36.12Z" transform="translate(-1.68 -1.46)"/><path class="cls-2" d="M27.71,40.77c0,.32-.36.6-.85.83a7.5,7.5,0,0,0,1.88-.34c1.08-.37,1.46-.92,1.13-1.42a7.71,7.71,0,0,1-2.37.4A.67.67,0,0,1,27.71,40.77Z" transform="translate(-1.68 -1.46)"/><path class="cls-3" d="M27.71,40.77a.67.67,0,0,0-.2-.54H27a9,9,0,0,1-1.53-.16c0,.38-.45.75-1.25,1-.18.06-.37.11-.56.16a8.66,8.66,0,0,0,3.16.34C27.35,41.37,27.67,41.08,27.71,40.77Z" transform="translate(-1.68 -1.46)"/><path class="cls-4" d="M22.49,39.89c-.23.43.05.9.89,1.25l.33.11c.2,0,.39-.1.56-.16.8-.27,1.22-.65,1.25-1a4.29,4.29,0,0,1-1.62-.6A5.5,5.5,0,0,1,22.49,39.89Z" transform="translate(-1.68 -1.46)"/><path class="cls-2" d="M20.45,36.61c0-.32.36-.6.85-.83a7.5,7.5,0,0,0-1.88.34c-1.08.37-1.46.92-1.13,1.42a7.71,7.71,0,0,1,2.37-.4A.67.67,0,0,1,20.45,36.61Z" transform="translate(-1.68 -1.46)"/><path class="cls-3" d="M20.45,36.61a.67.67,0,0,0,.2.54h.46a9,9,0,0,1,1.53.16c0-.38.45-.75,1.25-1,.18-.06.37-.11.56-.16a8.66,8.66,0,0,0-3.16-.34C20.81,36,20.49,36.3,20.45,36.61Z" transform="translate(-1.68 -1.46)"/><path class="cls-4" d="M25.67,37.49c.23-.43-.05-.9-.89-1.25l-.33-.11c-.2,0-.39.1-.56.16-.8.27-1.22.65-1.25,1a4.29,4.29,0,0,1,1.62.6A5.5,5.5,0,0,1,25.67,37.49Z" transform="translate(-1.68 -1.46)"/><path class="cls-2" d="M24.71,38.66a.66.66,0,0,1-.09.21,8.79,8.79,0,0,1,1-.12,8.48,8.48,0,0,1-.91-.12S24.71,38.65,24.71,38.66Z" transform="translate(-1.68 -1.46)"/><path class="cls-2" d="M31,38.87c.06-.41-.34-.78-1-1.06a2.42,2.42,0,0,1-1,.61,7.58,7.58,0,0,1-2,.35,6.78,6.78,0,0,1,2,.44,1.82,1.82,0,0,1,.85.62C30.54,39.59,31,39.25,31,38.87Z" transform="translate(-1.68 -1.46)"/><path class="cls-3" d="M24.9,38.11l-.31.13a.62.62,0,0,1,.12.39,8.48,8.48,0,0,0,.91.12,10,10,0,0,1,1.4,0,7.58,7.58,0,0,0,2-.35,2.42,2.42,0,0,0,1-.61,7.35,7.35,0,0,0-2.42-.45A5.59,5.59,0,0,1,24.9,38.11Z" transform="translate(-1.68 -1.46)"/><path class="cls-4" d="M24.9,38.11a5.59,5.59,0,0,0,2.7-.74h-.15a9.3,9.3,0,0,0-1.77.13A1.62,1.62,0,0,1,24.9,38.11Z" transform="translate(-1.68 -1.46)"/><path class="cls-3" d="M29,39.21a6.78,6.78,0,0,0-2-.44,10,10,0,0,1-1.4,0,8.79,8.79,0,0,0-1,.12.91.91,0,0,1-.13.17l.05,0a2.86,2.86,0,0,1,.47.25,4.22,4.22,0,0,1,2.48.91,7.71,7.71,0,0,0,2.37-.4A1.82,1.82,0,0,0,29,39.21Z" transform="translate(-1.68 -1.46)"/><path class="cls-4" d="M24.27,39.26q.39,0,.76.06a2.86,2.86,0,0,0-.47-.25l-.05,0A1.41,1.41,0,0,1,24.27,39.26Z" transform="translate(-1.68 -1.46)"/><path class="cls-4" d="M25.62,38.76a10,10,0,0,0,1.4,0A10,10,0,0,0,25.62,38.76Z" transform="translate(-1.68 -1.46)"/><path class="cls-4" d="M25.52,40.08a9,9,0,0,0,1.53.16h.46A4.22,4.22,0,0,0,25,39.32.88.88,0,0,1,25.52,40.08Z" transform="translate(-1.68 -1.46)"/><path class="cls-5" d="M23.9,39.47a4.29,4.29,0,0,0,1.62.6.88.88,0,0,0-.5-.76q-.36,0-.76-.06A2.46,2.46,0,0,1,23.9,39.47Z" transform="translate(-1.68 -1.46)"/><path class="cls-4" d="M24.59,38.24l.31-.13h-.39A.87.87,0,0,1,24.59,38.24Z" transform="translate(-1.68 -1.46)"/><path class="cls-5" d="M24.51,38.12h.39a1.62,1.62,0,0,0,.77-.62,5.5,5.5,0,0,0-1.42.42A1.53,1.53,0,0,1,24.51,38.12Z" transform="translate(-1.68 -1.46)"/><path class="cls-2" d="M19.18,39a7.58,7.58,0,0,1,2-.35,6.78,6.78,0,0,1-2-.44,1.82,1.82,0,0,1-.85-.62c-.67.25-1.12.58-1.17,1s.34.78,1,1.06A2.42,2.42,0,0,1,19.18,39Z" transform="translate(-1.68 -1.46)"/><path class="cls-2" d="M23.53,38.51a8.81,8.81,0,0,1-1,.12,8.47,8.47,0,0,1,.91.12s0,0,0,0A.66.66,0,0,1,23.53,38.51Z" transform="translate(-1.68 -1.46)"/><path class="cls-3" d="M23.26,39.27l.31-.13a.62.62,0,0,1-.12-.39,8.47,8.47,0,0,0-.91-.12,10,10,0,0,1-1.4,0,7.58,7.58,0,0,0-2,.35,2.42,2.42,0,0,0-1,.61,7.35,7.35,0,0,0,2.42.45A5.59,5.59,0,0,1,23.26,39.27Z" transform="translate(-1.68 -1.46)"/><path class="cls-4" d="M23.26,39.27a5.59,5.59,0,0,0-2.7.74h.15a9.3,9.3,0,0,0,1.77-.13A1.62,1.62,0,0,1,23.26,39.27Z" transform="translate(-1.68 -1.46)"/><path class="cls-4" d="M23.57,39.14l-.31.13h.39A.87.87,0,0,1,23.57,39.14Z" transform="translate(-1.68 -1.46)"/><path class="cls-5" d="M23.65,39.26h-.39a1.62,1.62,0,0,0-.77.62,5.5,5.5,0,0,0,1.42-.42A1.53,1.53,0,0,1,23.65,39.26Z" transform="translate(-1.68 -1.46)"/><path class="cls-3" d="M19.13,38.17a6.78,6.78,0,0,0,2,.44,10,10,0,0,1,1.4,0,8.81,8.81,0,0,0,1-.12.91.91,0,0,1,.13-.17l-.05,0a2.86,2.86,0,0,1-.47-.25,4.22,4.22,0,0,1-2.48-.91,7.71,7.71,0,0,0-2.37.4A1.82,1.82,0,0,0,19.13,38.17Z" transform="translate(-1.68 -1.46)"/><path class="cls-4" d="M21.14,38.61a10,10,0,0,0,1.4,0A10,10,0,0,0,21.14,38.61Z" transform="translate(-1.68 -1.46)"/><path class="cls-4" d="M23.89,38.12q-.39,0-.76-.06a2.86,2.86,0,0,0,.47.25l.05,0A1.41,1.41,0,0,1,23.89,38.12Z" transform="translate(-1.68 -1.46)"/><path class="cls-4" d="M22.64,37.3a9,9,0,0,0-1.53-.16h-.46a4.22,4.22,0,0,0,2.48.91A.88.88,0,0,1,22.64,37.3Z" transform="translate(-1.68 -1.46)"/><path class="cls-5" d="M24.26,37.91a4.29,4.29,0,0,0-1.62-.6.88.88,0,0,0,.5.76q.36,0,.76.06A2.46,2.46,0,0,1,24.26,37.91Z" transform="translate(-1.68 -1.46)"/><path class="cls-3" d="M24.71,38.63a6.1,6.1,0,0,1-.77-.2l-.41.08a.66.66,0,0,0-.09.21s0,0,0,0a6.1,6.1,0,0,1,.77.2l.41-.08a.66.66,0,0,0,.09-.21S24.71,38.64,24.71,38.63Z" transform="translate(-1.68 -1.46)"/><path class="cls-4" d="M24.22,39a6.1,6.1,0,0,0-.77-.2.62.62,0,0,0,.12.39l.08,0C23.83,39,24,39,24.22,39Z" transform="translate(-1.68 -1.46)"/><path class="cls-4" d="M23.94,38.43a6.1,6.1,0,0,0,.77.2.62.62,0,0,0-.12-.39l-.08,0C24.33,38.33,24.14,38.38,23.94,38.43Z" transform="translate(-1.68 -1.46)"/><path class="cls-4" d="M24.5,39a.91.91,0,0,0,.13-.17l-.41.08Z" transform="translate(-1.68 -1.46)"/><path class="cls-5" d="M23.66,39.11l-.08,0a.87.87,0,0,0,.08.12h.62A1.41,1.41,0,0,0,24.5,39l-.28-.1C24,39,23.83,39,23.66,39.11Z" transform="translate(-1.68 -1.46)"/><path class="cls-5" d="M23.9,39.47a2.46,2.46,0,0,0,.36-.21h-.62A1.53,1.53,0,0,0,23.9,39.47Z" transform="translate(-1.68 -1.46)"/><path class="cls-4" d="M23.66,38.33a.91.91,0,0,0-.13.17l.41-.08Z" transform="translate(-1.68 -1.46)"/><path class="cls-5" d="M24.5,38.27l.08,0a.87.87,0,0,0-.08-.12h-.62a1.41,1.41,0,0,0-.23.21l.28.1C24.14,38.38,24.33,38.33,24.5,38.27Z" transform="translate(-1.68 -1.46)"/><path class="cls-5" d="M24.26,37.91a2.46,2.46,0,0,0-.36.21h.62A1.53,1.53,0,0,0,24.26,37.91Z" transform="translate(-1.68 -1.46)"/><path class="cls-6" d="M19.24,37.57a1.27,1.27,0,0,1,.27-.27c-.25,0-.5,0-.76,0a5.73,5.73,0,0,1-2.14-.58c-.36.38-.3.82.28,1.2a5.8,5.8,0,0,0,2.6.69C19.12,38.26,19,37.91,19.24,37.57Z" transform="translate(-1.68 -1.46)"/><path class="cls-6" d="M23.31,36.33a1.29,1.29,0,0,1-.17.17l.46,0-.12-.1Z" transform="translate(-1.68 -1.46)"/><path class="cls-6" d="M24.85,36.26a1.29,1.29,0,0,1,.17-.17l-.46,0,.12.1Z" transform="translate(-1.68 -1.46)"/><path class="cls-6" d="M28.91,35a1.27,1.27,0,0,1-.27.27c.25,0,.5,0,.76,0a5.73,5.73,0,0,1,2.14.58c.36-.38.3-.82-.28-1.2a5.8,5.8,0,0,0-2.6-.69C29,34.33,29.16,34.68,28.91,35Z" transform="translate(-1.68 -1.46)"/><path class="cls-6" d="M23.61,36.53a1.58,1.58,0,0,1,.19.16l.38-.1-.28,0Z" transform="translate(-1.68 -1.46)"/><path class="cls-6" d="M22.72,38.23a6,6,0,0,1-.62.17,9.34,9.34,0,0,1-2.59.16,4.89,4.89,0,0,0,2.43.78,9.17,9.17,0,0,0,3.13-.21,5.11,5.11,0,0,1-2-.63A1.55,1.55,0,0,1,22.72,38.23Z" transform="translate(-1.68 -1.46)"/><path class="cls-7" d="M22.09,38.4a6,6,0,0,0,.62-.17c-.48-.55-.05-1.15,1.08-1.54a1.58,1.58,0,0,0-.19-.16l-.46,0a6.43,6.43,0,0,1-3.63.79,1.27,1.27,0,0,0-.27.27c-.24.35-.12.69.26,1A9.34,9.34,0,0,0,22.09,38.4Z" transform="translate(-1.68 -1.46)"/><path class="cls-6" d="M25.44,34.36a6,6,0,0,1,.62-.17A9.34,9.34,0,0,1,28.66,34a4.89,4.89,0,0,0-2.43-.78,9.17,9.17,0,0,0-3.13.21,5.11,5.11,0,0,1,2,.63A1.55,1.55,0,0,1,25.44,34.36Z" transform="translate(-1.68 -1.46)"/><path class="cls-6" d="M24.55,36.06a1.58,1.58,0,0,1-.19-.16L24,36l.28,0Z" transform="translate(-1.68 -1.46)"/><path class="cls-7" d="M26.07,34.19a6,6,0,0,0-.62.17c.48.55.05,1.15-1.08,1.54a1.58,1.58,0,0,0,.19.16l.46,0a6.43,6.43,0,0,1,3.63-.79,1.27,1.27,0,0,0,.27-.27c.24-.35.12-.69-.26-1A9.34,9.34,0,0,0,26.07,34.19Z" transform="translate(-1.68 -1.46)"/><path class="cls-6" d="M27.43,38.13c-.25,0-.49-.06-.72-.1a.69.69,0,0,1-.12.29,2.76,2.76,0,0,1-1.53.81,9.47,9.47,0,0,0,3.16-.1A2.61,2.61,0,0,0,30,38,9.54,9.54,0,0,1,27.43,38.13Z" transform="translate(-1.68 -1.46)"/><path class="cls-6" d="M24.18,36.59l.44.06a.69.69,0,0,1,.08-.18l-.27,0Z" transform="translate(-1.68 -1.46)"/><path class="cls-7" d="M26.59,38.32a.69.69,0,0,0,.12-.29c-1.36-.26-2.19-.8-2.09-1.38l-.44-.06-.38.1c.48.55.05,1.15-1.08,1.54a1.55,1.55,0,0,0,.32.27,5.11,5.11,0,0,0,2,.63A2.76,2.76,0,0,0,26.59,38.32Z" transform="translate(-1.68 -1.46)"/><path class="cls-8" d="M22.72,38.23c1.14-.38,1.57-1,1.08-1.54C22.66,37.07,22.23,37.68,22.72,38.23Z" transform="translate(-1.68 -1.46)"/><path class="cls-6" d="M20.73,34.46c.25,0,.49.06.72.1a.69.69,0,0,1,.12-.29,2.76,2.76,0,0,1,1.53-.81,9.47,9.47,0,0,0-3.16.1,2.61,2.61,0,0,0-1.82,1A9.54,9.54,0,0,1,20.73,34.46Z" transform="translate(-1.68 -1.46)"/><path class="cls-6" d="M24,36l-.44-.06a.69.69,0,0,1-.08.18l.27,0Z" transform="translate(-1.68 -1.46)"/><path class="cls-7" d="M21.57,34.28a.69.69,0,0,0-.12.29c1.36.26,2.19.8,2.09,1.38L24,36l.38-.1c-.48-.55-.05-1.15,1.08-1.54a1.55,1.55,0,0,0-.32-.27,5.11,5.11,0,0,0-2-.63A2.76,2.76,0,0,0,21.57,34.28Z" transform="translate(-1.68 -1.46)"/><path class="cls-8" d="M25.44,34.36c-1.14.38-1.57,1-1.08,1.54C25.5,35.52,25.92,34.91,25.44,34.36Z" transform="translate(-1.68 -1.46)"/><path class="cls-6" d="M31.54,35.92a3.26,3.26,0,0,1-1.67.77c-.23,0-.46.09-.7.12a2.9,2.9,0,0,1,.45.24c.47.31.59.66.43,1a3.34,3.34,0,0,0,2-.92C32.39,36.69,32.14,36.26,31.54,35.92Z" transform="translate(-1.68 -1.46)"/><path class="cls-6" d="M24.74,36.36a.66.66,0,0,0,0,.11l.43-.07a2.94,2.94,0,0,1-.27-.14A1.23,1.23,0,0,0,24.74,36.36Z" transform="translate(-1.68 -1.46)"/><path class="cls-7" d="M28.64,35.3a6.43,6.43,0,0,1-3.63.79,1.29,1.29,0,0,0-.17.17,2.94,2.94,0,0,0,.27.14,8.51,8.51,0,0,1,4,.41c.24,0,.47-.07.7-.12a3.26,3.26,0,0,0,1.67-.77,5.73,5.73,0,0,0-2.14-.58C29.15,35.32,28.89,35.3,28.64,35.3Z" transform="translate(-1.68 -1.46)"/><path class="cls-8" d="M28.64,35.3a6.43,6.43,0,0,0-3.63.79A6.43,6.43,0,0,0,28.64,35.3Z" transform="translate(-1.68 -1.46)"/><path class="cls-7" d="M29.62,37a2.9,2.9,0,0,0-.45-.24,8.51,8.51,0,0,1-4-.41l-.43.07a.69.69,0,0,0-.08.18c1.36.26,2.19.8,2.09,1.38.23,0,.47.08.72.1A9.54,9.54,0,0,0,30,38C30.21,37.71,30.09,37.36,29.62,37Z" transform="translate(-1.68 -1.46)"/><path class="cls-8" d="M25.12,36.4a8.51,8.51,0,0,0,4,.41A8.51,8.51,0,0,0,25.12,36.4Z" transform="translate(-1.68 -1.46)"/><path class="cls-8" d="M26.71,38c.09-.57-.74-1.12-2.09-1.38C24.53,37.23,25.36,37.77,26.71,38Z" transform="translate(-1.68 -1.46)"/><path class="cls-6" d="M23.46,36.12l-.43.07a2.94,2.94,0,0,1,.27.14,1.23,1.23,0,0,0,.11-.11A.66.66,0,0,0,23.46,36.12Z" transform="translate(-1.68 -1.46)"/><path class="cls-6" d="M18.29,35.9c.23,0,.46-.09.7-.12a2.89,2.89,0,0,1-.45-.24c-.47-.31-.59-.66-.43-1a3.34,3.34,0,0,0-2,.92c-.3.42-.05.85.55,1.19A3.26,3.26,0,0,1,18.29,35.9Z" transform="translate(-1.68 -1.46)"/><path class="cls-7" d="M19.52,37.3a6.43,6.43,0,0,1,3.63-.79,1.29,1.29,0,0,0,.17-.17,2.94,2.94,0,0,0-.27-.14,8.51,8.51,0,0,1-4-.41c-.24,0-.47.07-.7.12a3.26,3.26,0,0,0-1.67.77,5.73,5.73,0,0,0,2.14.58C19,37.27,19.26,37.29,19.52,37.3Z" transform="translate(-1.68 -1.46)"/><path class="cls-8" d="M19.52,37.3a6.43,6.43,0,0,0,3.63-.79A6.43,6.43,0,0,0,19.52,37.3Z" transform="translate(-1.68 -1.46)"/><path class="cls-7" d="M18.54,35.54a2.89,2.89,0,0,0,.45.24,8.51,8.51,0,0,1,4,.41l.43-.07a.69.69,0,0,0,.08-.18c-1.36-.26-2.19-.8-2.09-1.38-.23,0-.47-.08-.72-.1a9.54,9.54,0,0,0-2.61.1C18,34.88,18.07,35.23,18.54,35.54Z" transform="translate(-1.68 -1.46)"/><path class="cls-8" d="M19,35.78a8.51,8.51,0,0,0,4,.41A8.51,8.51,0,0,0,19,35.78Z" transform="translate(-1.68 -1.46)"/><path class="cls-8" d="M21.44,34.56c-.09.57.74,1.12,2.09,1.38C23.63,35.37,22.8,34.82,21.44,34.56Z" transform="translate(-1.68 -1.46)"/><path class="cls-9" d="M18.05,35.21a7.09,7.09,0,0,1,4.28-.74.73.73,0,0,0-.16-.33,1.64,1.64,0,0,0-.38-.3,8.61,8.61,0,0,1-4.62.35,4.51,4.51,0,0,1-1.51-.54c-.83.37-1.15.88-.73,1.38a4.42,4.42,0,0,0,2.73,1A.76.76,0,0,1,18.05,35.21Z" transform="translate(-1.68 -1.46)"/><path class="cls-9" d="M33.22,32.77a4.42,4.42,0,0,0-2.73-1,.76.76,0,0,1-.39.77,7.09,7.09,0,0,1-4.28.74.73.73,0,0,0,.16.33,1.64,1.64,0,0,0,.38.3A8.61,8.61,0,0,1,31,33.62a4.51,4.51,0,0,1,1.51.54C33.32,33.78,33.64,33.27,33.22,32.77Z" transform="translate(-1.68 -1.46)"/><path class="cls-9" d="M23.9,34.77a6.18,6.18,0,0,0-.73-.19c-.27-.05-.55-.09-.83-.11.14.65-.9,1.28-2.61,1.49a9.76,9.76,0,0,1-2.07,0c.1.48.83.93,2.05,1.17a9.42,9.42,0,0,0,3.7-.06,2.6,2.6,0,0,1-1.16-.65C21.7,35.8,22.43,35.11,23.9,34.77Z" transform="translate(-1.68 -1.46)"/><path class="cls-10" d="M19.73,36c1.71-.21,2.75-.84,2.61-1.49a7.09,7.09,0,0,0-4.28.74.76.76,0,0,0-.39.77A9.76,9.76,0,0,0,19.73,36Z" transform="translate(-1.68 -1.46)"/><path class="cls-9" d="M24.26,33a6.18,6.18,0,0,0,.73.19c.27.05.55.09.83.11-.14-.65.9-1.28,2.61-1.49a9.76,9.76,0,0,1,2.07,0c-.1-.48-.83-.93-2.05-1.17a9.42,9.42,0,0,0-3.7.06,2.6,2.6,0,0,1,1.16.65C26.46,32,25.73,32.69,24.26,33Z" transform="translate(-1.68 -1.46)"/><path class="cls-10" d="M28.43,31.85c-1.71.21-2.75.84-2.61,1.49a7.09,7.09,0,0,0,4.28-.74.76.76,0,0,0,.39-.77A9.76,9.76,0,0,0,28.43,31.85Z" transform="translate(-1.68 -1.46)"/><path class="cls-9" d="M27.53,36.19c-1.6-.31-2.37-1-2-1.62-.29,0-.58,0-.87.06a7.7,7.7,0,0,0-.8.14c1.31.42,1.75,1.14.93,1.75a3.91,3.91,0,0,1-1.41.57,9,9,0,0,0,3.63.28,3.63,3.63,0,0,0,2.51-1A9.33,9.33,0,0,1,27.53,36.19Z" transform="translate(-1.68 -1.46)"/><path class="cls-10" d="M23.9,34.77c-1.47.34-2.2,1-1.64,1.68a2.6,2.6,0,0,0,1.16.65,3.91,3.91,0,0,0,1.41-.57C25.65,35.91,25.21,35.19,23.9,34.77Z" transform="translate(-1.68 -1.46)"/><path class="cls-9" d="M20.63,31.62c1.6.31,2.37,1,2,1.62.29,0,.58,0,.87-.06a7.7,7.7,0,0,0,.8-.14c-1.31-.42-1.75-1.14-.93-1.75a3.91,3.91,0,0,1,1.41-.57,9,9,0,0,0-3.63-.28,3.63,3.63,0,0,0-2.51,1A9.33,9.33,0,0,1,20.63,31.62Z" transform="translate(-1.68 -1.46)"/><path class="cls-10" d="M24.26,33c1.47-.34,2.2-1,1.64-1.68a2.6,2.6,0,0,0-1.16-.65,3.91,3.91,0,0,0-1.41.57C22.51,31.89,22.95,32.61,24.26,33Z" transform="translate(-1.68 -1.46)"/><path class="cls-9" d="M26.37,34a2.66,2.66,0,0,0-.5.28,1.18,1.18,0,0,0-.3.32c1.72-.05,3.37.34,3.92,1a.61.61,0,0,1,.07.78,5.94,5.94,0,0,0,3.08-.78c.62-.46.51-1-.15-1.4a6.07,6.07,0,0,1-1.71.44A7.64,7.64,0,0,1,26.37,34Z" transform="translate(-1.68 -1.46)"/><path class="cls-10" d="M26.37,34a7.64,7.64,0,0,0,4.41.62,6.07,6.07,0,0,0,1.71-.44A4.51,4.51,0,0,0,31,33.62,8.61,8.61,0,0,0,26.37,34Z" transform="translate(-1.68 -1.46)"/><path class="cls-10" d="M29.49,35.55c-.56-.65-2.21-1-3.92-1-.41.63.36,1.32,2,1.62a9.33,9.33,0,0,0,2,.15A.61.61,0,0,0,29.49,35.55Z" transform="translate(-1.68 -1.46)"/><path class="cls-9" d="M21.79,33.83a2.66,2.66,0,0,0,.5-.28,1.18,1.18,0,0,0,.3-.32c-1.72.05-3.37-.34-3.92-1a.61.61,0,0,1-.07-.78,5.94,5.94,0,0,0-3.08.78c-.62.46-.51,1,.15,1.4a6.07,6.07,0,0,1,1.71-.44A7.64,7.64,0,0,1,21.79,33.83Z" transform="translate(-1.68 -1.46)"/><path class="cls-10" d="M21.79,33.83a7.64,7.64,0,0,0-4.41-.62,6.07,6.07,0,0,0-1.71.44,4.51,4.51,0,0,0,1.51.54A8.61,8.61,0,0,0,21.79,33.83Z" transform="translate(-1.68 -1.46)"/><path class="cls-10" d="M18.67,32.25c.56.65,2.21,1,3.92,1,.41-.63-.36-1.32-2-1.62a9.33,9.33,0,0,0-2-.15A.61.61,0,0,0,18.67,32.25Z" transform="translate(-1.68 -1.46)"/><path class="cls-11" d="M20.62,32.22a.63.63,0,0,0,.15-.58,1.07,1.07,0,0,0-.47-.56,9.2,9.2,0,0,1-4.16-.16,3.45,3.45,0,0,1-.91-.41c-1.34.27-2.19.82-2,1.43S14.51,33,16,33.18a1.89,1.89,0,0,1,.67-.48A8.22,8.22,0,0,1,20.62,32.22Z" transform="translate(-1.68 -1.46)"/><path class="cls-11" d="M35,31.07c-.17-.61-1.31-1.08-2.76-1.24a1.89,1.89,0,0,1-.67.48,8.22,8.22,0,0,1-4,.48.63.63,0,0,0-.15.58,1.07,1.07,0,0,0,.47.56,9.2,9.2,0,0,1,4.16.16,3.45,3.45,0,0,1,.91.41C34.27,32.24,35.12,31.68,35,31.07Z" transform="translate(-1.68 -1.46)"/><path class="cls-11" d="M21,34.35c-.16-.59.64-1.13,1.92-1.41a3.34,3.34,0,0,0-1-.45,7.35,7.35,0,0,0-1.37-.27,4.84,4.84,0,0,1-3.23,1,9.79,9.79,0,0,1-1.41,0c-.45.55,0,1.17,1.23,1.55a9.19,9.19,0,0,0,4.26.13A1,1,0,0,1,21,34.35Z" transform="translate(-1.68 -1.46)"/><path class="cls-12" d="M17.39,33.23a4.84,4.84,0,0,0,3.23-1,8.22,8.22,0,0,0-4,.48,1.89,1.89,0,0,0-.67.48A9.79,9.79,0,0,0,17.39,33.23Z" transform="translate(-1.68 -1.46)"/><path class="cls-11" d="M27.12,28.67c.16.59-.64,1.13-1.92,1.41a3.33,3.33,0,0,0,1,.45,7.35,7.35,0,0,0,1.37.27,4.84,4.84,0,0,1,3.23-1,9.79,9.79,0,0,1,1.41,0c.45-.55,0-1.17-1.23-1.55a9.19,9.19,0,0,0-4.26-.13A1,1,0,0,1,27.12,28.67Z" transform="translate(-1.68 -1.46)"/><path class="cls-12" d="M30.77,29.79a4.84,4.84,0,0,0-3.23,1,8.22,8.22,0,0,0,4-.48,1.89,1.89,0,0,0,.67-.48A9.79,9.79,0,0,0,30.77,29.79Z" transform="translate(-1.68 -1.46)"/><path class="cls-11" d="M26,32.82a9.75,9.75,0,0,0-1.53-.06,8.72,8.72,0,0,0-1.47.18c.68.49.57,1.12-.41,1.58a5.14,5.14,0,0,1-1.09.35,6.63,6.63,0,0,0,3.76.77,4.65,4.65,0,0,0,3.26-1,7.23,7.23,0,0,1-1.25-.25C26,34,25.57,33.36,26,32.82Z" transform="translate(-1.68 -1.46)"/><path class="cls-12" d="M23,32.94c-1.28.27-2.08.82-1.92,1.41a1,1,0,0,0,.42.52,5.14,5.14,0,0,0,1.09-.35C23.53,34.06,23.64,33.44,23,32.94Z" transform="translate(-1.68 -1.46)"/><path class="cls-11" d="M22.2,30.19a9.75,9.75,0,0,0,1.53.06,8.72,8.72,0,0,0,1.47-.18c-.68-.49-.57-1.12.41-1.58a5.14,5.14,0,0,1,1.09-.35,6.63,6.63,0,0,0-3.76-.77,4.65,4.65,0,0,0-3.26,1,7.23,7.23,0,0,1,1.25.25C22.15,29.06,22.59,29.66,22.2,30.19Z" transform="translate(-1.68 -1.46)"/><path class="cls-12" d="M25.2,30.07c1.28-.27,2.08-.82,1.92-1.41a1,1,0,0,0-.42-.52,5.14,5.14,0,0,0-1.09.35C24.63,29,24.52,29.58,25.2,30.07Z" transform="translate(-1.68 -1.46)"/><path class="cls-11" d="M27.86,31.93a5.27,5.27,0,0,0-1.19.37,1.81,1.81,0,0,0-.71.52c1.4.17,2.48.64,2.65,1.23a.61.61,0,0,1-.12.54,8.29,8.29,0,0,0,4.09-.47c1-.47,1.09-1.12.35-1.62a8.81,8.81,0,0,1-1.36.16A6.82,6.82,0,0,1,27.86,31.93Z" transform="translate(-1.68 -1.46)"/><path class="cls-12" d="M27.86,31.93a6.82,6.82,0,0,0,3.71.73,8.81,8.81,0,0,0,1.36-.16,3.45,3.45,0,0,0-.91-.41A9.2,9.2,0,0,0,27.86,31.93Z" transform="translate(-1.68 -1.46)"/><path class="cls-12" d="M28.61,34c-.16-.59-1.24-1.06-2.65-1.23-.39.54.05,1.14,1.27,1.51a7.23,7.23,0,0,0,1.25.25A.61.61,0,0,0,28.61,34Z" transform="translate(-1.68 -1.46)"/><path class="cls-11" d="M20.3,31.08a5.27,5.27,0,0,0,1.19-.37,1.81,1.81,0,0,0,.71-.52c-1.4-.17-2.48-.64-2.65-1.23a.61.61,0,0,1,.12-.54,8.29,8.29,0,0,0-4.09.47c-1,.47-1.09,1.12-.35,1.62a8.8,8.8,0,0,1,1.36-.16A6.82,6.82,0,0,1,20.3,31.08Z" transform="translate(-1.68 -1.46)"/><path class="cls-12" d="M20.3,31.08a6.82,6.82,0,0,0-3.71-.73,8.8,8.8,0,0,0-1.36.16,3.45,3.45,0,0,0,.91.41A9.2,9.2,0,0,0,20.3,31.08Z" transform="translate(-1.68 -1.46)"/><path class="cls-12" d="M19.55,29c.16.59,1.24,1.06,2.65,1.23.39-.54-.05-1.14-1.27-1.51a7.23,7.23,0,0,0-1.25-.25A.61.61,0,0,0,19.55,29Z" transform="translate(-1.68 -1.46)"/><path class="cls-13" d="M18.49,29.74c.52-.22.88-.5,1-.81s-.11-.62-.5-.87a7.57,7.57,0,0,1-3.15-.53,2.53,2.53,0,0,1-.32-.19c-1.84,0-3.39.57-3.59,1.29s1,1.36,2.81,1.54a4.33,4.33,0,0,1,.42-.16A9,9,0,0,1,18.49,29.74Z" transform="translate(-1.68 -1.46)"/><path class="cls-13" d="M33.46,28.06a4.34,4.34,0,0,1-.42.16,9,9,0,0,1-3.37.27c-.52.22-.88.5-1,.81s.11.62.5.87a7.58,7.58,0,0,1,3.15.53,2.52,2.52,0,0,1,.32.19c1.84,0,3.39-.57,3.59-1.29S35.24,28.24,33.46,28.06Z" transform="translate(-1.68 -1.46)"/><path class="cls-13" d="M21.3,31.06c0-.29-.31-.59-.83-.83a6.3,6.3,0,0,0-2-.48,7.92,7.92,0,0,1-3.22.47l-.58,0c-1.24.52-1.34,1.31-.14,1.87a8.59,8.59,0,0,0,4.85.34.55.55,0,0,1,0-.22C19.55,31.67,20.28,31.28,21.3,31.06Z" transform="translate(-1.68 -1.46)"/><path class="cls-14" d="M18.49,29.74a9,9,0,0,0-3.37.27,4.33,4.33,0,0,0-.42.16l.58,0A7.92,7.92,0,0,0,18.49,29.74Z" transform="translate(-1.68 -1.46)"/><path class="cls-13" d="M26.86,27.17c0,.29.31.59.83.83a6.3,6.3,0,0,0,2,.48A7.92,7.92,0,0,1,32.88,28l.58,0c1.24-.52,1.34-1.31.14-1.87a8.59,8.59,0,0,0-4.85-.34.55.55,0,0,1,0,.22C28.61,26.55,27.88,26.95,26.86,27.17Z" transform="translate(-1.68 -1.46)"/><path class="cls-14" d="M29.67,28.49A9,9,0,0,0,33,28.22a4.34,4.34,0,0,0,.42-.16l-.58,0A7.92,7.92,0,0,0,29.67,28.49Z" transform="translate(-1.68 -1.46)"/><path class="cls-13" d="M25.73,31.23a7.67,7.67,0,0,0-2.14-.37,9.16,9.16,0,0,0-2.29.19c.06.45-.41.89-1.39,1.2l-.49.12c.09.7,1.5,1.29,3.39,1.36s3.59-.39,4.06-1.07a4.26,4.26,0,0,1-.42-.16C25.65,32.14,25.43,31.66,25.73,31.23Z" transform="translate(-1.68 -1.46)"/><path class="cls-14" d="M21.3,31.06c-1,.22-1.75.62-1.89,1.1a.55.55,0,0,0,0,.22l.49-.12C20.89,32,21.36,31.5,21.3,31.06Z" transform="translate(-1.68 -1.46)"/><path class="cls-13" d="M22.42,27a7.67,7.67,0,0,0,2.14.37,9.16,9.16,0,0,0,2.29-.19c-.06-.45.41-.89,1.39-1.2l.49-.12c-.09-.7-1.5-1.29-3.39-1.36s-3.59.39-4.06,1.07a4.26,4.26,0,0,1,.42.16C22.51,26.09,22.73,26.56,22.42,27Z" transform="translate(-1.68 -1.46)"/><path class="cls-14" d="M26.86,27.17c1-.22,1.75-.62,1.89-1.1a.55.55,0,0,0,0-.22l-.49.12C27.27,26.28,26.8,26.73,26.86,27.17Z" transform="translate(-1.68 -1.46)"/><path class="cls-13" d="M29.2,30.17a8.2,8.2,0,0,0-2.2.32,2.39,2.39,0,0,0-1.27.75c.87.3,1.38.74,1.24,1.22a.76.76,0,0,1-.12.22,9,9,0,0,0,4.93.05c1.48-.45,1.81-1.24.89-1.84h-.59A6,6,0,0,1,29.2,30.17Z" transform="translate(-1.68 -1.46)"/><path class="cls-14" d="M29.2,30.17a6,6,0,0,0,2.89.72h.59a2.52,2.52,0,0,0-.32-.19A7.58,7.58,0,0,0,29.2,30.17Z" transform="translate(-1.68 -1.46)"/><path class="cls-14" d="M25.73,31.23c-.3.43-.09.91.71,1.28a4.26,4.26,0,0,0,.42.16.76.76,0,0,0,.12-.22C27.11,32,26.61,31.53,25.73,31.23Z" transform="translate(-1.68 -1.46)"/><path class="cls-13" d="M19,28.06a8.2,8.2,0,0,0,2.2-.32A2.39,2.39,0,0,0,22.42,27c-.87-.3-1.38-.74-1.24-1.22a.76.76,0,0,1,.12-.22,9,9,0,0,0-4.93-.05c-1.48.45-1.81,1.24-.89,1.84h.59A6,6,0,0,1,19,28.06Z" transform="translate(-1.68 -1.46)"/><path class="cls-14" d="M19,28.06a6,6,0,0,0-2.89-.72h-.59a2.53,2.53,0,0,0,.32.19A7.57,7.57,0,0,0,19,28.06Z" transform="translate(-1.68 -1.46)"/><path class="cls-14" d="M22.42,27c.3-.43.09-.91-.71-1.28a4.26,4.26,0,0,0-.42-.16.76.76,0,0,0-.12.22C21,26.25,21.55,26.7,22.42,27Z" transform="translate(-1.68 -1.46)"/><path class="cls-15" d="M15.72,27A4.38,4.38,0,0,0,18.4,26c.42-.49.1-1-.7-1.37a5,5,0,0,1-1-.32c-.23-.05-.48-.09-.74-.13-2-.25-4.14.17-4.79.93s.44,1.57,2.44,1.82c.26,0,.53.05.8.06A9.79,9.79,0,0,1,15.72,27Z" transform="translate(-1.68 -1.46)"/><path class="cls-15" d="M34.55,26.49c-.26,0-.53-.05-.8-.06a9.79,9.79,0,0,1-1.31,0,4.38,4.38,0,0,0-2.68.95c-.42.49-.11,1,.7,1.37a5,5,0,0,1,1,.32c.23.05.48.09.74.13,2,.25,4.14-.17,4.79-.93S36.54,26.74,34.55,26.49Z" transform="translate(-1.68 -1.46)"/><path class="cls-15" d="M18.76,27.75a5.89,5.89,0,0,0-3-.78,9.78,9.78,0,0,1-1.31,0c-.26,0-.51.06-.76.11-1.87.36-2.62,1.23-1.66,1.94s3.24,1,5.11.63a6.37,6.37,0,0,0,.68-.17,3.54,3.54,0,0,1,.85-.38C19.28,28.73,19.38,28.21,18.76,27.75Z" transform="translate(-1.68 -1.46)"/><path class="cls-16" d="M15.72,27a9.79,9.79,0,0,0-1.31,0A9.78,9.78,0,0,0,15.72,27Z" transform="translate(-1.68 -1.46)"/><path class="cls-15" d="M29.4,25.69a5.89,5.89,0,0,0,3,.78,9.78,9.78,0,0,1,1.31,0c.26,0,.51-.06.76-.11,1.87-.36,2.62-1.23,1.66-1.94s-3.24-1-5.11-.63a6.37,6.37,0,0,0-.68.17,3.54,3.54,0,0,1-.85.38C28.88,24.71,28.78,25.23,29.4,25.69Z" transform="translate(-1.68 -1.46)"/><path class="cls-16" d="M32.44,26.47a9.79,9.79,0,0,0,1.31,0A9.78,9.78,0,0,0,32.44,26.47Z" transform="translate(-1.68 -1.46)"/><path class="cls-15" d="M24.74,29.89a3.69,3.69,0,0,0-2.5-1,9,9,0,0,0-3.6.27,3.53,3.53,0,0,1-.85.38,1.56,1.56,0,0,0-.34.28c-.65.76.44,1.57,2.44,1.82s4.14-.17,4.79-.93a.76.76,0,0,0,.16-.3A.6.6,0,0,1,24.74,29.89Z" transform="translate(-1.68 -1.46)"/><path class="cls-16" d="M17.78,29.52a3.53,3.53,0,0,0,.85-.38A3.54,3.54,0,0,0,17.78,29.52Z" transform="translate(-1.68 -1.46)"/><path class="cls-15" d="M23.42,23.55a3.69,3.69,0,0,0,2.5,1,9,9,0,0,0,3.6-.27,3.53,3.53,0,0,1,.85-.38,1.56,1.56,0,0,0,.34-.28c.65-.76-.44-1.57-2.44-1.82s-4.14.17-4.79.93a.76.76,0,0,0-.16.3A.6.6,0,0,1,23.42,23.55Z" transform="translate(-1.68 -1.46)"/><path class="cls-16" d="M30.38,23.92a3.53,3.53,0,0,0-.85.38A3.54,3.54,0,0,0,30.38,23.92Z" transform="translate(-1.68 -1.46)"/><path class="cls-15" d="M26.79,28.74c-1.21.23-1.94.68-2.05,1.15a.6.6,0,0,1,.1.5,1.25,1.25,0,0,0,.29.29c1,.71,3.24,1,5.11.63s2.62-1.23,1.66-1.94a2.56,2.56,0,0,0-.45-.26,5,5,0,0,1-1-.32A9.44,9.44,0,0,0,26.79,28.74Z" transform="translate(-1.68 -1.46)"/><path class="cls-16" d="M31.46,29.11a5,5,0,0,0-1-.32A5,5,0,0,0,31.46,29.11Z" transform="translate(-1.68 -1.46)"/><path class="cls-16" d="M24.74,29.89a.6.6,0,0,0,.1.5A.6.6,0,0,0,24.74,29.89Z" transform="translate(-1.68 -1.46)"/><path class="cls-15" d="M21.37,24.7c1.21-.23,1.94-.68,2.05-1.15a.6.6,0,0,1-.1-.5,1.25,1.25,0,0,0-.29-.29c-1-.71-3.24-1-5.11-.63s-2.62,1.23-1.66,1.94a2.55,2.55,0,0,0,.45.26,5,5,0,0,1,1,.32A9.44,9.44,0,0,0,21.37,24.7Z" transform="translate(-1.68 -1.46)"/><path class="cls-16" d="M16.7,24.33a5,5,0,0,0,1,.32A5,5,0,0,0,16.7,24.33Z" transform="translate(-1.68 -1.46)"/><path class="cls-16" d="M23.42,23.55a.6.6,0,0,0-.1-.5A.6.6,0,0,0,23.42,23.55Z" transform="translate(-1.68 -1.46)"/><path class="cls-17" d="M16.38,21c1.82.4,2.44,1.28,1.39,2a8,8,0,0,1-5.19.53c-1.82-.4-2.44-1.28-1.39-2A8,8,0,0,1,16.38,21Z" transform="translate(-1.68 -1.46)"/><path class="cls-17" d="M35.59,25.18c1.82.4,2.44,1.28,1.39,2a8,8,0,0,1-5.19.53c-1.82-.4-2.44-1.28-1.39-2A8,8,0,0,1,35.59,25.18Z" transform="translate(-1.68 -1.46)"/><path class="cls-17" d="M12.38,24c2-.21,4.11.25,4.66,1s-.66,1.56-2.69,1.77-4.11-.25-4.66-1S10.35,24.23,12.38,24Z" transform="translate(-1.68 -1.46)"/><path class="cls-17" d="M33.81,21.84c2-.21,4.11.25,4.66,1s-.66,1.56-2.69,1.77-4.11-.25-4.66-1S31.78,22,33.81,21.84Z" transform="translate(-1.68 -1.46)"/><path class="cls-17" d="M15.24,27.25a8,8,0,0,1,5.19-.53c1.82.4,2.44,1.28,1.39,2a8,8,0,0,1-5.19.53C14.81,28.82,14.19,27.94,15.24,27.25Z" transform="translate(-1.68 -1.46)"/><path class="cls-17" d="M26.33,20a8,8,0,0,1,5.19-.53c1.82.4,2.44,1.28,1.39,2a8,8,0,0,1-5.19.53C25.9,21.53,25.28,20.65,26.33,20Z" transform="translate(-1.68 -1.46)"/><path class="cls-17" d="M23.28,28.76C22.73,28,23.94,27.2,26,27s4.11.25,4.66,1-.66,1.56-2.69,1.77S23.82,29.53,23.28,28.76Z" transform="translate(-1.68 -1.46)"/><path class="cls-17" d="M17.54,20.63c-.54-.77.66-1.56,2.69-1.77s4.11.25,4.66,1-.66,1.56-2.69,1.77S18.08,21.4,17.54,20.63Z" transform="translate(-1.68 -1.46)"/><path class="cls-18" d="M17.4,17.71c1.56.53,1.69,1.45.28,2a8.73,8.73,0,0,1-5.37.11c-1.56-.53-1.69-1.45-.28-2A8.73,8.73,0,0,1,17.4,17.71Z" transform="translate(-1.68 -1.46)"/><path class="cls-18" d="M35.85,24c1.56.53,1.69,1.45.28,2a8.73,8.73,0,0,1-5.37.11c-1.56-.53-1.69-1.45-.28-2A8.73,8.73,0,0,1,35.85,24Z" transform="translate(-1.68 -1.46)"/><path class="cls-18" d="M11.49,20.74c2.1,0,3.89.57,4,1.37s-1.5,1.47-3.6,1.52S8,23,7.89,22.25,9.39,20.78,11.49,20.74Z" transform="translate(-1.68 -1.46)"/><path class="cls-18" d="M36.28,20.24c2.1,0,3.89.57,4,1.37s-1.5,1.47-3.6,1.52-3.89-.57-4-1.37S34.18,20.29,36.28,20.24Z" transform="translate(-1.68 -1.46)"/><path class="cls-18" d="M12.95,24.47a8.73,8.73,0,0,1,5.37-.11c1.56.53,1.69,1.45.28,2a8.73,8.73,0,0,1-5.37.11C11.67,26,11.54,25.06,12.95,24.47Z" transform="translate(-1.68 -1.46)"/><path class="cls-18" d="M29.56,17.47a8.73,8.73,0,0,1,5.37-.11c1.56.53,1.69,1.45.28,2a8.73,8.73,0,0,1-5.37.11C28.28,19,28.15,18.06,29.56,17.47Z" transform="translate(-1.68 -1.46)"/><path class="cls-18" d="M20.93,26.71c-.11-.8,1.5-1.47,3.6-1.52s3.89.57,4,1.37S27,28,24.93,28.08,21,27.51,20.93,26.71Z" transform="translate(-1.68 -1.46)"/><path class="cls-18" d="M19.63,17.3c-.11-.8,1.5-1.47,3.6-1.52s3.89.57,4,1.37-1.5,1.47-3.6,1.52S19.74,18.1,19.63,17.3Z" transform="translate(-1.68 -1.46)"/><path class="cls-19" d="M19.08,14.47c1.23.64.86,1.55-.84,2a8.48,8.48,0,0,1-5.31-.32c-1.23-.64-.86-1.55.84-2A8.48,8.48,0,0,1,19.08,14.47Z" transform="translate(-1.68 -1.46)"/><path class="cls-19" d="M35.23,22.9c1.23.64.86,1.55-.84,2a8.48,8.48,0,0,1-5.31-.32c-1.23-.64-.86-1.55.84-2A8.48,8.48,0,0,1,35.23,22.9Z" transform="translate(-1.68 -1.46)"/><path class="cls-19" d="M11.11,17.3c2.07.12,3.49.86,3.16,1.65S12,20.27,9.92,20.15s-3.49-.86-3.16-1.65S9,17.17,11.11,17.3Z" transform="translate(-1.68 -1.46)"/><path class="cls-19" d="M38.24,18.93c2.07.12,3.49.86,3.16,1.65S39.12,21.9,37,21.78s-3.49-.86-3.16-1.65S36.16,18.8,38.24,18.93Z" transform="translate(-1.68 -1.46)"/><path class="cls-19" d="M10.73,21.43a8.48,8.48,0,0,1,5.31.32c1.23.64.86,1.55-.84,2a8.48,8.48,0,0,1-5.31-.32C8.66,22.8,9,21.9,10.73,21.43Z" transform="translate(-1.68 -1.46)"/><path class="cls-19" d="M33,15.31a8.48,8.48,0,0,1,5.31.32c1.23.64.86,1.55-.84,2a8.48,8.48,0,0,1-5.31-.32C30.88,16.68,31.25,15.78,33,15.31Z" transform="translate(-1.68 -1.46)"/><path class="cls-19" d="M18.17,24.46c.33-.79,2.28-1.32,4.35-1.2s3.49.86,3.16,1.65-2.28,1.32-4.35,1.2S17.85,25.25,18.17,24.46Z" transform="translate(-1.68 -1.46)"/><path class="cls-19" d="M22.47,14.16c.33-.79,2.28-1.32,4.35-1.2s3.49.86,3.16,1.65-2.28,1.32-4.35,1.2S22.14,15,22.47,14.16Z" transform="translate(-1.68 -1.46)"/><path class="cls-20" d="M21.43,11.34c.85.73,0,1.58-1.93,1.91s-4.17,0-5-.73,0-1.58,1.93-1.91S20.58,10.61,21.43,11.34Z" transform="translate(-1.68 -1.46)"/><path class="cls-20" d="M33.68,21.77c.85.73,0,1.58-1.93,1.91s-4.17,0-5-.73,0-1.58,1.93-1.91S32.82,21,33.68,21.77Z" transform="translate(-1.68 -1.46)"/><path class="cls-20" d="M11.39,13.75c2,.29,2.94,1.12,2.19,1.86s-3,1.12-4.91.83-2.94-1.12-2.19-1.86S9.43,13.46,11.39,13.75Z" transform="translate(-1.68 -1.46)"/><path class="cls-20" d="M39.5,17.84c2,.29,2.94,1.12,2.19,1.86s-3,1.12-4.91.83-2.94-1.12-2.19-1.86S37.53,17.56,39.5,17.84Z" transform="translate(-1.68 -1.46)"/><path class="cls-20" d="M8.78,18.15c1.92-.32,4.17,0,5,.73s0,1.58-1.93,1.91-4.17,0-5-.73S6.86,18.47,8.78,18.15Z" transform="translate(-1.68 -1.46)"/><path class="cls-20" d="M36.28,13.5c1.92-.32,4.17,0,5,.73s0,1.58-1.93,1.91-4.17,0-5-.73S34.37,13.83,36.28,13.5Z" transform="translate(-1.68 -1.46)"/><path class="cls-20" d="M15.13,22c.75-.74,3-1.12,4.91-.83S23,22.25,22.24,23s-3,1.12-4.91.83S14.38,22.7,15.13,22Z" transform="translate(-1.68 -1.46)"/><path class="cls-20" d="M25.92,11.29c.75-.74,3-1.12,4.91-.83s2.94,1.12,2.19,1.86-3,1.12-4.91.83S25.17,12,25.92,11.29Z" transform="translate(-1.68 -1.46)"/><path class="cls-21" d="M24.39,8.37c.44.78-.87,1.55-2.93,1.71S17.39,9.75,17,9s.87-1.55,2.93-1.71S24,7.59,24.39,8.37Z" transform="translate(-1.68 -1.46)"/><path class="cls-21" d="M31.2,20.53c.44.78-.87,1.55-2.93,1.71s-4.07-.33-4.51-1.11.87-1.55,2.93-1.71S30.77,19.75,31.2,20.53Z" transform="translate(-1.68 -1.46)"/><path class="cls-21" d="M12.42,10.15c1.76.43,2.26,1.33,1.12,2a8.26,8.26,0,0,1-5.26.42c-1.76-.43-2.26-1.33-1.12-2A8.26,8.26,0,0,1,12.42,10.15Z" transform="translate(-1.68 -1.46)"/><path class="cls-21" d="M39.88,16.92c1.76.43,2.26,1.33,1.12,2a8.26,8.26,0,0,1-5.26.42c-1.76-.43-2.26-1.33-1.12-2A8.26,8.26,0,0,1,39.88,16.92Z" transform="translate(-1.68 -1.46)"/><path class="cls-21" d="M7.27,14.63c2.05-.17,4.07.33,4.51,1.11s-.87,1.55-2.93,1.71-4.07-.33-4.51-1.11S5.22,14.79,7.27,14.63Z" transform="translate(-1.68 -1.46)"/><path class="cls-21" d="M39.3,12c2.05-.17,4.07.33,4.51,1.11s-.87,1.55-2.93,1.71-4.07-.33-4.51-1.11S37.25,12.21,39.3,12Z" transform="translate(-1.68 -1.46)"/><path class="cls-21" d="M12,19.17a8.26,8.26,0,0,1,5.26-.42c1.76.43,2.26,1.33,1.12,2a8.26,8.26,0,0,1-5.26.42C11.33,20.74,10.83,19.84,12,19.17Z" transform="translate(-1.68 -1.46)"/><path class="cls-21" d="M29.81,8.75a8.26,8.26,0,0,1,5.26-.42c1.76.43,2.26,1.33,1.12,2a8.26,8.26,0,0,1-5.26.42C29.16,10.31,28.66,9.42,29.81,8.75Z" transform="translate(-1.68 -1.46)"/><ellipse class="cls-22" cx="22.4" cy="4.18" rx="3.8" ry="1.44"/><ellipse class="cls-22" cx="22.4" cy="17.61" rx="3.8" ry="1.44"/><path class="cls-22" d="M14.26,6.59c1.49.56,1.49,1.48,0,2a8.77,8.77,0,0,1-5.38,0c-1.49-.56-1.49-1.48,0-2A8.77,8.77,0,0,1,14.26,6.59Z" transform="translate(-1.68 -1.46)"/><path class="cls-22" d="M39.28,16.08c1.49.56,1.49,1.48,0,2a8.77,8.77,0,0,1-5.38,0c-1.49-.56-1.49-1.48,0-2A8.77,8.77,0,0,1,39.28,16.08Z" transform="translate(-1.68 -1.46)"/><ellipse class="cls-22" cx="4.71" cy="10.89" rx="3.8" ry="1.44"/><ellipse class="cls-22" cx="40.1" cy="10.89" rx="3.8" ry="1.44"/><path class="cls-22" d="M8.88,16.08a8.77,8.77,0,0,1,5.38,0c1.49.56,1.49,1.48,0,2a8.77,8.77,0,0,1-5.38,0C7.39,17.56,7.39,16.65,8.88,16.08Z" transform="translate(-1.68 -1.46)"/><path class="cls-22" d="M33.9,6.59a8.77,8.77,0,0,1,5.38,0c1.49.56,1.49,1.48,0,2a8.77,8.77,0,0,1-5.38,0C32.42,8.06,32.42,7.15,33.9,6.59Z" transform="translate(-1.68 -1.46)"/><path class="cls-23" d="M31.75,3.2c-.44.78-2.46,1.28-4.51,1.11s-3.37-.93-2.93-1.71,2.46-1.28,4.51-1.11S32.19,2.42,31.75,3.2Z" transform="translate(-1.68 -1.46)"/><path class="cls-23" d="M23.85,17.32c-.44.78-2.46,1.28-4.51,1.11S16,17.5,16.41,16.72s2.46-1.28,4.51-1.11S24.28,16.54,23.85,17.32Z" transform="translate(-1.68 -1.46)"/><path class="cls-23" d="M16.91,3.12c1.14.67.64,1.56-1.12,2a8.26,8.26,0,0,1-5.26-.42c-1.14-.67-.64-1.56,1.12-2A8.26,8.26,0,0,1,16.91,3.12Z" transform="translate(-1.68 -1.46)"/><path class="cls-23" d="M37.62,15.23c1.14.67.64,1.56-1.12,2a8.26,8.26,0,0,1-5.26-.42c-1.14-.67-.64-1.56,1.12-2A8.26,8.26,0,0,1,37.62,15.23Z" transform="translate(-1.68 -1.46)"/><path class="cls-23" d="M6.27,7C8.33,7.21,9.64,8,9.2,8.76S6.74,10,4.69,9.87,1.32,8.94,1.76,8.16,4.22,6.88,6.27,7Z" transform="translate(-1.68 -1.46)"/><path class="cls-23" d="M43.47,10c2.05.17,3.37.93,2.93,1.71S43.94,13,41.89,12.87s-3.37-.93-2.93-1.71S41.41,9.88,43.47,10Z" transform="translate(-1.68 -1.46)"/><path class="cls-23" d="M6.06,12.68a8.26,8.26,0,0,1,5.26.42c1.14.67.64,1.56-1.12,2a8.26,8.26,0,0,1-5.26-.42C3.8,14,4.3,13.11,6.06,12.68Z" transform="translate(-1.68 -1.46)"/><path class="cls-23" d="M38,4.82a8.26,8.26,0,0,1,5.26.42c1.14.67.64,1.56-1.12,2a8.26,8.26,0,0,1-5.26-.42C35.69,6.15,36.19,5.25,38,4.82Z" transform="translate(-1.68 -1.46)"/></svg>