<?xml version="1.0" encoding="utf-8"?>
<!-- Generator: Adobe Illustrator 20.1.0, SVG Export Plug-In . SVG Version: 6.00 Build 0)  -->
<svg version="1.1" id="Layer_1" xmlns="http://www.w3.org/2000/svg" xmlns:xlink="http://www.w3.org/1999/xlink" x="0px" y="0px"
	 viewBox="0 0 19.7 27.6" style="enable-background:new 0 0 19.7 27.6;" xml:space="preserve">
<style type="text/css">
	.st0{enable-background:new    ;}
	.st1{fill:#FFFFFF;}
	.st2{fill:#333aff;}
</style>
<g class="st0">
	<path class="st1" d="M9.9,25.8c-0.6,0-1.2-0.2-1.7-0.5C7.6,25,7.2,24.6,7,24L2.1,13.7c-0.4-0.8-0.6-1.8-0.6-3
		c0-2.3,0.8-4.3,2.4-5.9c1.6-1.6,3.6-2.4,5.9-2.4c2.3,0,4.3,0.8,5.9,2.4c1.6,1.6,2.4,3.6,2.4,5.9c0,1.2-0.2,2.2-0.6,3L12.8,24
		c-0.3,0.6-0.7,1-1.2,1.3C11,25.7,10.5,25.8,9.9,25.8z M9.9,5.3c-1.5,0-2.7,0.5-3.8,1.6C5,7.9,4.5,9.1,4.5,10.6
		c0,0.7,0.1,1.3,0.3,1.8l4.9,10.4c0.2,0.2,0.2,0.1,0.3,0l4.9-10.4c0.2-0.4,0.3-1,0.3-1.8c0-1.5-0.5-2.7-1.6-3.8
		C12.6,5.8,11.3,5.3,9.9,5.3z M9.9,15.5c-1.3,0-2.5-0.5-3.5-1.4c-0.9-0.9-1.4-2.1-1.4-3.5s0.5-2.5,1.4-3.5c0.9-0.9,2.1-1.4,3.5-1.4
		s2.5,0.5,3.5,1.4c0.9,0.9,1.4,2.1,1.4,3.5c0,1.3-0.5,2.5-1.4,3.5l0,0C12.4,15,11.2,15.5,9.9,15.5z M9.9,8.7c-0.6,0-1,0.2-1.4,0.6
		c-0.4,0.4-0.6,0.8-0.6,1.4s0.2,1,0.6,1.4c0.4,0.4,0.8,0.6,1.4,0.6s1-0.2,1.4-0.6l0,0c0.4-0.4,0.6-0.8,0.6-1.4s-0.2-1-0.6-1.4
		C10.8,8.9,10.4,8.7,9.9,8.7z"/>
</g>
<g class="st0">
	<path class="st2" d="M16.7,10.6c0,1-0.1,1.8-0.4,2.4l-4.9,10.4c-0.1,0.3-0.4,0.5-0.6,0.7c-0.3,0.2-0.6,0.3-0.9,0.3
		c-0.3,0-0.6-0.1-0.9-0.3c-0.3-0.2-0.5-0.4-0.6-0.7L3.4,13C3.1,12.4,3,11.6,3,10.6c0-1.9,0.7-3.5,2-4.8c1.3-1.3,3-2,4.8-2
		c1.9,0,3.5,0.7,4.8,2C16,7.1,16.7,8.7,16.7,10.6z M12.3,13c0.7-0.7,1-1.5,1-2.4s-0.3-1.8-1-2.4c-0.7-0.7-1.5-1-2.4-1
		s-1.8,0.3-2.4,1c-0.7,0.7-1,1.5-1,2.4s0.3,1.8,1,2.4c0.7,0.7,1.5,1,2.4,1S11.6,13.7,12.3,13z"/>
</g>
</svg>
