<svg id="Layer_1" data-name="Layer 1" xmlns="http://www.w3.org/2000/svg" viewBox="0 0 26 26"><defs><style>.cls-1{fill:#fff04d;}</style></defs><title>shortcut_icons_camera</title><rect class="cls-1" width="26" height="26" rx="13" ry="13"/><path d="M18.5,8.16a2,2,0,0,1,2,2v7a2,2,0,0,1-2,2H7.5a2,2,0,0,1-2-2v-7a2,2,0,0,1,2-2H9.25l.4-1.06a1.45,1.45,0,0,1,.54-.66A1.39,1.39,0,0,1,11,6.16h4a1.39,1.39,0,0,1,.81.28,1.45,1.45,0,0,1,.54.66l.4,1.06Zm-8,8a3.49,3.49,0,0,0,4.95,0,3.49,3.49,0,0,0,0-4.95,3.49,3.49,0,0,0-4.95,0,3.49,3.49,0,0,0,0,4.95Zm.88-4.06a2.25,2.25,0,1,1,3.18,3.18,2.25,2.25,0,1,1-3.18-3.18Z" transform="translate(0 0)"/></svg>