<svg id="Layer_1" data-name="Layer 1" xmlns="http://www.w3.org/2000/svg" viewBox="0 0 11.84 11.84"><defs><style>.cls-1{fill:#3dccd4;}</style></defs><title>title_icons_pencil_closed</title><path class="cls-1" d="M9,4.91l3.25,3.25-6.5,6.5H2.5V11.41ZM5.34,13.66,6,12.95,4.21,11.11l-.71.71v.84h1v1ZM9.42,6.41a.15.15,0,0,0-.17-.17.18.18,0,0,0-.13.05L4.88,10.52a.18.18,0,0,0-.05.13.15.15,0,0,0,.17.17.18.18,0,0,0,.13-.05L9.37,6.54A.18.18,0,0,0,9.42,6.41Zm4.91-.75a1,1,0,0,1-.29.7l-1.3,1.3L9.5,4.41l1.3-1.29a.93.93,0,0,1,.7-.3,1,1,0,0,1,.71.3L14,4.95A1,1,0,0,1,14.34,5.66Z" transform="translate(-2.5 -2.82)"/></svg>