<?xml version="1.0" encoding="utf-8"?>
<!-- Generator: Adobe Illustrator 16.0.4, SVG Export Plug-In . SVG Version: 6.00 Build 0)  -->
<!DOCTYPE svg PUBLIC "-//W3C//DTD SVG 1.1//EN" "http://www.w3.org/Graphics/SVG/1.1/DTD/svg11.dtd">
<svg version="1.1" id="Layer_1" xmlns="http://www.w3.org/2000/svg" xmlns:xlink="http://www.w3.org/1999/xlink" x="0px" y="0px"
	 width="680.311px" height="941.101px" viewBox="0 0 680.311 941.101" enable-background="new 0 0 680.311 941.101"
	 xml:space="preserve">
<title>title_icons_pencil_closed</title>
<path fill="#3BCDD4" d="M564.836,320.127L407.244,477.718l157.592,157.596l61.907-61.912c5.631-11.258,22.517-11.258,28.146-5.631
	c11.252,5.631,16.882,16.885,16.882,28.141v196.992c0,16.887-11.257,28.145-28.141,28.145H452.268
	c-11.257,0-22.513-5.627-28.145-16.885c-5.631-11.258,0-22.514,5.632-28.145l61.907-61.908L339.698,545.263l-157.59,157.586
	l61.909,61.912c11.257,5.631,11.257,22.516,5.629,28.145c-5.629,11.258-16.885,16.889-28.14,16.889H30.142
	C13.257,809.792,2,798.533,2,781.65V584.656c0-11.254,5.627-22.512,16.886-28.139c11.257-5.631,22.512,0,28.141,5.627l61.91,61.912
	l157.59-157.594L114.562,320.127l-61.909,61.911c-5.63,5.629-22.512,11.258-28.141,5.629C7.623,387.667,2,376.409,2,365.156V168.164
	c0-16.883,11.257-28.14,28.143-28.14h196.988c11.26,0,22.512,5.63,28.144,16.885c5.628,11.255,0,22.513-5.63,28.14l-61.909,61.912
	l157.591,157.594l157.598-157.593l-73.171-61.913c-11.258-5.627-11.258-22.513-5.627-28.14c5.627-11.258,16.884-16.885,28.14-16.885
	H649.26c16.883,0,28.138,11.259,28.138,28.14v196.994c0,11.252-5.631,22.509-16.884,28.141c-5.631,0-5.631,0-11.252,0
	c-5.63,0-16.893-5.634-22.516-5.634L564.836,320.127z"/>
</svg>
