<svg id="Layer_1" data-name="Layer 1" xmlns="http://www.w3.org/2000/svg" viewBox="0 0 15 13"><defs><style>.cls-1{fill:#3dccd4;}</style></defs><title>title_icons_camera_closed</title><path class="cls-1" d="M14,3.66a2,2,0,0,1,2,2v7a2,2,0,0,1-2,2H3a1.93,1.93,0,0,1-1.41-.59A1.93,1.93,0,0,1,1,12.66v-7a1.93,1.93,0,0,1,.59-1.41A1.93,1.93,0,0,1,3,3.66H4.75l.4-1.06a1.45,1.45,0,0,1,.54-.66,1.39,1.39,0,0,1,.81-.28h4a1.39,1.39,0,0,1,.81.28,1.45,1.45,0,0,1,.54.66l.4,1.06Zm-8,8a3.37,3.37,0,0,0,2.47,1A3.51,3.51,0,0,0,12,9.16a3.51,3.51,0,0,0-3.5-3.5A3.51,3.51,0,0,0,5,9.16,3.37,3.37,0,0,0,6,11.63Zm.88-4.06a2.24,2.24,0,0,1,3.18,0,2.24,2.24,0,0,1,0,3.18,2.24,2.24,0,0,1-3.18,0,2.24,2.24,0,0,1,0-3.18Z" transform="translate(-1 -1.66)"/></svg>