<svg id="Layer_1" data-name="Layer 1" xmlns="http://www.w3.org/2000/svg" viewBox="0 0 9.71 14.57"><defs><style>.cls-1{fill:#fff04d;}</style></defs><title>title_icons_annotation_opened</title><path class="cls-1" d="M13.36,6.26A4,4,0,0,1,13,8L9.59,15.3a1.15,1.15,0,0,1-.45.49,1.22,1.22,0,0,1-1.28,0,1.09,1.09,0,0,1-.44-.49L4,8a4,4,0,0,1-.31-1.7A4.68,4.68,0,0,1,5.07,2.83,4.68,4.68,0,0,1,8.5,1.4a4.68,4.68,0,0,1,3.43,1.42A4.68,4.68,0,0,1,13.36,6.26ZM10.22,8a2.34,2.34,0,0,0,.71-1.72A2.43,2.43,0,0,0,8.5,3.83,2.43,2.43,0,0,0,6.07,6.26,2.43,2.43,0,0,0,8.5,8.69,2.34,2.34,0,0,0,10.22,8Z" transform="translate(-3.64 -1.4)"/></svg>