<?xml version="1.0" encoding="utf-8"?>
<!-- Generator: Adobe Illustrator 21.0.2, SVG Export Plug-In . SVG Version: 6.00 Build 0)  -->
<svg version="1.1" id="Layer_1" xmlns="http://www.w3.org/2000/svg" xmlns:xlink="http://www.w3.org/1999/xlink" x="0px" y="0px"
	 viewBox="0 0 30 30" style="enable-background:new 0 0 30 30;" xml:space="preserve">
<style type="text/css">
	.st0{fill:#CCCCCC;}
</style>
<title>ui_btns_fullscreen</title>
<path class="st0" d="M3,0h24c1.7,0,3,1.3,3,3v24c0,1.7-1.3,3-3,3H3c-1.7,0-3-1.3-3-3V3C0,1.3,1.3,0,3,0z"/>
<path d="M22,10.4v9.5c0,0.7-0.6,1.2-1.2,1.2H9.2c-0.7,0-1.2-0.6-1.2-1.2v-9.5c0-0.7,0.6-1.2,1.2-1.2h11.5C21.4,9.2,22,9.7,22,10.4z
	 M10,19.2h10v-6H10V19.2z"/>
</svg>
