<?xml version="1.0" encoding="utf-8"?>
<!-- Generator: Adobe Illustrator 21.0.2, SVG Export Plug-In . SVG Version: 6.00 Build 0)  -->
<svg version="1.1" id="Layer_1" xmlns="http://www.w3.org/2000/svg" xmlns:xlink="http://www.w3.org/1999/xlink" x="0px" y="0px"
	 viewBox="0 0 30 30" style="enable-background:new 0 0 30 30;" xml:space="preserve">
<style type="text/css">
	.st0{fill:#CCCCCC;}
</style>
<title>ui_btns_trash</title>
<path class="st0" d="M3,0h24c1.7,0,3,1.3,3,3v24c0,1.7-1.3,3-3,3H3c-1.7,0-3-1.3-3-3V3C0,1.3,1.3,0,3,0z"/>
<path d="M20.5,11.4v0.5c0,0.1-0.1,0.2-0.2,0.2c0,0,0,0,0,0h-0.8v7.4c0,0.4-0.1,0.8-0.4,1.1c-0.2,0.3-0.5,0.5-0.9,0.5h-6.5
	c-0.3,0-0.7-0.2-0.9-0.5c-0.3-0.3-0.4-0.7-0.4-1.1v-7.4H9.8c-0.1,0-0.2-0.1-0.2-0.2c0,0,0,0,0,0v-0.5c0-0.1,0.1-0.2,0.2-0.2
	c0,0,0,0,0,0h2.4l0.6-1.3c0.1-0.2,0.2-0.4,0.4-0.5c0.2-0.1,0.4-0.2,0.6-0.2h2.5c0.2,0,0.4,0.1,0.6,0.2c0.2,0.1,0.3,0.3,0.4,0.5
	l0.5,1.3h2.4C20.4,11.2,20.5,11.3,20.5,11.4C20.5,11.4,20.5,11.4,20.5,11.4z M18.5,19.6v-7.4h-7v7.4c0,0.1,0,0.2,0.1,0.3
	c0,0.1,0.1,0.1,0.1,0.2c0,0,0.1,0.1,0.1,0.1h6.5c0,0,0,0,0.1-0.1c0-0.1,0.1-0.1,0.1-0.2C18.5,19.8,18.5,19.7,18.5,19.6L18.5,19.6z
	 M13.5,13.9v4.5c0,0.1-0.1,0.2-0.2,0.2c0,0,0,0,0,0h-0.5c-0.1,0-0.2-0.1-0.2-0.2c0,0,0,0,0,0v-4.5c0-0.1,0.1-0.2,0.2-0.2
	c0,0,0,0,0,0h0.5C13.4,13.7,13.5,13.8,13.5,13.9C13.5,13.9,13.5,13.9,13.5,13.9z M13.2,11.2h3.5l-0.4-0.9c0,0-0.1-0.1-0.1-0.1h-2.5
	c-0.1,0-0.1,0-0.1,0.1L13.2,11.2z M15.5,13.9v4.5c0,0.1-0.1,0.2-0.2,0.2c0,0,0,0,0,0h-0.5c-0.1,0-0.2-0.1-0.2-0.2c0,0,0,0,0,0v-4.5
	c0-0.1,0.1-0.2,0.2-0.2c0,0,0,0,0,0h0.5C15.4,13.7,15.5,13.8,15.5,13.9C15.5,13.9,15.5,13.9,15.5,13.9z M17.5,13.9v4.5
	c0,0.1-0.1,0.2-0.2,0.2c0,0,0,0,0,0h-0.5c-0.1,0-0.2-0.1-0.2-0.2c0,0,0,0,0,0v-4.5c0-0.1,0.1-0.2,0.2-0.2c0,0,0,0,0,0h0.5
	C17.4,13.7,17.5,13.8,17.5,13.9C17.5,13.9,17.5,13.9,17.5,13.9z"/>
</svg>
