<?xml version="1.0" encoding="utf-8"?>
<!-- Generator: Adobe Illustrator 16.0.4, SVG Export Plug-In . SVG Version: 6.00 Build 0)  -->
<!DOCTYPE svg PUBLIC "-//W3C//DTD SVG 1.0//EN" "http://www.w3.org/TR/2001/REC-SVG-20010904/DTD/svg10.dtd">
<svg version="1.0" id="Layer_1" xmlns="http://www.w3.org/2000/svg" xmlns:xlink="http://www.w3.org/1999/xlink" x="0px" y="0px"
	 width="680.311px" height="941.101px" viewBox="0 0 680.311 941.101" enable-background="new 0 0 680.311 941.101"
	 xml:space="preserve">
<title>ui_btns_copyuri</title>
<path fill="#CCCCCC" d="M68.031,130.396h544.248c38.551,0,68.031,29.48,68.031,68.031v544.247c0,38.551-29.48,68.031-68.031,68.031
	H68.031C29.48,810.705,0,781.224,0,742.673V198.426C0,159.875,29.48,130.396,68.031,130.396z"/>
<path d="M620.753,495.779c0,20.005-6.667,40.011-23.341,53.35l-36.676,36.677c-30.01,30.011-76.69,30.011-106.7,0l-53.35-53.351
	c-13.337-13.336-23.341-33.342-20.006-53.35c0-20.005,6.669-40.013,23.341-53.35l-23.341-23.34
	c-30.009,30.008-76.69,30.008-106.698,0l0,0l-53.35-53.35c-13.338-13.336-23.341-33.344-23.341-53.35s6.668-40.012,23.341-53.35
	l36.676-36.677c30.009-30.009,76.69-30.009,106.7,0l53.349,53.35c13.338,13.337,23.341,33.344,20.007,53.35
	c0,20.006-6.669,40.011-23.341,53.35l23.341,23.341c30.009-30.009,76.69-30.009,106.699,0l0,0l53.349,53.351
	C610.749,455.766,620.753,475.771,620.753,495.779z M387.348,309.053c0-6.668-3.335-13.338-6.668-16.671l-53.35-53.35
	c-3.334-3.335-10.004-6.668-20.005-6.668c-6.668,0-13.337,3.335-16.672,6.668l-36.678,36.678
	c-3.334,3.335-6.668,10.003-6.668,16.671c0,6.669,3.336,13.338,6.668,16.671l56.684,53.352c3.336,3.334,10.004,6.668,16.672,6.668
	c6.668,0,13.337-3.335,20.007-6.668l-3.337-3.335l-6.667-6.67l-3.336-3.334c0-3.334-3.334-3.334-3.334-6.668
	c0-3.333,0-3.334,0-6.668c0-13.337,10.003-26.675,26.675-26.675h6.668c3.336,0,3.336,3.335,6.67,3.335l3.335,3.335l6.668,6.668
	l3.334,3.335C384.013,325.724,387.348,319.056,387.348,309.053z M570.738,495.779c0-6.671-3.334-13.34-6.668-16.674l-56.685-56.684
	c-3.334-3.334-10.004-6.668-16.673-6.668c-6.668,0-13.336,3.334-20.006,6.668l3.335,3.334l6.67,6.668l3.335,3.334
	c0,3.334,3.335,3.334,3.335,6.671c0,3.334,0,3.334,0,6.668c0,13.337-10.004,26.674-26.676,26.674c-3.335,0-3.335,0-6.669,0
	c-3.333,0-3.334-3.334-6.67-3.334l-3.334-3.334l-3.336-6.668l-3.334-3.334c-6.668,3.334-10.002,13.337-10.002,20.005
	c0,6.666,3.334,13.334,6.668,16.674l53.349,53.35c3.335,3.335,10.004,6.666,16.674,6.666c6.667,0,13.335-3.334,16.671-6.666
	L557.4,512.45C567.405,505.782,570.738,502.448,570.738,495.779L570.738,495.779z"/>
<g>
	<path fill="#040000" d="M115.164,549.335c0,3.036-1.222,5.641-3.663,7.821c-2.445,2.177-5.182,3.267-8.218,3.267
		c-4.357,0-7.593-2.109-9.703-6.337c-1.456-2.901-2.841-5.016-4.16-6.337c-12.148,1.98-21.654,8.252-28.516,18.813
		c-6.073,9.503-9.108,20.729-9.108,33.664c0,7.129,1.188,13.798,3.564,20.002c3.168,8.584,7.724,12.608,13.664,12.079
		c8.581-0.791,16.238-6.663,22.972-17.624c2.242-3.695,5.346-5.546,9.307-5.546c3.168,0,5.941,1.087,8.317,3.268
		c2.377,2.18,3.565,4.85,3.565,8.021c0,2.115-0.594,4.16-1.783,6.14c-11.751,19.141-25.546,28.711-41.387,28.711
		c-13.466,0-23.961-6.399-31.487-19.208c-6.207-10.56-9.375-23.103-9.505-37.624c-0.265-24.821,7.987-44.226,24.754-58.221
		c12.672-10.562,24.555-15.842,35.645-15.842c9.769,0,17.888,6.469,24.357,19.405C114.699,545.64,115.164,547.488,115.164,549.335z"
		/>
	<path fill="#040000" d="M209.624,598.248c0,13.862-3.5,26.604-10.497,38.221c-8.054,13.465-18.615,20.199-31.685,20.199
		c-2.377,0-4.82-0.268-7.328-0.794c-9.504-1.98-16.701-7.193-21.586-15.646c-4.355-7.391-6.534-16.301-6.534-26.732
		c0-13.862,3.498-26.536,10.497-38.021c8.185-13.465,18.745-20.199,31.685-20.199c2.377,0,4.817,0.265,7.328,0.792
		c9.504,1.979,16.698,7.198,21.584,15.645C207.445,578.974,209.624,587.821,209.624,598.248z M187.049,599.239
		c0-3.963-0.792-8.053-2.377-12.279c-1.981-5.148-4.623-8.053-7.921-8.714c-4.886-1.054-9.574,1.718-14.061,8.316
		c-3.564,5.151-5.941,10.497-7.129,16.042c-0.662,3.169-0.99,6.47-0.99,9.902c0,3.96,0.793,8.052,2.377,12.276
		c1.981,5.148,4.62,8.055,7.921,8.714c3.3,0.662,6.931-0.791,10.893-4.356c5.016-4.486,8.448-11.153,10.298-20.002
		C186.717,605.97,187.049,602.671,187.049,599.239z"/>
	<path fill="#040000" d="M307.053,595.079c0,14.921-5.678,26.733-17.029,35.447c-10.035,7.66-22.907,12.149-38.617,13.465v39.215
		c0,3.296-1.089,6.005-3.267,8.114c-2.178,2.115-4.918,3.172-8.218,3.172c-3.302,0-6.01-1.057-8.12-3.172
		c-2.113-2.112-3.168-4.818-3.168-8.114V563.594c0-3.298,1.022-6.038,3.07-8.218c2.046-2.18,4.719-3.268,8.02-3.268
		c5.942-0.132,9.636,2.51,11.091,7.92c7.129-5.675,14.324-8.514,21.586-8.514c10.297,0,18.812,4.821,25.546,14.456
		C304.016,574.683,307.053,584.385,307.053,595.079z M284.479,590.525c-0.135-3.695-1.321-7.061-3.565-10.1
		c-2.246-3.036-5.15-4.555-8.714-4.555c-6.603,0-13.534,5.344-20.793,16.04v29.107C274.113,618.779,285.138,608.614,284.479,590.525
		z"/>
	<path fill="#040000" d="M407.653,563.195c0,0.396-0.133,1.259-0.396,2.577c-3.83,19.01-10.694,41.189-20.595,66.536
		c-7.658,19.408-15.514,37.033-23.564,52.875c-2.114,4.222-5.348,6.337-9.703,6.337c-3.17,0-5.942-1.059-8.319-3.169
		c-2.374-2.114-3.564-4.754-3.564-7.922c0-1.851,0.461-3.698,1.386-5.545c6.339-12.277,12.606-26.072,18.813-41.388
		c-11.089-8.184-19.011-15.512-23.763-21.981c-5.812-7.655-10.299-17.952-13.468-30.893c-0.265-1.057-0.396-2.109-0.396-3.169
		c0-3.298,1.153-5.971,3.465-8.021c2.309-2.045,5.115-3.07,8.416-3.07c5.674,0,9.239,2.906,10.693,8.714
		c2.111,8.847,4.753,15.679,7.921,20.498c3.169,4.821,8.383,10.068,15.646,15.743c7.127-19.275,12.079-35.906,14.852-49.903
		c1.188-6.204,4.817-9.308,10.892-9.308c3.169,0,5.905,1.059,8.219,3.168C406.495,557.387,407.653,560.027,407.653,563.195z"/>
	<path fill="#040000" d="M414.45,773.861c-8.054,0-15.315-3.039-21.783-9.108c-5.678-5.278-10.035-12.08-13.07-20.396
		c-2.51-6.996-3.763-15.248-3.763-24.756c0-11.351,1.715-23.63,5.148-36.833c2.773-10.823,6.205-20.199,10.299-28.118
		c2.109-4.225,5.345-6.337,9.702-6.337c3.432,0,6.27,1.084,8.516,3.267c2.241,2.178,3.366,4.848,3.366,8.016
		c0,1.854-0.466,3.633-1.386,5.349c-8.584,16.9-12.872,33.799-12.872,50.694c0,7.525,1.055,14.654,3.169,21.388
		c2.903,9.506,7.328,14.26,13.268,14.26c7.789,0,13.927-7.726,18.416-23.171c2.64-9.502,4.356-20.129,5.15-31.884
		c0.791-11.747,0.989-21.117,0.594-28.119c-0.135-3.43,0.891-6.27,3.068-8.514c2.179-2.244,5.05-3.365,8.614-3.365
		c9.108,0,13.531,3.5,13.268,10.493c-0.924,21.391-1.782,35.45-2.574,42.182c-2.375,19.143-6.604,33.929-12.673,44.36
		C440.854,767,429.367,773.861,414.45,773.861z"/>
	<path fill="#040000" d="M569.703,757.03c0,3.038-1.19,5.776-3.565,8.218c-2.376,2.444-5.083,3.664-8.119,3.664
		c-2.772,0-5.347-1.056-7.722-3.168l-38.616-35.25c-2.642,0.794-5.281,1.521-7.921,2.18v28.516c0,3.96-1.455,7.427-4.356,10.396
		c-2.906,2.969-6.338,4.458-10.297,4.458c-5.416,0-8.12-2.971-8.12-8.911v-32.278c-3.168-0.13-5.776-1.253-7.822-3.368
		c-2.047-2.109-3.069-4.751-3.069-7.92c0-7.261,3.629-11.023,10.891-11.288v-21.981c0-3.96,1.417-7.427,4.259-10.396
		c2.837-2.971,6.236-4.458,10.198-4.458c5.546,0,8.317,2.972,8.317,8.914v24.753c14.785-4.225,25.874-10.956,33.271-20.199
		c3.033-3.827,4.554-7.328,4.554-10.494c0-5.41-3.499-9.505-10.495-12.276c-5.282-2.11-11.09-3.169-17.425-3.169
		c-9.243,0-16.571,1.913-21.983,5.74c-2.245,1.583-4.489,2.377-6.731,2.377c-3.168,0-5.843-1.22-8.021-3.664
		c-2.179-2.441-3.268-5.249-3.268-8.418c0-3.562,1.649-6.534,4.951-8.911c9.769-6.86,20.992-10.297,33.664-10.297
		c12.542,0,24.027,3.236,34.459,9.703c11.881,7.525,17.823,17.232,17.823,29.112c0,8.316-3.239,16.504-9.705,24.554
		c-5.282,6.472-12.08,12.214-20.396,17.23l31.288,28.318C568.382,751.087,569.703,753.861,569.703,757.03z"/>
	<path fill="#040000" d="M651.293,757.03c0,8.449-9.772,14.851-29.31,19.208c-9.504,2.109-18.288,3.168-26.339,3.168
		c-3.3,0-6.04-1.09-8.219-3.267c-2.178-2.178-3.267-4.921-3.267-8.219s1.089-6.041,3.267-8.218c2.179-2.178,4.918-3.268,8.219-3.268
		h8.119v-78.024l-3.366,0.791c-1.058,0.268-2.179,0.397-3.366,0.397c-3.168,0-5.777-1.155-7.822-3.465
		c-2.049-2.307-3.07-5.049-3.07-8.218c0-5.675,2.838-9.24,8.516-10.693l38.814-10.1c1.055-0.265,2.109-0.397,3.168-0.397
		c3.297,0,5.973,1.256,8.021,3.763c2.045,2.51,3.069,5.416,3.069,8.714c0,5.811-2.841,9.309-8.516,10.494l-12.673,2.773v79.211
		c2.507-0.791,4.09-1.583,4.752-2.377c2.377-2.639,5.081-3.96,8.119-3.96c3.035,0,5.774,1.188,8.219,3.565
		C650.072,751.287,651.293,753.994,651.293,757.03z"/>
</g>
</svg>
