<?xml version="1.0" encoding="utf-8"?>
<!-- Generator: Adobe Illustrator 16.0.4, SVG Export Plug-In . SVG Version: 6.00 Build 0)  -->
<!DOCTYPE svg PUBLIC "-//W3C//DTD SVG 1.0//EN" "http://www.w3.org/TR/2001/REC-SVG-20010904/DTD/svg10.dtd">
<svg version="1.0" id="Layer_1" xmlns="http://www.w3.org/2000/svg" xmlns:xlink="http://www.w3.org/1999/xlink" x="0px" y="0px"
	 width="680.311px" height="941.101px" viewBox="0 0 680.311 941.101" enable-background="new 0 0 680.311 941.101"
	 xml:space="preserve">
<title>ui_btns_annotation_active</title>
<path fill="#FB3A7D" d="M340.155,130.396L340.155,130.396c187.862,0,340.155,152.292,340.155,340.154l0,0
	c0,187.862-152.293,340.155-340.155,340.155l0,0C152.293,810.705,0,658.412,0,470.55l0,0C0,282.688,152.293,130.396,340.155,130.396
	z"/>
<path fill="#FFFFFF" d="M430.863,328.824c0.376,10.887-1.637,21.723-5.896,31.748l-64.402,136.062
	c-1.868,3.824-4.776,7.047-8.391,9.297c-7.298,4.502-16.515,4.502-23.812,0c-3.618-2.18-6.47-5.428-8.164-9.297L255.57,360.572
	c-4.26-10.025-6.271-20.861-5.896-31.748c0-50.097,40.611-90.708,90.708-90.708s90.708,40.611,90.708,90.708H430.863z
	 M372.13,360.799c17.656-17.765,17.57-46.481-0.191-64.14c-17.765-17.659-46.48-17.573-64.141,0.191
	c-17.658,17.765-17.573,46.481,0.189,64.14c8.544,8.494,20.117,13.24,32.165,13.188C352.198,374.308,363.766,369.469,372.13,360.799
	z"/>
<g>
	<path fill="#FFFFFF" stroke="#000000" stroke-miterlimit="10" d="M283.199,660.546c0,7.68-3.517,12.25-10.534,13.719
		c1.141,7.842,1.96,16.744,2.45,26.703c0.158,4.248-1.064,7.797-3.677,10.656c-2.611,2.855-6.044,4.287-10.289,4.287
		c-8.816,0-13.474-4.451-13.963-13.355c-0.487-8.895-1.47-18.166-2.938-27.805L205.053,675c-4.249,0-7.679-1.264-10.289-3.797
		c-2.614-2.529-3.919-5.918-3.919-10.166c0-4.08,1.347-7.43,4.042-10.045c2.695-2.609,6.082-3.92,10.167-3.92l33.316-0.488
		c-7.024-26.129-16.413-46.381-28.175-60.754c-5.879,10.617-11.514,29.395-16.9,56.344c-4.249,21.396-6.943,39.035-8.084,52.914
		c-0.655,8.658-5.229,12.984-13.719,12.984c-4.574,0-8.168-1.471-10.779-4.41c-2.614-2.939-3.759-6.613-3.43-11.023
		c1.795-21.393,5.06-42.783,9.799-64.184c6.692-29.887,14.534-51.199,23.518-63.938c-0.654-4.244,0.448-8.123,3.31-11.637
		c2.854-3.51,6.405-5.268,10.653-5.268c2.94,0,5.55,0.73,7.839,2.205c24.987,15.678,43.276,47.934,54.875,96.766h1.959
		c4.245,0,7.636,1.266,10.167,3.797C281.932,652.916,283.199,656.302,283.199,660.546z"/>
	<path fill="#FFFFFF" stroke="#000000" stroke-miterlimit="10" d="M403.234,698.029c0,3.596-1.309,6.492-3.92,8.695
		c-2.613,2.205-5.719,3.309-9.309,3.309c-5.064,0-11.107-4.164-18.129-12.494c-9.802,7.188-20.822,10.779-33.07,10.779
		c-14.209,0-25.072-5.061-32.582-15.188c-6.859-8.979-10.454-20.904-10.779-35.768c-0.487-17.799,4.613-32.293,15.312-43.482
		c10.692-11.184,24.862-16.781,42.503-16.781c4.244,0,8.328,0.41,12.248,1.227v-41.893c0-4.08,1.348-7.471,4.043-10.166
		c2.692-2.693,6.082-4.041,10.166-4.041c4.08,0,7.43,1.348,10.045,4.041c2.606,2.695,3.918,6.086,3.918,10.166v122.979
		C400.049,686.271,403.234,692.48,403.234,698.029z M365.508,663.488v-34.053c-1.638-0.648-3.187-1.715-4.654-3.184
		c-6.369-2.285-13.393-1.795-21.068,1.469c-5.229,2.289-9.309,6.166-12.248,11.639c-2.938,5.473-4.407,11.229-4.407,17.27
		c0,5.879,1.227,10.943,3.676,15.189c2.772,5.389,6.856,8.248,12.248,8.572c5.061,0.33,10.205-1.141,15.434-4.408
		c3.756-2.449,5.959-4.326,6.615-5.635C362.404,667.572,363.87,665.287,365.508,663.488z"/>
	<path fill="#FFFFFF" stroke="#000000" stroke-miterlimit="10" d="M525.721,698.029c0,3.596-1.312,6.492-3.92,8.695
		c-2.614,2.205-5.72,3.309-9.312,3.309c-5.062,0-11.104-4.164-18.128-12.494c-9.799,7.188-20.82,10.779-33.068,10.779
		c-14.209,0-25.071-5.061-32.582-15.188c-6.859-8.979-10.453-20.904-10.778-35.768c-0.49-17.799,4.612-32.293,15.311-43.482
		c10.694-11.184,24.865-16.781,42.503-16.781c4.245,0,8.329,0.41,12.249,1.227v-41.893c0-4.08,1.351-7.471,4.042-10.166
		c2.695-2.693,6.082-4.041,10.167-4.041c4.08,0,7.433,1.348,10.044,4.041c2.61,2.695,3.922,6.086,3.922,10.166v122.979
		C522.533,686.271,525.721,692.48,525.721,698.029z M487.992,663.488v-34.053c-1.635-0.648-3.185-1.715-4.651-3.184
		c-6.369-2.285-13.396-1.795-21.068,1.469c-5.229,2.289-9.309,6.166-12.248,11.639c-2.938,5.473-4.41,11.229-4.41,17.27
		c0,5.879,1.229,10.943,3.675,15.189c2.775,5.389,6.859,8.248,12.249,8.572c5.062,0.33,10.204-1.141,15.437-4.408
		c3.755-2.449,5.959-4.326,6.614-5.635C484.89,667.572,486.36,665.287,487.992,663.488z"/>
</g>
</svg>
