<?xml version="1.0" encoding="utf-8"?>
<!-- Generator: Adobe Illustrator 16.0.4, SVG Export Plug-In . SVG Version: 6.00 Build 0)  -->
<!DOCTYPE svg PUBLIC "-//W3C//DTD SVG 1.0//EN" "http://www.w3.org/TR/2001/REC-SVG-20010904/DTD/svg10.dtd">
<svg version="1.0" id="Layer_1" xmlns="http://www.w3.org/2000/svg" xmlns:xlink="http://www.w3.org/1999/xlink" x="0px" y="0px"
	 width="680.311px" height="941.101px" viewBox="0 0 680.311 941.101" enable-background="new 0 0 680.311 941.101"
	 xml:space="preserve">
<title>ui_btns_picture</title>
<path fill="#CCCCCC" d="M68.031,130.396h544.248c38.551,0,68.031,29.48,68.031,68.031v544.247c0,38.551-29.48,68.031-68.031,68.031
	H68.031C29.48,810.705,0,781.224,0,742.673V198.426C0,159.875,29.48,130.396,68.031,130.396z"/>
<g enable-background="new    ">
	<path d="M554.921,264.404v269.705c0,9.992-3.328,16.65-9.99,26.64c-6.658,9.991-16.646,9.991-26.635,9.991h-356.28
		c-9.99,0-16.651-3.332-26.639-9.991c-6.659-6.656-9.989-16.647-9.989-26.64V264.404c0-9.989,3.33-16.648,9.989-26.639
		c9.988-6.66,16.649-9.988,26.639-9.988h356.28c9.988,0,16.648,3.33,26.637,9.988C551.593,244.424,554.921,254.415,554.921,264.404z
		 M521.624,254.415H162.016c-3.331,0-3.331,0-6.659,3.331c0,0-3.331,3.329-3.331,6.66v269.707c0,3.333,0,3.333,3.331,6.662
		c0,0,3.33,3.329,6.659,3.329h356.28c3.33,0,3.33,0,6.66-3.329c0,0,3.328-3.329,3.328-6.662V264.404c0-3.33,0-3.33-3.328-6.66
		L521.624,254.415z M258.578,297.701c6.659,6.661,13.318,19.978,13.318,29.969c0,9.989-3.331,23.308-13.318,29.967
		c-9.99,6.658-19.979,13.317-29.967,13.317c-13.319,0-23.308-3.33-29.969-13.317c-6.659-9.99-13.316-19.979-13.316-29.967
		c0-9.989,3.33-23.308,13.316-29.969c9.99-6.659,19.979-13.319,29.969-13.319C238.598,284.382,248.589,287.712,258.578,297.701z
		 M498.318,414.24v99.892H185.323v-43.287l69.925-69.923l36.626,36.628l113.209-113.211L498.318,414.24z"/>
</g>
<g>
	<path fill="#040000" d="M243.007,749.252c-0.292,8.113-4.42,12.172-12.389,12.172c-3.769,0-6.812-1.233-9.127-3.693
		c-2.32-2.461-3.406-5.574-3.261-9.345c0.578-23.18-1.596-49.623-6.519-79.327l-26.732,44.989
		c-6.084,10.142-11.231,15.211-15.432,15.211c-3.623,0-8.259-3.981-13.91-11.953c-1.451-2.173-9.057-14.342-22.819-36.511
		l0.217,66.286c0,3.771-1.124,6.812-3.368,9.128c-2.248,2.321-5.254,3.48-9.021,3.48c-3.623,0-6.595-1.193-8.91-3.586
		c-2.318-2.392-3.479-5.396-3.479-9.022l-0.435-110.407c0-3.913,0.87-7.174,2.609-9.779c2.028-3.188,4.853-4.782,8.477-4.782
		c4.635,0,8.619,2.686,11.953,8.043l38.033,61.291c5.794-10.142,14.562-25.21,26.298-45.206
		c10.287-16.956,18.546-25.43,24.777-25.43c3.913,0,6.956,3.913,9.128,11.737c5.071,18.255,8.837,38.903,11.301,61.94
		C242.573,714.772,243.443,733.027,243.007,749.252z"/>
	<path fill="#040000" d="M357.759,747.948c0,3.478-1.306,6.521-3.913,9.131c-2.607,2.605-5.651,3.91-9.129,3.91
		c-3.91,0-7.029-1.666-9.346-4.998c-1.303-2.028-3.478-5.141-6.52-9.345c-7.97,8.692-17.68,13.038-29.123,13.038
		c-11.594,0-21.157-4.09-28.689-12.277c-7.535-8.186-11.3-18.15-11.3-29.884c0-16.519,6.011-31.624,18.038-45.317
		c12.025-13.692,26.225-20.539,42.599-20.539c4.348,0,7.825,0.51,10.432,1.523c8.549,0,12.749,4.204,12.607,12.605
		c-0.581,34.919,0,54.336,1.736,58.246c2.463,5.796,5.722,11.229,9.78,16.3C356.817,742.662,357.759,745.2,357.759,747.948z
		 M319.291,720.128c-0.147-1.879-0.364-10.432-0.652-25.646c-0.146-9.996-0.218-15.938-0.218-17.82
		c-8.693,0.869-16.555,5.688-23.581,14.451c-7.028,8.769-10.54,17.572-10.54,26.409c0,10.577,5.722,15.863,17.169,15.863
		c2.173,0,4.563-0.217,7.171-0.652c0.87-0.868,3.043-3.765,6.522-8.692C316.465,722.302,317.842,721,319.291,720.128z"/>
	<path fill="#040000" d="M469.035,741.212c0,3.335-1.305,6.34-3.912,9.02c-2.608,2.683-5.58,4.021-8.911,4.021
		c-3.043,0-5.867-1.159-8.476-3.478l-40.208-36.73v34.776c0,3.62-1.194,6.628-3.585,9.02c-2.392,2.39-5.4,3.586-9.021,3.586
		c-3.622,0-6.593-1.196-8.91-3.586c-2.319-2.392-3.477-5.396-3.477-9.02V622.765c0-3.62,1.157-6.593,3.477-8.911
		c2.317-2.315,5.288-3.478,8.91-3.478c3.62,0,6.63,1.162,9.021,3.478c2.391,2.318,3.585,5.291,3.585,8.911v57.595l0.652,0.652
		c6.955-4.782,17.095-14.781,30.427-29.992c2.608-2.899,5.65-4.349,9.129-4.349c3.478,0,6.521,1.27,9.129,3.805
		c2.607,2.534,3.912,5.471,3.912,8.8c0,2.902-1.162,5.653-3.478,8.26c-12.752,14.639-22.819,24.851-30.21,30.646l37.599,33.905
		C467.585,734.691,469.035,737.735,469.035,741.212z"/>
	<path fill="#040000" d="M572.488,673.186c0,6.231-1.667,12.462-5,18.69c-3.622,6.81-9.492,12.931-17.603,18.364
		c-8.117,5.434-16.302,8.66-24.56,9.672c-4.205,0.581-7.321,0.293-9.346-0.869c2.607,9.854,7.171,14.778,13.691,14.778
		c5.796,0,12.678-3.549,20.647-10.648c2.463-2.173,5.217-3.261,8.26-3.261c2.749,0,5.324,1.233,7.715,3.693
		c2.391,2.467,3.586,5.363,3.586,8.695c0,3.478-1.45,6.519-4.345,9.128c-11.738,10.432-23.185,15.649-34.341,15.649
		c-12.173,0-22.167-5.653-29.992-16.954c-6.956-10.139-10.432-21.588-10.432-34.338c0-11.446,2.896-21.878,8.693-31.3
		c4.635-7.678,11.373-14.268,20.212-19.776c8.837-5.505,17.604-8.259,26.298-8.259c7.967,0,14.378,2.467,19.233,7.391
		C570.06,658.769,572.488,665.217,572.488,673.186z M550.971,675.139c0-3.041-2.319-4.562-6.956-4.562
		c-2.465,0-4.565,0.362-6.303,1.085c-12.898,5.653-20.286,14.126-22.168,25.427c1.159,0.872,3.114,1.672,5.866,2.396
		c6.956-0.578,12.969-2.464,18.039-5.653c3.332-2.03,6.159-5.072,8.478-9.131C549.955,681.083,550.971,677.893,550.971,675.139z"/>
</g>
</svg>
