<?xml version="1.0" encoding="utf-8"?>
<!-- Generator: Adobe Illustrator 21.0.2, SVG Export Plug-In . SVG Version: 6.00 Build 0)  -->
<svg version="1.1" id="Layer_1" xmlns="http://www.w3.org/2000/svg" xmlns:xlink="http://www.w3.org/1999/xlink" x="0px" y="0px"
	 viewBox="0 0 30 30" style="enable-background:new 0 0 30 30;" xml:space="preserve">
<style type="text/css">
	.st0{fill:#CCCCCC;}
</style>
<title>ui_btns_input</title>
<path class="st0" d="M3,0h24c1.7,0,3,1.3,3,3v24c0,1.7-1.3,3-3,3H3c-1.7,0-3-1.3-3-3V3C0,1.3,1.3,0,3,0z"/>
<path d="M13.5,19.4c0,0,0,0.1,0,0.2c0,0.1,0,0.1,0,0.2c0,0.1,0,0.1,0,0.2c0,0.1,0,0.1-0.1,0.1c0,0-0.1,0.1-0.2,0h-2.5
	c-1.2,0-2.3-1-2.3-2.2c0,0,0,0,0,0v-5.5c0-1.2,1-2.2,2.2-2.2h2.5c0.1,0,0.2,0.1,0.2,0.2c0,0,0,0.1,0,0.2c0,0.1,0,0.1,0,0.2
	c0,0.1,0,0.1,0,0.2c0,0.1,0,0.1-0.1,0.1c0,0-0.1,0.1-0.2,0.1h-2.5c-0.7,0-1.3,0.5-1.3,1.2c0,0,0,0,0,0v5.5c0,0.7,0.6,1.2,1.2,1.2
	h2.5h0.1h0.1c0,0,0,0,0.1,0.1C13.5,19.3,13.5,19.3,13.5,19.4z M20.8,15.2c0,0.1-0.1,0.3-0.1,0.4l-4.2,4.2c-0.2,0.2-0.5,0.2-0.7,0
	c-0.1-0.1-0.1-0.2-0.1-0.3v-2.2H12c-0.3,0-0.5-0.2-0.5-0.5v-3c0-0.3,0.2-0.5,0.5-0.5h3.5v-2.2c0-0.3,0.2-0.5,0.5-0.5
	c0.1,0,0.3,0.1,0.3,0.1l4.2,4.2C20.7,14.9,20.8,15,20.8,15.2z"/>
</svg>
