<?xml version="1.0" encoding="utf-8"?>
<!-- Generator: Adobe Illustrator 21.0.2, SVG Export Plug-In . SVG Version: 6.00 Build 0)  -->
<svg version="1.1" id="Layer_1" xmlns="http://www.w3.org/2000/svg" xmlns:xlink="http://www.w3.org/1999/xlink" x="0px" y="0px"
	 viewBox="0 0 30 30" style="enable-background:new 0 0 30 30;" xml:space="preserve">
<style type="text/css">
	.st0{fill:#CCCCCC;}
	.st1{enable-background:new    ;}
</style>
<title>ui_btns_output</title>
<g>
	<path class="st0" d="M3,0h24c1.7,0,3,1.3,3,3v24c0,1.7-1.3,3-3,3H3c-1.7,0-3-1.3-3-3V3C0,1.3,1.3,0,3,0z"/>
	<g class="st1">
		<path d="M18.2,15.2c0,0.1,0,0.3-0.1,0.4l-4.2,4.2c-0.1,0.1-0.2,0.1-0.4,0.1c-0.1,0-0.3,0-0.4-0.1C13,19.7,13,19.5,13,19.4v-2.2
			H9.5c-0.1,0-0.3,0-0.4-0.1C9,16.9,9,16.8,9,16.7v-3c0-0.1,0-0.3,0.1-0.4c0.1-0.1,0.2-0.1,0.4-0.1H13V11c0-0.1,0-0.3,0.1-0.4
			c0.1-0.1,0.2-0.1,0.4-0.1c0.1,0,0.3,0,0.4,0.1l4.2,4.2C18.2,14.9,18.2,15,18.2,15.2z M21,12.4v5.5c0,0.6-0.2,1.1-0.7,1.6
			c-0.4,0.4-1,0.7-1.6,0.7h-2.5c-0.1,0-0.1,0-0.2-0.1c0,0-0.1-0.1-0.1-0.2c0,0,0-0.1,0-0.2s0-0.2,0-0.2c0-0.1,0-0.1,0-0.2
			s0-0.1,0.1-0.2c0.1-0.1,0.1-0.1,0.2-0.1h2.5c0.3,0,0.6-0.1,0.9-0.4c0.2-0.2,0.4-0.5,0.4-0.9v-5.5c0-0.3-0.1-0.6-0.4-0.9
			c-0.2-0.2-0.5-0.4-0.9-0.4h-2.2c0,0,0,0-0.1,0s-0.1,0-0.1,0s0,0-0.1,0h-0.1c0,0,0,0-0.1,0c0,0,0,0-0.1-0.1v-0.1c0,0,0-0.1,0-0.2
			c0-0.1,0-0.2,0-0.2c0-0.1,0-0.1,0-0.2c0-0.1,0-0.1,0.1-0.2s0.1-0.1,0.2-0.1h2.5c0.6,0,1.1,0.2,1.6,0.7C20.8,11.3,21,11.8,21,12.4z
			"/>
	</g>
</g>
</svg>
