<?xml version="1.0" encoding="utf-8"?>
<!-- Generator: Adobe Illustrator 21.0.2, SVG Export Plug-In . SVG Version: 6.00 Build 0)  -->
<svg version="1.1" id="Layer_1" xmlns="http://www.w3.org/2000/svg" xmlns:xlink="http://www.w3.org/1999/xlink" x="0px" y="0px"
	 viewBox="0 0 30 30" style="enable-background:new 0 0 30 30;" xml:space="preserve">
<style type="text/css">
	.st0{fill:#CCCCCC;}
</style>
<title>ui_btns_copyuri</title>
<path class="st0" d="M3,0h24c1.7,0,3,1.3,3,3v24c0,1.7-1.3,3-3,3H3c-1.7,0-3-1.3-3-3V3C0,1.3,1.3,0,3,0z"/>
<path d="M21.4,17.7c0,0.6-0.2,1.2-0.7,1.6l-1.1,1.1c-0.9,0.9-2.3,0.9-3.2,0l-1.6-1.6c-0.4-0.4-0.7-1-0.6-1.6c0-0.6,0.2-1.2,0.7-1.6
	l-0.7-0.7c-0.9,0.9-2.3,0.9-3.2,0c0,0,0,0,0,0l-1.6-1.6c-0.4-0.4-0.7-1-0.7-1.6c0-0.6,0.2-1.2,0.7-1.6l1.1-1.1
	c0.9-0.9,2.3-0.9,3.2,0l1.6,1.6c0.4,0.4,0.7,1,0.6,1.6c0,0.6-0.2,1.2-0.7,1.6l0.7,0.7c0.9-0.9,2.3-0.9,3.2,0c0,0,0,0,0,0l1.6,1.6
	C21.1,16.5,21.4,17.1,21.4,17.7z M14.4,12.1c0-0.2-0.1-0.4-0.2-0.5L12.6,10c-0.1-0.1-0.3-0.2-0.6-0.2c-0.2,0-0.4,0.1-0.5,0.2
	l-1.1,1.1c-0.1,0.1-0.2,0.3-0.2,0.5c0,0.2,0.1,0.4,0.2,0.5l1.7,1.6c0.1,0.1,0.3,0.2,0.5,0.2c0.2,0,0.4-0.1,0.6-0.2l-0.1-0.1
	l-0.2-0.2l-0.1-0.1c0-0.1-0.1-0.1-0.1-0.2c0-0.1,0-0.1,0-0.2c0-0.4,0.3-0.8,0.8-0.8h0.2c0.1,0,0.1,0.1,0.2,0.1l0.1,0.1l0.2,0.2
	l0.1,0.1C14.3,12.6,14.4,12.4,14.4,12.1z M19.9,17.7c0-0.2-0.1-0.4-0.2-0.5L18,15.5c-0.1-0.1-0.3-0.2-0.5-0.2
	c-0.2,0-0.4,0.1-0.6,0.2l0.1,0.1l0.2,0.2l0.1,0.1c0,0.1,0.1,0.1,0.1,0.2c0,0.1,0,0.1,0,0.2c0,0.4-0.3,0.8-0.8,0.8
	c-0.1,0-0.1,0-0.2,0c-0.1,0-0.1-0.1-0.2-0.1l-0.1-0.1L16,16.7l-0.1-0.1c-0.2,0.1-0.3,0.4-0.3,0.6c0,0.2,0.1,0.4,0.2,0.5l1.6,1.6
	c0.1,0.1,0.3,0.2,0.5,0.2c0.2,0,0.4-0.1,0.5-0.2l1.1-1.1C19.8,18,19.9,17.9,19.9,17.7L19.9,17.7z"/>
</svg>
