<?xml version="1.0" encoding="utf-8"?>
<!-- Generator: Adobe Illustrator 16.0.4, SVG Export Plug-In . SVG Version: 6.00 Build 0)  -->
<!DOCTYPE svg PUBLIC "-//W3C//DTD SVG 1.0//EN" "http://www.w3.org/TR/2001/REC-SVG-20010904/DTD/svg10.dtd">
<svg version="1.0" id="Layer_1" xmlns="http://www.w3.org/2000/svg" xmlns:xlink="http://www.w3.org/1999/xlink" x="0px" y="0px"
	 width="680.311px" height="941.101px" viewBox="0 0 680.311 941.101" enable-background="new 0 0 680.311 941.101"
	 xml:space="preserve">
<title>ui_btns_magnify</title>
<path fill="#CCCCCC" d="M68.031,130.396h544.248c38.551,0,68.031,29.48,68.031,68.031v544.247c0,38.551-29.48,68.031-68.031,68.031
	H68.031C29.48,810.705,0,781.224,0,742.673V198.426C0,159.875,29.48,130.396,68.031,130.396z"/>
<path d="M538.49,563.195c0,18.377-12.253,30.629-30.631,30.629c-9.191,0-15.317-3.062-21.441-9.188l-82.704-82.704
	c-27.568,21.443-61.261,30.632-94.955,30.632c-21.441,0-45.946-3.062-64.325-12.252c-39.819-15.314-73.514-49.009-88.83-88.829
	c-18.377-42.883-18.377-88.829,0-131.712c15.316-39.82,49.009-73.514,88.83-88.828c42.883-18.378,88.83-18.378,131.711,0
	c39.82,15.314,73.514,49.008,88.831,88.828c9.188,21.442,12.25,42.883,12.25,64.325c0,33.692-9.188,67.387-30.631,94.956
	l82.704,82.701C535.426,547.877,538.49,554.006,538.49,563.195z M385.337,440.67c42.884-42.883,42.884-110.269,0-150.089l0,0
	c-42.883-42.883-110.271-42.883-150.09,0l0,0c-42.884,42.883-42.884,110.269,0,150.089l0,0
	C275.066,480.491,342.454,480.491,385.337,440.67L385.337,440.67z M385.337,354.906v15.314c0,3.063-3.064,6.127-6.126,6.127h-55.136
	v52.072c0,3.063,0,3.063-3.063,6.125c0,0-3.063,3.063-6.125,3.063h-15.316c-3.064,0-3.064,0-6.126-3.063
	c0,0-3.063-3.062-3.063-6.125v-55.136h-55.134c-3.064,0-6.127-3.063-6.127-6.125v-15.316c0-3.063,3.064-6.126,6.127-6.126h55.134
	v-55.133c0-3.064,3.063-6.127,6.125-6.127h15.316c3.064,0,6.126,3.063,6.126,6.127v55.133h55.135
	C382.273,348.779,385.337,351.842,385.337,354.906L385.337,354.906z"/>
<g enable-background="new    ">
	<path d="M47.539,713.401l50.323-60.213h-43.24c-3.03,0-5.312-0.669-6.85-2.007c-1.536-1.336-2.305-3.095-2.305-5.279
		c0-2.271,0.768-4.11,2.305-5.512c1.538-1.404,3.821-2.107,6.85-2.107h55.738c7.217,0,10.826,3.366,10.826,10.093
		c0,3.208-0.602,5.769-1.806,7.685c-1.202,1.916-3.631,5.013-7.284,9.291l-47.048,56.003h51.86c3.076,0,5.368,0.635,6.884,1.904
		c1.513,1.271,2.272,3.041,2.272,5.313c0,2.362-0.759,4.233-2.272,5.614c-1.516,1.382-3.809,2.071-6.884,2.071H53.286
		c-4.322,0-7.575-0.97-9.758-2.906c-2.184-1.938-3.276-4.535-3.276-7.789c0-1.113,0.178-2.137,0.534-3.075
		c0.357-0.935,0.836-1.813,1.437-2.64c0.601-0.823,1.437-1.87,2.506-3.14C45.801,715.44,46.737,714.336,47.539,713.401z"/>
	<path d="M181.668,636.613c10.158,0,18.879,2.062,26.164,6.183s12.798,9.98,16.542,17.577c3.742,7.596,5.614,16.519,5.614,26.766
		c0,7.573-1.025,14.457-3.074,20.648c-2.049,6.194-5.124,11.564-9.223,16.107c-4.1,4.544-9.133,8.019-15.103,10.427
		c-5.971,2.405-12.811,3.606-20.517,3.606c-7.663,0-14.525-1.235-20.584-3.707c-6.06-2.474-11.117-5.96-15.171-10.461
		c-4.054-4.499-7.116-9.912-9.189-16.238s-3.107-13.167-3.107-20.518c0-7.529,1.08-14.437,3.242-20.717
		c2.16-6.283,5.291-11.628,9.389-16.041c4.1-4.41,9.089-7.784,14.97-10.124C167.5,637.783,174.182,636.613,181.668,636.613z
		 M209.869,687.003c0-7.173-1.158-13.387-3.474-18.646c-2.317-5.256-5.625-9.231-9.925-11.929c-4.3-2.694-9.234-4.043-14.803-4.043
		c-3.965,0-7.63,0.746-10.994,2.239c-3.364,1.492-6.26,3.666-8.688,6.515c-2.429,2.854-4.344,6.494-5.747,10.928
		c-1.403,4.433-2.106,9.412-2.106,14.937c0,5.571,0.702,10.604,2.106,15.104c1.404,4.501,3.385,8.23,5.948,11.193
		c2.562,2.966,5.503,5.18,8.822,6.649c3.318,1.473,6.96,2.208,10.926,2.208c5.079,0,9.746-1.271,14.001-3.81
		c4.254-2.54,7.641-6.461,10.159-11.763C208.611,701.283,209.869,694.756,209.869,687.003z"/>
	<path d="M290.066,636.613c10.157,0,18.879,2.062,26.164,6.183s12.798,9.98,16.541,17.577c3.743,7.596,5.613,16.519,5.613,26.766
		c0,7.573-1.025,14.457-3.073,20.648c-2.049,6.194-5.123,11.564-9.223,16.107c-4.1,4.544-9.134,8.019-15.104,10.427
		c-5.972,2.405-12.811,3.606-20.517,3.606c-7.663,0-14.526-1.235-20.584-3.707c-6.06-2.474-11.117-5.96-15.171-10.461
		c-4.054-4.499-7.116-9.912-9.189-16.238c-2.073-6.326-3.107-13.167-3.107-20.518c0-7.529,1.08-14.437,3.242-20.717
		c2.16-6.283,5.291-11.628,9.389-16.041c4.099-4.41,9.089-7.784,14.97-10.124C275.897,637.783,282.58,636.613,290.066,636.613z
		 M318.268,687.003c0-7.173-1.159-13.387-3.475-18.646c-2.317-5.256-5.625-9.231-9.925-11.929c-4.3-2.694-9.234-4.043-14.802-4.043
		c-3.965,0-7.63,0.746-10.994,2.239c-3.364,1.492-6.26,3.666-8.688,6.515c-2.429,2.854-4.345,6.494-5.747,10.928
		c-1.403,4.433-2.106,9.412-2.106,14.937c0,5.571,0.702,10.604,2.106,15.104c1.403,4.501,3.385,8.23,5.947,11.193
		c2.562,2.966,5.502,5.18,8.822,6.649c3.318,1.473,6.96,2.208,10.926,2.208c5.078,0,9.744-1.271,14.001-3.81
		c4.254-2.54,7.641-6.461,10.158-11.763C317.009,701.283,318.268,694.756,318.268,687.003z"/>
	<path d="M388.442,721.488l-15.706-62.42v67.634c0,3.741-0.835,6.549-2.506,8.422c-1.669,1.871-3.888,2.804-6.649,2.804
		c-2.674,0-4.856-0.924-6.549-2.771c-1.694-1.851-2.54-4.667-2.54-8.454v-77.525c0-4.275,1.113-7.159,3.341-8.654
		c2.229-1.49,5.235-2.239,9.023-2.239h6.146c3.699,0,6.384,0.335,8.054,1.004c1.672,0.669,2.907,1.87,3.711,3.609
		c0.801,1.736,1.714,4.566,2.739,8.487l14.235,53.664l14.235-53.664c1.024-3.921,1.938-6.751,2.74-8.487
		c0.803-1.739,2.038-2.94,3.711-3.609c1.67-0.669,4.353-1.004,8.051-1.004h6.148c3.787,0,6.794,0.749,9.023,2.239
		c2.227,1.493,3.342,4.379,3.342,8.654v77.525c0,3.741-0.837,6.549-2.507,8.422c-1.672,1.868-3.908,2.804-6.717,2.804
		c-2.629,0-4.79-0.936-6.481-2.804c-1.694-1.87-2.54-4.681-2.54-8.422v-67.634l-15.706,62.42c-1.025,4.056-1.86,7.03-2.505,8.923
		c-0.646,1.894-1.838,3.618-3.574,5.18c-1.739,1.559-4.145,2.337-7.219,2.337c-2.315,0-4.276-0.501-5.881-1.502
		c-1.604-1.004-2.852-2.282-3.742-3.844c-0.893-1.559-1.593-3.286-2.105-5.179C389.497,725.509,388.976,723.539,388.442,721.488z"/>
	<path d="M492.095,708.724h-21.119c-3.208,0-5.648-0.746-7.317-2.239c-1.671-1.492-2.507-3.42-2.507-5.782
		c0-2.405,0.812-4.353,2.44-5.846c1.626-1.493,4.088-2.239,7.385-2.239h21.119c3.297,0,5.757,0.746,7.385,2.239
		c1.626,1.493,2.438,3.44,2.438,5.846c0,2.362-0.801,4.29-2.405,5.782C497.912,707.978,495.436,708.724,492.095,708.724z"/>
	<path d="M515.753,725.833v-77.188c0-4.012,0.912-7.019,2.739-9.023c1.826-2.004,4.188-3.008,7.084-3.008
		c2.985,0,5.402,0.992,7.253,2.974c1.848,1.984,2.772,5.002,2.772,9.058v77.188c0,4.055-0.925,7.084-2.772,9.089
		c-1.851,2.005-4.268,3.006-7.253,3.006c-2.85,0-5.202-1.013-7.051-3.04C516.677,732.862,515.753,729.842,515.753,725.833z"/>
	<path d="M583.654,648.509l38.159,57.741v-58.275c0-3.787,0.812-6.627,2.439-8.522c1.626-1.894,3.82-2.84,6.584-2.84
		c2.849,0,5.101,0.946,6.749,2.84c1.647,1.896,2.473,4.735,2.473,8.522v77.054c0,8.6-3.566,12.898-10.693,12.898
		c-1.781,0-3.386-0.255-4.812-0.767c-1.426-0.515-2.763-1.327-4.009-2.439c-1.247-1.113-2.405-2.417-3.475-3.91
		c-1.069-1.492-2.14-3.017-3.208-4.578l-37.225-57.072v57.407c0,3.74-0.868,6.571-2.604,8.487c-1.737,1.914-3.967,2.872-6.684,2.872
		c-2.808,0-5.058-0.967-6.75-2.906c-1.694-1.938-2.539-4.756-2.539-8.453v-75.587c0-3.206,0.355-5.724,1.069-7.551
		c0.846-2.005,2.248-3.643,4.209-4.913c1.961-1.27,4.076-1.904,6.349-1.904c1.782,0,3.308,0.291,4.577,0.869
		c1.271,0.58,2.384,1.361,3.342,2.34c0.958,0.98,1.939,2.25,2.941,3.809C581.547,645.189,582.584,646.817,583.654,648.509z"/>
</g>
</svg>
