<?xml version="1.0" encoding="utf-8"?>
<!-- Generator: Adobe Illustrator 16.0.4, SVG Export Plug-In . SVG Version: 6.00 Build 0)  -->
<!DOCTYPE svg PUBLIC "-//W3C//DTD SVG 1.0//EN" "http://www.w3.org/TR/2001/REC-SVG-20010904/DTD/svg10.dtd">
<svg version="1.0" id="Layer_1" xmlns="http://www.w3.org/2000/svg" xmlns:xlink="http://www.w3.org/1999/xlink" x="0px" y="0px"
	 width="680.311px" height="941.101px" viewBox="0 0 680.311 941.101" enable-background="new 0 0 680.311 941.101"
	 xml:space="preserve">
<title>ui_btns_input</title>
<path fill="#CCCCCC" d="M67.031,129.396h544.248c38.551,0,68.031,29.48,68.031,68.031v544.247c0,38.551-29.48,68.031-68.031,68.031
	H67.031C28.48,809.705-1,780.224-1,741.673V197.426C-1,158.875,28.48,129.396,67.031,129.396z"/>
<path d="M303.813,592.293c0,0,0,3.212,0,6.425s0,3.213,0,6.426s0,3.213,0,6.426s0,3.213-3.214,3.213c0,0-3.213,3.213-6.425,0
	h-80.325c-38.555,0-73.897-32.131-73.897-70.685l0,0V367.385c0-38.555,32.13-70.684,70.686-70.684h80.322
	c3.216,0,6.427,3.213,6.427,6.425c0,0,0,3.213,0,6.427c0,3.213,0,3.213,0,6.425c0,3.212,0,3.213,0,6.426
	c0,3.213,0,3.213-3.213,3.213c0,0-3.215,3.213-6.427,3.213h-80.324c-22.491,0-41.766,16.064-41.766,38.555l0,0v176.714
	c0,22.489,19.275,38.554,38.555,38.554h80.324h3.213h3.213c0,0,0,0,3.215,3.213C303.813,589.081,303.813,589.081,303.813,592.293z
	 M540.656,459.55c2.14,2.396-2.5,6-4.5,9L400.203,605.144c-6.426,6.426-16.067,6.426-22.491,0c-3.214-3.213-3.214-6.426-3.214-9.639
	v-70.687H255.619c-9.64,0-16.065-6.426-16.065-16.063v-96.39c0-9.64,6.426-16.065,16.065-16.065h112.453v-70.684
	c0-9.638,6.426-16.063,16.063-16.063c3.215,0,9.642,3.213,9.642,3.213L528.721,447.71C533.656,451.55,534.406,452.55,540.656,459.55
	z"/>
<g>
	<path fill="#040000" d="M136.887,736.386c0,7.878-9.109,13.847-27.326,17.909c-8.862,1.967-17.051,2.953-24.558,2.953
		c-3.079,0-5.631-1.016-7.662-3.045c-2.031-2.03-3.047-4.588-3.047-7.663s1.016-5.633,3.047-7.662
		c2.031-2.03,4.583-3.047,7.662-3.047h7.57v-72.747l-3.139,0.737c-0.987,0.25-2.032,0.37-3.139,0.37
		c-2.954,0-5.385-1.077-7.292-3.229c-1.911-2.151-2.863-4.708-2.863-7.663c0-5.29,2.647-8.615,7.939-9.97l36.188-9.417
		c0.983-0.246,1.967-0.37,2.955-0.37c3.076,0,5.568,1.171,7.478,3.509c1.908,2.34,2.862,5.049,2.862,8.124
		c0,5.418-2.649,8.679-7.939,9.784l-11.818,2.586V731.4c2.337-0.738,3.814-1.476,4.431-2.217c2.217-2.46,4.737-3.692,7.571-3.692
		c2.83,0,5.383,1.108,7.662,3.325C135.748,731.032,136.887,733.555,136.887,736.386z"/>
	<path fill="#040000" d="M265.58,738.416c0,3.077-0.987,5.633-2.955,7.663c-1.971,2.034-4.555,3.046-7.754,3.046
		c-3.079,0-5.602-1.012-7.57-3.046c-1.971-2.03-2.955-4.583-2.955-7.663v-50.958c0-5.17-2.339-7.757-7.016-7.757
		c-3.571,0-6.771,2.71-9.601,8.125c-2.339,4.556-3.508,8.862-3.508,12.925v33.235c0,3.078-0.986,5.63-2.955,7.664
		c-1.97,2.03-4.554,3.047-7.754,3.047c-3.079,0-5.602-1.017-7.571-3.047c-1.971-2.034-2.954-4.584-2.954-7.664v-36.189
		c0-2.955-1.385-5.847-4.156-8.68c-2.769-2.828-5.631-4.06-8.585-3.691c-1.969,0.249-3.877,1.387-5.724,3.417
		c-1.846,2.031-2.771,4.035-2.771,6.002v44.31c0,3.08-0.986,5.632-2.954,7.664c-1.969,2.033-4.554,3.049-7.754,3.049
		c-3.079,0-5.604-1.016-7.57-3.049c-1.969-2.032-2.955-4.581-2.955-7.664v-66.837c0-3.073,0.984-5.6,2.955-7.568
		c1.967-1.97,4.491-2.957,7.57-2.957c1.229,0,4.492,2.096,9.786,6.279c4.307-2.708,7.814-4.062,10.523-4.062
		c8.371,0,16.064,3.814,23.081,11.446c7.261-10.585,16-15.879,26.218-15.879c7.876,0,14.092,2.77,18.648,8.309
		c4.183,5.173,6.278,11.944,6.278,20.311v50.221H265.58z"/>
	<path fill="#040000" d="M361.96,696.503c0,13.912-5.295,24.925-15.879,33.05c-9.356,7.143-21.358,11.328-36.005,12.555v36.563
		c0,3.072-1.013,5.598-3.045,7.564c-2.031,1.97-4.588,2.957-7.663,2.957c-3.078,0-5.604-0.985-7.571-2.957
		c-1.97-1.969-2.954-4.492-2.954-7.564V667.149c0-3.076,0.953-5.63,2.862-7.663c1.906-2.032,4.401-3.046,7.478-3.046
		c5.541-0.124,8.983,2.34,10.341,7.384c6.646-5.291,13.354-7.938,20.126-7.938c9.601,0,17.54,4.495,23.819,13.479
		C359.126,677.487,361.96,686.533,361.96,696.503z M340.911,692.257c-0.127-3.445-1.232-6.583-3.325-9.416
		c-2.094-2.831-4.802-4.246-8.124-4.246c-6.157,0-12.62,4.982-19.388,14.955v27.139C331.247,718.6,341.527,709.124,340.911,692.257z
		"/>
	<path fill="#040000" d="M452.802,699.458c0,12.925-3.266,24.805-9.787,35.637c-7.51,12.555-17.355,18.833-29.541,18.833
		c-2.215,0-4.494-0.249-6.832-0.74c-8.863-1.847-15.574-6.707-20.127-14.587c-4.061-6.891-6.092-15.199-6.092-24.926
		c0-12.924,3.26-24.741,9.785-35.449c7.631-12.555,17.477-18.833,29.541-18.833c2.217,0,4.492,0.247,6.834,0.737
		c8.859,1.847,15.568,6.712,20.125,14.587C450.771,681.489,452.802,689.737,452.802,699.458z M431.753,700.382
		c0-3.694-0.74-7.508-2.217-11.449c-1.846-4.8-4.311-7.507-7.385-8.124c-4.557-0.982-8.926,1.602-13.109,7.754
		c-3.324,4.803-5.539,9.787-6.648,14.957c-0.615,2.955-0.922,6.032-0.922,9.233c0,3.691,0.74,7.507,2.217,11.446
		c1.846,4.8,4.307,7.51,7.385,8.124c3.074,0.617,6.463-0.738,10.154-4.062c4.676-4.185,7.875-10.399,9.602-18.649
		C431.443,706.659,431.753,703.583,431.753,700.382z"/>
	<path fill="#040000" d="M533.669,678.779c0,2.833-1.014,5.294-3.047,7.384c-2.031,2.096-4.463,3.141-7.293,3.141
		c-4.309,0-7.449-2.46-9.418-7.387c-6.156,0.617-10.77,2.833-13.848,6.646c-1.232,2.216-2.4,4.433-3.508,6.649v48.374
		c0,3.077-1.014,5.599-3.047,7.57c-2.031,1.967-4.586,2.954-7.662,2.954c-3.078,0-5.602-0.987-7.57-2.954
		c-1.969-1.972-2.955-4.493-2.955-7.57v-57.054c-4.061-1.723-6.092-5.475-6.092-11.263c0-6.522,2.707-9.785,8.123-9.785
		c2.586,0,7.201,1.845,13.85,5.539c8.369-6.769,15.756-10.153,22.156-10.153c6.029,0,11.508,2.894,16.432,8.678
		C532.376,672.625,533.669,675.704,533.669,678.779z"/>
	<path fill="#040000" d="M604.017,677.67c0,4.68-2.34,7.879-7.016,9.602l-14.588,5.539v53.729c0,3.075-1.014,5.633-3.045,7.665
		c-2.033,2.029-4.588,3.045-7.664,3.045s-5.602-1.016-7.568-3.045c-1.971-2.032-2.955-4.588-2.955-7.665v-45.602l-2.955,1.105
		c-1.725,0.619-3.139,0.925-4.246,0.925c-2.955,0-5.389-1.108-7.293-3.325c-1.912-2.214-2.863-4.8-2.863-7.757
		c0-4.674,2.275-7.872,6.832-9.6l10.523-4.061v-30.281c0-3.692,1.322-6.923,3.971-9.692c2.646-2.771,5.814-4.154,9.508-4.154
		c5.172,0,7.756,2.768,7.756,8.309v27.693l7.016-2.769c1.229-0.491,2.646-0.74,4.248-0.74c2.953,0,5.414,1.11,7.385,3.326
		C603.029,672.132,604.017,674.716,604.017,677.67z"/>
</g>
<g>
	<path fill="#040000" d="M323.466,249.309c0,1.866-0.73,3.547-2.188,5.046c-1.461,1.5-3.122,2.25-4.986,2.25
		c-1.702,0-3.283-0.648-4.741-1.945l-23.711-21.644c-1.623,0.487-3.244,0.934-4.864,1.338v17.508c0,2.433-0.892,4.56-2.673,6.383
		c-1.784,1.823-3.891,2.736-6.323,2.736c-3.324,0-4.984-1.823-4.984-5.471v-19.82c-1.945-0.08-3.547-0.769-4.803-2.066
		c-1.258-1.296-1.885-2.919-1.885-4.864c0-4.456,2.229-6.767,6.688-6.931v-13.496c0-2.431,0.871-4.56,2.614-6.383
		c1.742-1.823,3.83-2.735,6.263-2.735c3.403,0,5.107,1.823,5.107,5.472v15.198c9.077-2.593,15.885-6.728,20.426-12.402
		c1.865-2.35,2.797-4.499,2.797-6.444c0-3.322-2.15-5.836-6.445-7.537c-3.244-1.296-6.81-1.945-10.7-1.945
		c-5.673,0-10.173,1.176-13.495,3.525c-1.379,0.973-2.757,1.46-4.134,1.46c-1.945,0-3.587-0.749-4.924-2.249
		c-1.338-1.498-2.007-3.223-2.007-5.168c0-2.188,1.013-4.013,3.041-5.471c5.997-4.214,12.887-6.324,20.669-6.324
		c7.701,0,14.752,1.988,21.157,5.958c7.295,4.621,10.942,10.577,10.942,17.874c0,5.106-1.987,10.134-5.957,15.078
		c-3.243,3.973-7.417,7.498-12.524,10.578l19.212,17.387C322.654,245.66,323.466,247.363,323.466,249.309z"/>
	<path fill="#040000" d="M380.976,211.251c0,3.486-0.932,6.973-2.796,10.457c-2.026,3.811-5.31,7.235-9.849,10.274
		c-4.541,3.04-9.118,4.844-13.739,5.41c-2.353,0.324-4.095,0.164-5.229-0.487c1.459,5.513,4.013,8.269,7.659,8.269
		c3.242,0,7.093-1.985,11.553-5.957c1.375-1.217,2.916-1.823,4.618-1.823c1.539,0,2.979,0.689,4.316,2.067
		c1.338,1.379,2.006,3,2.006,4.864c0,1.945-0.811,3.647-2.431,5.107c-6.564,5.836-12.971,8.754-19.211,8.754
		c-6.81,0-12.402-3.162-16.779-9.484c-3.891-5.673-5.836-12.077-5.836-19.211c0-6.402,1.621-12.238,4.864-17.509
		c2.593-4.295,6.361-7.982,11.309-11.064c4.941-3.08,9.847-4.621,14.711-4.621c4.457,0,8.044,1.38,10.761,4.135
		C379.618,203.185,380.976,206.794,380.976,211.251z M368.939,212.346c0-1.701-1.298-2.553-3.891-2.553
		c-1.38,0-2.555,0.204-3.526,0.608c-7.216,3.162-11.35,7.903-12.402,14.226c0.648,0.487,1.741,0.933,3.283,1.337
		c3.891-0.323,7.253-1.377,10.093-3.162c1.863-1.134,3.444-2.836,4.742-5.107C368.371,215.669,368.939,213.887,368.939,212.346z"/>
	<path fill="#040000" d="M439.944,223.045c0,9.161-3.486,16.414-10.456,21.764c-6.16,4.702-14.065,7.459-23.709,8.268v24.075
		c0,2.024-0.67,3.688-2.006,4.986c-1.338,1.295-3.021,1.945-5.048,1.945c-2.026,0-3.688-0.65-4.984-1.945
		c-1.298-1.297-1.945-2.96-1.945-4.986v-73.439c0-2.025,0.626-3.709,1.885-5.046c1.256-1.337,2.896-2.006,4.923-2.006
		c3.648-0.08,5.917,1.54,6.81,4.863c4.376-3.484,8.795-5.229,13.252-5.229c6.322,0,11.551,2.96,15.685,8.876
		C438.078,210.521,439.944,216.479,439.944,223.045z M426.083,220.248c-0.082-2.269-0.812-4.336-2.188-6.201
		c-1.379-1.864-3.162-2.796-5.351-2.796c-4.055,0-8.31,3.283-12.767,9.849v17.874C419.719,237.596,426.488,231.354,426.083,220.248z
		"/>
	<path fill="#040000" d="M478.488,257.698c0,1.782-0.607,3.262-1.822,4.438c-1.217,1.173-2.718,1.763-4.498,1.763
		c-1.136,0-2.23-0.243-3.283-0.729c-4.377-1.946-6.809-3.083-7.296-3.405c-3.162-1.946-4.742-4.134-4.742-6.565l0.122-69.914
		c0-2.025,0.648-3.688,1.945-4.986c1.296-1.295,2.959-1.945,4.986-1.945c2.023,0,3.708,0.65,5.045,1.945
		c1.338,1.298,2.006,2.96,2.006,4.986l-0.121,65.414C475.935,250.971,478.488,253.971,478.488,257.698z"/>
	<path fill="#040000" d="M543.781,253.077c0,1.945-0.73,3.648-2.188,5.108c-1.459,1.458-3.162,2.188-5.107,2.188
		c-2.188,0-3.933-0.933-5.229-2.796c-0.729-1.134-1.945-2.876-3.647-5.229c-4.46,4.863-9.892,7.295-16.292,7.295
		c-6.486,0-11.837-2.289-16.051-6.87c-4.216-4.579-6.322-10.153-6.322-16.719c0-9.24,3.364-17.691,10.092-25.35
		c6.728-7.66,14.672-11.491,23.833-11.491c2.431,0,4.376,0.285,5.836,0.851c4.782,0,7.132,2.353,7.053,7.053
		c-0.324,19.536,0,30.397,0.972,32.585c1.377,3.242,3.202,6.282,5.471,9.119C543.252,250.12,543.781,251.539,543.781,253.077z
		 M522.26,237.514c-0.081-1.053-0.204-5.836-0.366-14.348c-0.082-5.593-0.121-8.916-0.121-9.97
		c-4.863,0.487-9.261,3.183-13.192,8.085c-3.933,4.905-5.897,9.83-5.897,14.772c0,5.917,3.201,8.876,9.604,8.876
		c1.218,0,2.556-0.122,4.014-0.365c0.487-0.486,1.702-2.107,3.647-4.863C520.68,238.729,521.448,238,522.26,237.514z"/>
	<path fill="#040000" d="M598.128,212.468c0,1.945-0.728,3.628-2.188,5.045c-1.458,1.419-3.16,2.128-5.105,2.128
		c-2.027,0-3.77-0.892-5.229-2.676c-2.027-2.511-4.134-3.769-6.322-3.769c-3.647,0-6.648,2.796-8.998,8.39
		c-1.867,4.459-2.797,8.796-2.797,13.009c0,6.08,1.742,9.769,5.229,11.065c1.296,0.486,2.512,0.729,3.647,0.729
		c2.431,0,4.539-1.174,6.322-3.526c1.46-1.945,3.241-2.918,5.351-2.918c1.863,0,3.545,0.711,5.046,2.127
		c1.499,1.42,2.249,3.061,2.249,4.925c0,1.46-0.526,2.879-1.579,4.256c-4.863,6.241-10.539,9.362-17.023,9.362
		c-6.891,0-12.645-2.918-17.266-8.754c-4.298-5.511-6.444-11.793-6.444-18.846c0-6.889,2.024-13.739,6.078-20.548
		c5.188-8.754,11.674-13.132,19.455-13.132c3.647,0,7.659,1.257,12.038,3.769C595.615,205.942,598.128,209.062,598.128,212.468z"/>
	<path fill="#040000" d="M658.194,211.251c0,3.486-0.933,6.973-2.796,10.457c-2.027,3.811-5.31,7.235-9.85,10.274
		c-4.54,3.04-9.117,4.844-13.738,5.41c-2.352,0.324-4.094,0.164-5.229-0.487c1.459,5.513,4.014,8.269,7.66,8.269
		c3.241,0,7.092-1.985,11.551-5.957c1.376-1.217,2.918-1.823,4.62-1.823c1.538,0,2.979,0.689,4.315,2.067
		c1.338,1.379,2.007,3,2.007,4.864c0,1.945-0.812,3.647-2.432,5.107c-6.565,5.836-12.971,8.754-19.211,8.754
		c-6.81,0-12.402-3.162-16.779-9.484c-3.891-5.673-5.836-12.077-5.836-19.211c0-6.402,1.62-12.238,4.863-17.509
		c2.593-4.295,6.361-7.982,11.309-11.064c4.942-3.08,9.847-4.621,14.711-4.621c4.457,0,8.044,1.38,10.761,4.135
		C656.836,203.185,658.194,206.794,658.194,211.251z M646.157,212.346c0-1.701-1.298-2.553-3.891-2.553
		c-1.38,0-2.555,0.204-3.526,0.608c-7.216,3.162-11.35,7.903-12.402,14.226c0.648,0.487,1.742,0.933,3.283,1.337
		c3.891-0.323,7.253-1.377,10.092-3.162c1.864-1.134,3.444-2.836,4.743-5.107C645.589,215.669,646.157,213.887,646.157,212.346z"/>
</g>
</svg>
