<?xml version="1.0" encoding="utf-8"?>
<!-- Generator: Adobe Illustrator 16.0.4, SVG Export Plug-In . SVG Version: 6.00 Build 0)  -->
<!DOCTYPE svg PUBLIC "-//W3C//DTD SVG 1.1//EN" "http://www.w3.org/Graphics/SVG/1.1/DTD/svg11.dtd">
<svg version="1.1" id="Layer_1" xmlns="http://www.w3.org/2000/svg" xmlns:xlink="http://www.w3.org/1999/xlink" x="0px" y="0px"
	 width="680.311px" height="941.101px" viewBox="0 0 680.311 941.101" enable-background="new 0 0 680.311 941.101"
	 xml:space="preserve">
<title>ui_btns_screenshot</title>
<path fill="#CCCCCC" d="M68.03,130.396h544.248c38.551,0,68.031,29.48,68.031,68.031v544.247c0,38.551-29.48,68.031-68.031,68.031
	H68.03c-38.551,0-68.03-29.48-68.03-68.031V198.426C0,159.875,29.479,130.396,68.03,130.396z"/>
<path d="M182.868,374.816c-8.375,3.884,130.293-5.902,77.435-4.767c48.846-1.053,70.949,14.132,106,50
	c-9.335,10.458-11.298,38.515-11,54c0.6,31.273,55.464,56.637,85,56c29.524-0.635,70.599-50.725,70-82
	c-0.602-31.274-33.462-70.636-63-70c-9.379,0.198-37.414,1.33-45,6c-38.104-39.81-80.403-54.15-134-53
	c-26.283,0.566-66.043,9.878-90,21c-3.866,1.794-9.695,13.894-8,18C171.993,374.145,178.995,376.611,182.868,374.816z
	 M461.172,451.375c0.429,22.343-16.383,40.892-37.474,41.345c-21.097,0.457-38.604-17.354-39.031-39.697
	c-0.429-22.345,16.381-40.887,37.474-41.344C443.234,411.227,460.739,429.033,461.172,451.375z"/>
<path d="M497.437,554.25c8.375-3.883-130.296,5.889-77.435,4.758c-48.848,1.049-70.947-14.139-105.994-50.012
	c9.336-10.457,11.302-38.509,11.006-53.999c-0.596-31.274-55.458-56.644-84.994-56.009c-29.524,0.631-70.604,50.717-70.009,81.992
	c0.596,31.273,33.455,70.641,62.993,70.008c9.379-0.197,37.414-1.326,45-5.996c38.099,39.814,80.396,54.16,133.992,53.016
	c26.283-0.561,66.045-9.871,90.004-20.988c3.864-1.797,9.694-13.895,8.002-18C508.312,554.923,501.311,552.457,497.437,554.25z
	 M219.142,477.662c-0.426-22.342,16.385-40.891,37.478-41.34c21.097-0.455,38.603,17.356,39.027,39.704
	c0.424,22.342-16.385,40.885-37.478,41.338C237.076,517.812,219.571,500.001,219.142,477.662z"/>
</svg>
