<?xml version="1.0" encoding="utf-8"?>
<!-- Generator: Adobe Illustrator 16.0.4, SVG Export Plug-In . SVG Version: 6.00 Build 0)  -->
<!DOCTYPE svg PUBLIC "-//W3C//DTD SVG 1.0//EN" "http://www.w3.org/TR/2001/REC-SVG-20010904/DTD/svg10.dtd">
<svg version="1.0" id="Layer_1" xmlns="http://www.w3.org/2000/svg" xmlns:xlink="http://www.w3.org/1999/xlink" x="0px" y="0px"
	 width="680.311px" height="941.101px" viewBox="0 0 680.311 941.101" enable-background="new 0 0 680.311 941.101"
	 xml:space="preserve">
<title>ui_btns_trash</title>
<path fill="#CCCCCC" d="M68.031,130.396h544.248c38.551,0,68.031,29.48,68.031,68.031v544.247c0,38.551-29.48,68.031-68.031,68.031
	H68.031C29.48,810.705,0,781.224,0,742.673V198.426C0,159.875,29.48,130.396,68.031,130.396z"/>
<path d="M505.421,314.737v15.162c0,3.032-3.031,6.064-6.064,6.064l0,0h-24.258v224.4c0,12.129-3.035,24.258-12.131,33.354
	c-6.064,9.102-15.162,15.164-27.291,15.164H238.57c-9.098,0-21.227-6.062-27.292-15.164c-9.098-9.098-12.13-21.227-12.13-33.354
	v-224.4h-18.193c-3.032,0-6.064-3.032-6.064-6.064l0,0v-15.162c0-3.033,3.032-6.065,6.064-6.065l0,0h72.776l18.195-39.421
	c3.032-6.064,6.062-12.13,12.13-15.162c6.064-3.033,12.129-6.065,18.195-6.065h75.81c6.063,0,12.129,3.032,18.193,6.065
	c6.062,3.032,9.098,9.098,12.129,15.162l15.162,39.421h72.775C502.389,308.671,505.421,311.704,505.421,314.737L505.421,314.737z
	 M444.772,563.394V338.996H232.504v224.398c0,3.031,0,6.064,3.034,9.098c0,3.031,3.03,3.031,3.03,6.062l3.032,3.033h197.104
	c0,0,0,0,3.033-3.033c0-3.031,3.031-3.031,3.031-6.062C444.771,569.458,444.772,566.425,444.772,563.394L444.772,563.394z
	 M293.153,390.546v136.458c0,3.033-3.03,6.064-6.062,6.064l0,0h-15.162c-3.032,0-6.063-3.031-6.063-6.064l0,0V390.546
	c0-3.032,3.031-6.064,6.063-6.064l0,0h15.162C290.12,384.482,293.153,387.514,293.153,390.546L293.153,390.546z M284.056,308.671
	H390.19l-12.129-27.291l-3.033-3.033h-75.811c-3.032,0-3.032,0-3.032,3.033L284.056,308.671z M353.802,390.546v136.458
	c0,3.033-3.033,6.064-6.066,6.064l0,0h-15.161c-3.032,0-6.063-3.031-6.063-6.064l0,0V390.546c0-3.032,3.032-6.064,6.063-6.064l0,0
	h15.161C350.768,384.482,353.802,387.514,353.802,390.546L353.802,390.546z M414.448,390.546v136.458
	c0,3.033-3.031,6.064-6.064,6.064l0,0h-15.162c-3.031,0-6.064-3.031-6.064-6.064l0,0V390.546c0-3.032,3.033-6.064,6.064-6.064l0,0
	h15.162C411.417,384.482,414.448,387.514,414.448,390.546L414.448,390.546z"/>
<g>
	<path fill="#040000" d="M178.789,704.713c0,14.995-4.217,27.914-12.653,38.763c-8.435,10.845-19.952,18.343-34.543,22.49
		c-5.758,1.607-13.927,3.013-24.501,4.219c-4.956,0.534-8.636-1.074-11.047-4.821c-2.009-2.14-3.013-4.885-3.013-8.232v-85.557
		c-1.205,0.271-2.343,0.403-3.413,0.403c-3.215,0-5.894-1.205-8.035-3.616c-2.142-2.408-3.213-5.222-3.213-8.435
		c0-4.419,2.075-7.697,6.227-9.843c12.583-6.558,24.703-9.84,36.352-9.84c17.136,0,31.195,6.561,42.176,19.68
		C173.567,672.377,178.789,687.31,178.789,704.713z M155.893,702.703c0-10.843-3.281-20.048-9.841-27.614
		c-6.562-7.561-15.198-11.345-25.909-11.345c-1.339,0-2.679,0.068-4.016,0.199v81.741c12.718-2.011,22.092-6.293,28.117-12.856
		C152.009,724.396,155.893,714.353,155.893,702.703z"/>
	<path fill="#040000" d="M272.779,688.044c0,5.758-1.542,11.517-4.619,17.271c-3.349,6.293-8.771,11.948-16.268,16.97
		c-7.5,5.021-15.063,8.003-22.695,8.937c-3.884,0.537-6.763,0.271-8.636-0.803c2.411,9.106,6.628,13.656,12.652,13.656
		c5.354,0,11.715-3.279,19.08-9.84c2.275-2.008,4.82-3.014,7.632-3.014c2.542,0,4.921,1.14,7.13,3.414
		c2.209,2.278,3.313,4.955,3.313,8.034c0,3.213-1.341,6.024-4.016,8.435c-10.845,9.64-21.423,14.461-31.733,14.461
		c-11.247,0-20.485-5.224-27.714-15.666c-6.428-9.369-9.64-19.948-9.64-31.73c0-10.577,2.676-20.217,8.033-28.923
		c4.283-7.095,10.508-13.185,18.679-18.274c8.165-5.087,16.268-7.632,24.301-7.632c7.361,0,13.285,2.279,17.773,6.829
		C270.534,674.722,272.779,680.681,272.779,688.044z M252.895,689.85c0-2.812-2.142-4.217-6.428-4.217
		c-2.277,0-4.217,0.335-5.822,1.003c-11.919,5.224-18.747,13.056-20.485,23.498c1.07,0.803,2.878,1.543,5.421,2.211
		c6.428-0.534,11.982-2.273,16.669-5.224c3.079-1.874,5.689-4.685,7.833-8.435C251.957,695.342,252.895,692.397,252.895,689.85z"/>
	<path fill="#040000" d="M333.426,764.763c0,2.942-1.004,5.388-3.013,7.33c-2.007,1.939-4.487,2.91-7.431,2.91
		c-1.877,0-3.685-0.4-5.423-1.205c-7.229-3.214-11.246-5.09-12.049-5.621c-5.222-3.217-7.833-6.83-7.833-10.849l0.201-115.479
		c0-3.345,1.069-6.093,3.213-8.231c2.14-2.143,4.886-3.214,8.234-3.214c3.344,0,6.126,1.071,8.335,3.214
		c2.211,2.142,3.313,4.887,3.313,8.231l-0.2,108.05C329.209,753.653,333.426,758.605,333.426,764.763z"/>
	<path fill="#040000" d="M429.427,688.044c0,5.758-1.544,11.517-4.62,17.271c-3.349,6.293-8.771,11.948-16.268,16.97
		c-7.501,5.021-15.062,8.003-22.694,8.937c-3.886,0.537-6.764,0.271-8.637-0.803c2.411,9.106,6.628,13.656,12.653,13.656
		c5.354,0,11.714-3.279,19.08-9.84c2.275-2.008,4.818-3.014,7.631-3.014c2.542,0,4.92,1.14,7.13,3.414
		c2.208,2.278,3.313,4.955,3.313,8.034c0,3.213-1.339,6.024-4.017,8.435c-10.845,9.64-21.424,14.461-31.732,14.461
		c-11.246,0-20.484-5.221-27.713-15.664c-6.428-9.371-9.64-19.948-9.64-31.732c0-10.577,2.677-20.214,8.032-28.92
		c4.284-7.098,10.509-13.188,18.678-18.277c8.165-5.084,16.267-7.632,24.302-7.632c7.361,0,13.284,2.279,17.771,6.829
		C427.182,674.722,429.427,680.681,429.427,688.044z M409.543,689.85c0-2.812-2.144-4.217-6.428-4.217
		c-2.276,0-4.218,0.335-5.823,1.003c-11.919,5.224-18.747,13.056-20.485,23.498c1.07,0.803,2.878,1.543,5.422,2.211
		c6.428-0.534,11.982-2.273,16.669-5.224c3.079-1.874,5.689-4.685,7.832-8.435C408.605,695.342,409.543,692.397,409.543,689.85z"/>
	<path fill="#040000" d="M507.748,687.039c0,5.09-2.545,8.569-7.632,10.443l-15.866,6.026v58.442c0,3.345-1.103,6.126-3.313,8.337
		c-2.209,2.208-4.989,3.313-8.334,3.313c-3.348,0-6.094-1.105-8.235-3.313c-2.142-2.211-3.213-4.99-3.213-8.337v-49.605
		l-3.213,1.205c-1.878,0.672-3.414,1.003-4.62,1.003c-3.214,0-5.858-1.202-7.934-3.613c-2.077-2.41-3.112-5.222-3.112-8.435
		c0-5.087,2.476-8.568,7.43-10.445l11.448-4.418v-32.937c0-4.016,1.437-7.531,4.318-10.545c2.876-3.011,6.326-4.519,10.343-4.519
		c5.624,0,8.435,3.014,8.435,9.04v30.125l7.632-3.014c1.337-0.534,2.879-0.803,4.62-0.803c3.214,0,5.89,1.206,8.034,3.613
		C506.675,681.015,507.748,683.826,507.748,687.039z"/>
	<path fill="#040000" d="M601.94,688.044c0,5.758-1.543,11.517-4.623,17.271c-3.346,6.293-8.769,11.948-16.265,16.97
		c-7.5,5.021-15.065,8.003-22.694,8.937c-3.887,0.537-6.764,0.271-8.636-0.803c2.409,9.106,6.626,13.656,12.653,13.656
		c5.353,0,11.713-3.279,19.079-9.84c2.274-2.008,4.819-3.014,7.632-3.014c2.54,0,4.918,1.14,7.13,3.414
		c2.208,2.278,3.313,4.955,3.313,8.034c0,3.213-1.34,6.024-4.017,8.435c-10.845,9.64-21.425,14.461-31.732,14.461
		c-11.248,0-20.485-5.224-27.715-15.666c-6.428-9.369-9.64-19.948-9.64-31.73c0-10.577,2.675-20.217,8.033-28.923
		c4.284-7.095,10.511-13.185,18.676-18.274c8.167-5.087,16.27-7.632,24.301-7.632c7.363,0,13.287,2.279,17.774,6.829
		C599.695,674.722,601.94,680.681,601.94,688.044z M582.057,689.85c0-2.812-2.146-4.217-6.428-4.217
		c-2.279,0-4.219,0.335-5.826,1.003c-11.917,5.224-18.746,13.056-20.485,23.498c1.071,0.803,2.88,1.543,5.424,2.211
		c6.427-0.534,11.982-2.273,16.669-5.224c3.079-1.874,5.69-4.685,7.831-8.435C581.117,695.342,582.057,692.397,582.057,689.85z"/>
</g>
</svg>
