<?xml version="1.0" encoding="utf-8"?>
<!-- Generator: Adobe Illustrator 16.0.4, SVG Export Plug-In . SVG Version: 6.00 Build 0)  -->
<!DOCTYPE svg PUBLIC "-//W3C//DTD SVG 1.0//EN" "http://www.w3.org/TR/2001/REC-SVG-20010904/DTD/svg10.dtd">
<svg version="1.0" id="Layer_1" xmlns="http://www.w3.org/2000/svg" xmlns:xlink="http://www.w3.org/1999/xlink" x="0px" y="0px"
	 width="680.311px" height="941.101px" viewBox="0 0 680.311 941.101" enable-background="new 0 0 680.311 941.101"
	 xml:space="preserve">
<title>ui_btns_screenshot</title>
<path fill="#CCCCCC" d="M68.031,130.396h544.248c38.551,0,68.031,29.48,68.031,68.031v544.247c0,38.551-29.48,68.031-68.031,68.031
	H68.031C29.48,810.705,0,781.224,0,742.673V198.426C0,159.875,29.48,130.396,68.031,130.396z"/>
<g enable-background="new    ">
	<path d="M522.904,365.569v51.237c0,6.832-3.417,13.663-6.831,17.079c-3.419,3.416-10.25,6.834-17.08,6.834H389.686v109.304
		c0,6.832-3.416,13.663-6.832,17.082c-3.414,3.415-10.248,6.828-17.079,6.828h-51.238c-6.832,0-13.663-3.416-17.078-6.828
		c-3.418-3.416-6.833-10.25-6.833-17.082V440.719H181.318c-6.831,0-13.661-3.422-17.078-6.834
		c-3.417-3.416-6.833-10.247-6.833-17.079v-51.238c0-6.83,3.417-13.663,6.833-17.08c3.417-3.416,10.247-6.83,17.078-6.83h109.308
		V228.934c0-6.833,3.417-13.663,6.833-17.078c3.415-3.417,10.246-6.833,17.078-6.833h51.238c6.831,0,13.664,3.417,17.079,6.833
		c3.417,3.416,6.832,10.247,6.832,17.078v109.307h109.307c6.83,0,13.661,3.417,17.08,6.832
		C519.487,351.905,522.904,358.738,522.904,365.569z"/>
</g>
<g>
	<path fill="#040000" d="M105.073,639.216c0,2.586-0.888,4.847-2.665,6.785c-1.776,1.937-3.957,2.906-6.542,2.906
		c-1.614,0-3.229-0.484-4.844-1.454c-6.46-3.768-13.139-5.651-20.027-5.651c-3.448,0-6.57,0.54-9.369,1.615
		c-3.77,1.615-5.653,3.875-5.653,6.783c0,5.168,5.921,10.176,17.767,15.021c19.92,8.185,29.881,19.814,29.881,34.888
		c0,8.292-3.177,15.021-9.529,20.188c-5.815,4.845-12.977,7.269-21.482,7.269c-3.875,0-7.699-0.485-11.468-1.454
		c-5.814-1.509-11.523-3.929-17.12-7.269c-6.569-3.98-10.983-8.239-13.244-12.76c-1.078-2.152-1.616-4.091-1.616-5.813
		c0-4.737,3.069-7.107,9.207-7.107c3.444,0,5.976,0.863,7.591,2.584c7.644,8.185,16.097,12.275,25.358,12.275
		c3.336,0,6.298-0.646,8.884-1.938c3.335-1.721,5.006-4.091,5.006-7.104c0-6.03-6.193-11.575-18.574-16.64
		c-19.704-7.967-29.557-18.625-29.557-31.98c0-8.29,3.768-15.073,11.306-20.35c6.675-4.626,14.375-6.943,23.096-6.943
		c9.691,0,19.325,2.854,28.912,8.559C103.51,633.458,105.073,635.987,105.073,639.216z"/>
	<path fill="#040000" d="M182.275,717.39c0,2.693-0.888,4.927-2.665,6.702c-1.775,1.778-4.013,2.667-6.703,2.667
		c-2.693,0-4.901-0.889-6.623-2.667c-1.724-1.775-2.584-4.009-2.584-6.702v-39.248c0-3.875-1.994-5.813-5.976-5.813
		c-5.062-0.106-9.101,2.584-12.114,8.074c-2.479,4.633-3.714,9.69-3.714,15.183l0.162,20.835c0,2.802-0.864,5.035-2.585,6.705
		c-1.724,1.672-3.985,2.504-6.784,2.504c-2.801,0-5.062-0.832-6.783-2.504c-1.723-1.668-2.584-3.903-2.584-6.705v-53.783
		c0-2.69,0.86-4.897,2.584-6.623c1.721-1.721,3.929-2.584,6.622-2.584c2.799,0,5.061,0.836,6.784,2.506
		c1.721,1.67,2.584,3.905,2.584,6.703v2.1c6.675-7.321,13.997-10.982,21.965-10.982c6.353,0,11.146,2.584,14.376,7.753
		c2.689,4.414,4.037,9.958,4.037,16.635V717.39z"/>
	<path fill="#040000" d="M272.24,719.004c0,2.584-0.97,4.847-2.907,6.785c-1.939,1.937-4.201,2.906-6.786,2.906
		c-2.906,0-5.223-1.238-6.944-3.715c-0.969-1.507-2.584-3.819-4.847-6.943c-5.922,6.459-13.137,9.688-21.643,9.688
		c-8.614,0-15.722-3.039-21.32-9.124c-5.6-6.082-8.398-13.488-8.398-22.208c0-12.275,4.467-23.501,13.406-33.677
		c8.937-10.176,19.487-15.264,31.656-15.264c3.23,0,5.814,0.379,7.752,1.132c6.354,0,9.476,3.124,9.369,9.368
		c-0.43,25.949,0,40.38,1.292,43.285c1.83,4.308,4.252,8.346,7.268,12.112C271.538,715.077,272.24,716.962,272.24,719.004z
		 M243.653,698.331c-0.111-1.396-0.271-7.752-0.485-19.059c-0.111-7.429-0.163-11.844-0.163-13.242
		c-6.459,0.646-12.303,4.227-17.524,10.738c-5.224,6.517-7.832,13.059-7.832,19.626c0,7.861,4.251,11.789,12.759,11.789
		c1.615,0,3.39-0.161,5.329-0.484c0.648-0.646,2.262-2.798,4.848-6.46C241.552,699.946,242.573,698.979,243.653,698.331z"/>
	<path fill="#040000" d="M351.218,679.112c0,12.169-4.631,21.804-13.889,28.91c-8.185,6.248-18.684,9.909-31.495,10.982v31.984
		c0,2.688-0.888,4.897-2.665,6.618c-1.777,1.723-4.013,2.586-6.704,2.586c-2.692,0-4.901-0.861-6.622-2.586
		c-1.725-1.724-2.585-3.931-2.585-6.618v-97.557c0-2.689,0.834-4.925,2.505-6.702c1.667-1.778,3.849-2.665,6.541-2.665
		c4.845-0.107,7.858,2.047,9.044,6.46c5.815-4.629,11.683-6.944,17.606-6.944c8.397,0,15.343,3.933,20.835,11.791
		C348.74,662.476,351.218,670.389,351.218,679.112z M332.805,675.397c-0.108-3.014-1.077-5.759-2.907-8.237
		c-1.832-2.477-4.201-3.714-7.107-3.714c-5.386,0-11.039,4.357-16.958,13.081v23.74
		C324.352,698.441,333.343,690.151,332.805,675.397z"/>
	<path fill="#040000" d="M419.862,706.568c0,7.753-2.962,13.948-8.883,18.574c-4.309,3.338-9.262,5.008-14.859,5.008
		c-2.585,0-5.331-0.379-8.237-1.13c-7.861-1.939-15.021-6.515-21.481-13.729c-1.401-1.615-2.1-3.606-2.1-5.976
		c0-4.952,2.421-7.752,7.268-8.399c3.982-0.538,7.968,1.886,11.951,7.268c2.584,3.554,6.243,5.331,10.983,5.331
		c4.736,0,7.43-1.83,8.075-5.492c0.537-3.554-2.1-7.481-7.913-11.79c-0.541-0.428-4.955-3.175-13.245-8.237
		c-10.337-6.244-15.506-13.188-15.506-20.835c0-6.783,2.799-12.328,8.397-16.638c5.171-3.982,11.251-5.977,18.251-5.977
		c6.786,0,13.406,1.886,19.869,5.653c3.012,1.725,4.521,4.359,4.521,7.915c0,5.278-2.801,7.916-8.399,7.916
		c-0.862,0-3.366-0.834-7.511-2.504c-4.146-1.668-7.728-2.506-10.74-2.506c-4.416,0-6.621,2.047-6.621,6.138
		c0,3.875,4.305,7.592,12.921,11.144C412.109,684.55,419.862,693.971,419.862,706.568z"/>
	<path fill="#040000" d="M507.079,678.466c0.751,16.045-1.024,30.525-5.33,43.446c-1.292,4.091-4.094,6.138-8.398,6.138
		c-2.585,0-4.82-0.863-6.704-2.584c-1.886-1.721-2.825-3.768-2.825-6.138c0-1.075,0.16-2.424,0.483-4.038
		c3.123-11.734,4.414-24.228,3.877-37.473c-0.217-7.858-3.178-11.788-8.884-11.788c-5.275,0-12.653,9.204-22.128,27.617v21.156
		c0,2.803-0.862,5.035-2.584,6.705c-1.724,1.672-3.984,2.504-6.783,2.504c-2.693,0-4.9-0.859-6.623-2.584
		c-1.724-1.721-2.584-3.929-2.584-6.623v-93.679c0-3.443,1.265-6.512,3.796-9.206c2.528-2.69,5.464-4.036,8.803-4.036
		c3.981,0,5.976,2.261,5.976,6.783v49.908c8.29-10.442,16.367-15.668,24.228-15.668c6.998,0,13.082,3.287,18.251,9.852
		C504.385,664.792,506.862,671.359,507.079,678.466z"/>
	<path fill="#040000" d="M587.027,681.696c0,11.306-2.854,21.697-8.56,31.173c-6.569,10.982-15.182,16.475-25.842,16.475
		c-1.938,0-3.934-0.218-5.977-0.647c-7.754-1.615-13.624-5.867-17.605-12.76c-3.553-6.028-5.329-13.296-5.329-21.804
		c0-11.307,2.851-21.644,8.56-31.011c6.676-10.982,15.287-16.475,25.842-16.475c1.938,0,3.93,0.216,5.977,0.646
		c7.752,1.615,13.62,5.871,17.605,12.76C585.25,665.977,587.027,673.192,587.027,681.696z M568.615,682.504
		c0-3.232-0.647-6.567-1.938-10.016c-1.615-4.199-3.771-6.567-6.461-7.106c-3.985-0.859-7.808,1.4-11.467,6.783
		c-2.909,4.201-4.847,8.561-5.815,13.084c-0.539,2.584-0.807,5.276-0.807,8.076c0,3.229,0.646,6.567,1.938,10.013
		c1.614,4.199,3.768,6.569,6.46,7.107c2.69,0.539,5.653-0.646,8.883-3.554c4.091-3.659,6.89-9.097,8.399-16.313
		C568.346,687.995,568.615,685.304,568.615,682.504z"/>
	<path fill="#040000" d="M651.149,662.637c0,4.093-2.048,6.891-6.138,8.397l-12.76,4.847v47.001c0,2.689-0.888,4.927-2.665,6.704
		c-1.776,1.776-4.013,2.665-6.703,2.665c-2.692,0-4.9-0.889-6.622-2.665c-1.723-1.777-2.584-4.013-2.584-6.704v-39.892l-2.585,0.968
		c-1.51,0.541-2.744,0.809-3.715,0.809c-2.584,0-4.712-0.97-6.38-2.908c-1.671-1.937-2.505-4.199-2.505-6.785
		c0-4.09,1.992-6.888,5.978-8.398l9.206-3.552v-26.489c0-3.229,1.155-6.056,3.473-8.479c2.314-2.424,5.087-3.634,8.318-3.634
		c4.522,0,6.783,2.421,6.783,7.268v24.225l6.138-2.421c1.075-0.43,2.313-0.647,3.715-0.647c2.585,0,4.737,0.972,6.461,2.91
		C650.284,657.792,651.149,660.052,651.149,662.637z"/>
</g>
</svg>
