<?xml version="1.0" encoding="utf-8"?>
<!-- Generator: Adobe Illustrator 16.0.4, SVG Export Plug-In . SVG Version: 6.00 Build 0)  -->
<!DOCTYPE svg PUBLIC "-//W3C//DTD SVG 1.0//EN" "http://www.w3.org/TR/2001/REC-SVG-20010904/DTD/svg10.dtd">
<svg version="1.0" id="Layer_1" xmlns="http://www.w3.org/2000/svg" xmlns:xlink="http://www.w3.org/1999/xlink" x="0px" y="0px"
	 width="680.311px" height="941.101px" viewBox="0 0 680.311 941.101" enable-background="new 0 0 680.311 941.101"
	 xml:space="preserve">
<title>ui_btns_screenshot</title>
<path fill="#CCCCCC" d="M68.03,130.396h544.248c38.551,0,68.031,29.48,68.031,68.031v544.247c0,38.551-29.48,68.031-68.031,68.031
	H68.03C29.479,810.705,0,781.224,0,742.673V198.426C0,159.875,29.479,130.396,68.03,130.396z"/>
<path fill="#1E00F4" d="M132.476,280.858c-11.059,5.129,172.034-7.792,102.243-6.294c64.494-1.39,93.68,18.66,139.96,66.019
	c-12.325,13.808-14.917,50.856-14.524,71.299c0.792,41.293,73.234,74.784,112.232,73.941c38.98-0.838,93.217-66.976,92.426-108.271
	c-0.797-41.293-44.182-93.266-83.184-92.426c-12.383,0.262-49.4,1.756-59.416,7.922c-50.313-52.564-106.164-71.499-176.932-69.98
	c-34.703,0.748-87.201,13.042-118.833,27.728c-5.105,2.369-12.802,18.346-10.563,23.767
	C118.117,279.972,127.362,283.228,132.476,280.858z M499.944,381.945c0.565,29.502-21.635,53.993-49.482,54.592
	c-27.855,0.604-50.972-22.914-51.533-52.415c-0.569-29.506,21.628-53.987,49.479-54.59
	C476.257,328.935,499.37,352.446,499.944,381.945z"/>
<path fill="#0D00BA" d="M547.826,517.779c11.059-5.128-172.039,7.774-102.242,6.281c-64.5,1.385-93.677-18.668-139.952-66.033
	c12.326-13.808,14.923-50.845,14.531-71.299c-0.786-41.294-73.225-74.792-112.224-73.954
	c-38.981,0.834-93.223,66.966-92.438,108.261c0.786,41.292,44.172,93.272,83.174,92.436c12.384-0.26,49.4-1.75,59.417-7.916
	c50.305,52.569,106.152,71.511,176.917,70c34.704-0.74,87.206-13.034,118.841-27.707c5.1-2.378,12.799-18.349,10.566-23.767
	C562.187,518.667,552.943,515.411,547.826,517.779z M180.373,416.653c-0.562-29.498,21.634-53.992,49.487-54.583
	c27.855-0.601,50.97,22.915,51.528,52.427c0.56,29.5-21.634,53.983-49.484,54.581C204.053,469.667,180.939,446.15,180.373,416.653z"
	/>
<g>
	<path fill="#231815" d="M181.178,732.096c0,4.466-1.1,9.296-3.3,14.492c-2.201,5.197-5.662,10.299-10.378,15.305
		c-4.72,5.008-10.746,9.071-18.078,12.196c-7.336,3.122-15.879,4.686-25.635,4.686c-7.399,0-14.126-0.702-20.183-2.103
		c-6.059-1.403-11.559-3.589-16.5-6.553c-4.942-2.966-9.486-6.871-13.63-11.718c-3.701-4.4-6.856-9.327-9.47-14.779
		c-2.616-5.452-4.576-11.271-5.883-17.457c-1.307-6.181-1.958-12.752-1.958-19.704c0-11.287,1.639-21.393,4.924-30.322
		c3.283-8.927,7.987-16.562,14.108-22.909c6.122-6.344,13.296-11.174,21.521-14.49c8.226-3.316,16.993-4.975,26.307-4.975
		c11.347,0,21.457,2.264,30.32,6.791c8.863,4.53,15.657,10.124,20.375,16.787c4.719,6.664,7.079,12.961,7.079,18.894
		c0,3.252-1.146,6.121-3.443,8.607c-2.294,2.483-5.069,3.73-8.323,3.73c-3.634,0-6.36-0.861-8.178-2.583
		c-1.817-1.723-3.841-4.687-6.073-8.895c-3.698-6.952-8.052-12.148-13.057-15.593c-5.006-3.448-11.177-5.171-18.509-5.171
		c-11.67,0-20.965,4.436-27.881,13.299c-6.92,8.863-10.378,21.459-10.378,37.782c0,10.905,1.531,19.977,4.591,27.215
		c3.061,7.238,7.397,12.641,13.01,16.212c5.61,3.572,12.179,5.358,19.704,5.358c8.163,0,15.065-2.025,20.711-6.075
		c5.644-4.049,9.899-9.996,12.77-17.84c1.211-3.697,2.709-6.71,4.495-9.038c1.785-2.327,4.654-3.491,8.609-3.491
		c3.379,0,6.28,1.181,8.703,3.539C179.966,725.657,181.178,728.59,181.178,732.096z"/>
	<path fill="#231815" d="M268.416,633.765c14.539,0,27.021,2.95,37.447,8.85c10.424,5.898,18.317,14.284,23.674,25.156
		c5.356,10.873,8.034,23.642,8.034,38.308c0,10.843-1.468,20.695-4.399,29.559c-2.934,8.862-7.337,16.546-13.2,23.051
		c-5.868,6.505-13.073,11.479-21.618,14.923c-8.549,3.442-18.333,5.164-29.365,5.164c-10.968,0-20.79-1.77-29.461-5.308
		c-8.673-3.539-15.911-8.527-21.712-14.971c-5.804-6.439-10.188-14.188-13.153-23.243c-2.964-9.053-4.448-18.843-4.448-29.366
		c0-10.772,1.546-20.66,4.64-29.646c3.092-8.995,7.572-16.646,13.441-22.958c5.866-6.312,13.007-11.144,21.425-14.491
		C248.137,635.44,257.701,633.765,268.416,633.765z M308.779,705.887c0-10.267-1.657-19.16-4.973-26.687
		c-3.315-7.524-8.052-13.216-14.205-17.074c-6.152-3.857-13.214-5.788-21.185-5.788c-5.678,0-10.924,1.069-15.736,3.205
		c-4.817,2.139-8.96,5.247-12.437,9.327c-3.474,4.08-6.216,9.294-8.226,15.64c-2.007,6.34-3.011,13.472-3.011,21.372
		c0,7.974,1.004,15.179,3.011,21.622c2.01,6.438,4.848,11.782,8.513,16.021c3.667,4.241,7.875,7.413,12.625,9.516
		c4.75,2.103,9.966,3.155,15.64,3.155c7.269,0,13.951-1.818,20.039-5.452c6.089-3.636,10.936-9.246,14.539-16.832
		C306.979,726.327,308.779,716.983,308.779,705.887z"/>
	<path fill="#231815" d="M398.884,650.792l54.618,82.646v-83.409c0-5.42,1.163-9.485,3.493-12.196
		c2.328-2.711,5.468-4.066,9.421-4.066c4.079,0,7.301,1.355,9.662,4.066s3.54,6.776,3.54,12.196v110.287
		c0,12.308-5.103,18.46-15.304,18.46c-2.553,0-4.848-0.371-6.89-1.1c-2.042-0.733-3.955-1.897-5.738-3.491
		c-1.786-1.593-3.444-3.459-4.973-5.595c-1.529-2.141-3.061-4.319-4.591-6.552l-53.279-81.69v82.168
		c0,5.355-1.242,9.407-3.729,12.146c-2.486,2.741-5.678,4.113-9.563,4.113c-4.017,0-7.241-1.389-9.663-4.165
		c-2.425-2.775-3.636-6.806-3.636-12.1v-108.18c0-4.592,0.511-8.196,1.53-10.812c1.211-2.864,3.22-5.214,6.029-7.03
		c2.804-1.819,5.833-2.728,9.087-2.728c2.548,0,4.734,0.417,6.553,1.244c1.817,0.828,3.408,1.944,4.782,3.348
		c1.371,1.402,2.773,3.222,4.21,5.452C395.869,646.042,397.355,648.37,398.884,650.792z"/>
	<path fill="#231815" d="M531.459,652.419l31.759,94.025l31.852-94.697c1.658-4.97,2.901-8.431,3.73-10.373
		c0.828-1.944,2.197-3.697,4.112-5.261c1.914-1.561,4.527-2.349,7.846-2.349c2.423,0,4.67,0.608,6.742,1.816
		c2.072,1.214,3.698,2.822,4.877,4.833c1.181,2.008,1.77,4.033,1.77,6.072c0,1.404-0.191,2.919-0.572,4.544
		c-0.384,1.627-0.861,3.222-1.438,4.782c-0.572,1.563-1.147,3.173-1.722,4.83l-33.956,91.637c-1.213,3.508-2.425,6.839-3.634,9.996
		c-1.214,3.155-2.616,5.931-4.211,8.321c-1.596,2.392-3.715,4.353-6.36,5.883c-2.649,1.531-5.883,2.295-9.71,2.295
		s-7.063-0.75-9.71-2.247c-2.649-1.492-4.782-3.475-6.408-5.928c-1.626-2.455-3.049-5.244-4.259-8.371
		c-1.213-3.122-2.425-6.438-3.635-9.947l-33.381-90.869c-0.577-1.658-1.164-3.283-1.77-4.88c-0.607-1.59-1.116-3.312-1.532-5.164
		c-0.417-1.85-0.622-3.411-0.622-4.688c0-3.252,1.306-6.216,3.922-8.894c2.613-2.68,5.896-4.019,9.852-4.019
		c4.846,0,8.274,1.485,10.282,4.446C527.298,641.178,529.358,645.914,531.459,652.419z"/>
</g>
</svg>
