<svg id="Layer_1" data-name="Layer 1" xmlns="http://www.w3.org/2000/svg" viewBox="0 0 30 30"><defs><style>.cls-1{fill:#ff3030;}.cls-2{fill:#fff;}</style></defs><title>ui_btns_annotation_active</title><rect class="cls-1" width="30" height="30" rx="15" ry="15"/><path class="cls-2" d="M19,13.16a3.29,3.29,0,0,1-.26,1.4l-2.84,6a1,1,0,0,1-.37.41,1,1,0,0,1-1.05,0,.9.9,0,0,1-.36-.41l-2.85-6a3.29,3.29,0,0,1-.26-1.4,4,4,0,0,1,4-4,4,4,0,0,1,4,4Zm-2.59,1.41a2,2,0,1,0-1.41.59A1.93,1.93,0,0,0,16.41,14.57Z"/></svg>