<?xml version="1.0" encoding="utf-8"?>
<!-- Generator: Adobe Illustrator 16.0.4, SVG Export Plug-In . SVG Version: 6.00 Build 0)  -->
<!DOCTYPE svg PUBLIC "-//W3C//DTD SVG 1.0//EN" "http://www.w3.org/TR/2001/REC-SVG-20010904/DTD/svg10.dtd">
<svg version="1.0" id="Layer_1" xmlns="http://www.w3.org/2000/svg" xmlns:xlink="http://www.w3.org/1999/xlink" x="0px" y="0px"
	 width="680.311px" height="941.101px" viewBox="0 0 680.311 941.101" enable-background="new 0 0 680.311 941.101"
	 xml:space="preserve">
<title>ui_btns_measure</title>
<path fill="#FFFF15" d="M340.155,130.396L340.155,130.396c187.862,0,340.155,152.292,340.155,340.154l0,0
	c0,187.862-152.293,340.155-340.155,340.155l0,0C152.293,810.705,0,658.412,0,470.55l0,0C0,282.688,152.293,130.396,340.155,130.396
	z"/>
<path d="M453.539,515.646v-45.355h-68.03v-22.676h68.03V402.26H340.155v-22.677h113.385v-45.354h-68.03v-22.677h68.03v-45.354
	H340.155v-22.677h113.385v-22.677c0-12.524-10.151-22.677-22.677-22.677H249.447c-12.523,0-22.677,10.152-22.677,22.677V561
	c0,12.523,10.152,22.676,22.677,22.676h181.416c12.524,0,22.677-10.15,22.677-22.676v-22.678H340.155v-22.676H453.539z"/>
<g enable-background="new    ">
	<path fill="#040000" d="M291.222,675.946c0,21.565-4.063,40.956-12.182,58.177c-9.381,20.025-21.984,30.035-37.804,30.035
		c-16.523,0-28.773-8.055-36.755-24.153c-5.743-11.479-8.61-24.08-8.61-37.804c0-18.2,3.708-35.421,11.131-51.664
		c10.501-22.823,25.833-34.234,45.994-34.234c15.259,0,26.042,7.911,32.344,23.732C289.259,649.836,291.222,661.805,291.222,675.946
		z M265.808,670.907c0-15.961-3.149-24.572-9.451-25.832c-1.401-0.278-2.871-0.42-4.41-0.42c-10.082,0-17.852,7.349-23.314,22.05
		c-4.062,10.922-6.09,21.705-6.09,32.345c0,23.665,4.199,36.474,12.601,38.434c1.12,0.282,2.17,0.42,3.151,0.42
		c7.141,0,13.231-5.808,18.272-17.431C262.727,706.333,265.808,689.81,265.808,670.907z"/>
	<path fill="#040000" d="M389.299,674.896c0,4.343-2.03,7.702-6.09,10.082c-4.763,2.802-16.875,6.861-36.334,12.181v55.447
		c0,3.497-1.155,6.404-3.466,8.714c-2.311,2.311-5.217,3.465-8.716,3.465c-3.502,0-6.373-1.154-8.61-3.465
		c-2.242-2.31-3.359-5.217-3.359-8.714v-49.987c-2.102,0.282-3.645,0.35-4.621,0.21c-7.702-0.42-11.55-4.409-11.55-11.972
		c0-3.637,1.223-6.614,3.675-8.924c2.449-2.312,5.495-3.325,9.135-3.047c0.42,0,1.398-0.138,2.941-0.42
		c-0.84-6.02-2.383-11.552-4.621-16.594c-3.781,0.562-7.001-0.452-9.66-3.045c-2.661-2.589-3.99-5.774-3.99-9.556
		c0-5.178,2.447-8.747,7.351-10.712l4.621-1.89c0.977-0.7,2.31-1.327,3.991-1.89c27.439-13.021,46.062-19.533,55.865-19.533
		c3.359,0,6.159,1.228,8.4,3.675c2.238,2.452,3.359,5.354,3.359,8.717c0,6.584-3.359,10.501-10.08,11.761
		c-8.4,1.542-20.933,5.882-37.594,13.021c2.799,6.302,4.758,12.953,5.881,19.953c13.719-3.78,22.122-6.58,25.202-8.402
		c1.959-1.117,4.06-1.68,6.301-1.68c3.36,0,6.196,1.263,8.507,3.78C388.145,668.597,389.299,671.537,389.299,674.896z"/>
	<path fill="#040000" d="M484.439,674.896c0,4.343-2.031,7.702-6.092,10.082c-4.761,2.802-16.874,6.861-36.334,12.181v55.447
		c0,3.497-1.154,6.404-3.465,8.714c-2.311,2.311-5.217,3.465-8.716,3.465c-3.503,0-6.373-1.154-8.611-3.465
		c-2.241-2.31-3.359-5.217-3.359-8.714v-49.987c-2.1,0.282-3.644,0.35-4.621,0.21c-7.701-0.42-11.551-4.409-11.551-11.972
		c0-3.637,1.225-6.614,3.676-8.924c2.447-2.312,5.493-3.325,9.134-3.047c0.422,0,1.399-0.138,2.941-0.42
		c-0.839-6.02-2.381-11.552-4.62-16.594c-3.78,0.562-7.003-0.452-9.66-3.045c-2.663-2.589-3.992-5.774-3.992-9.556
		c0-5.178,2.449-8.747,7.351-10.712l4.621-1.89c0.978-0.7,2.31-1.327,3.991-1.89c27.439-13.021,46.063-19.533,55.866-19.533
		c3.358,0,6.158,1.228,8.399,3.675c2.238,2.452,3.361,5.354,3.361,8.717c0,6.584-3.361,10.501-10.082,11.761
		c-8.4,1.542-20.932,5.882-37.594,13.021c2.799,6.302,4.759,12.953,5.881,19.953c13.72-3.78,22.123-6.58,25.202-8.402
		c1.96-1.117,4.06-1.68,6.301-1.68c3.361,0,6.195,1.263,8.507,3.78C483.282,668.597,484.439,671.537,484.439,674.896z"/>
</g>
</svg>
