<?xml version="1.0" encoding="utf-8"?>
<!-- Generator: Adobe Illustrator 16.0.4, SVG Export Plug-In . SVG Version: 6.00 Build 0)  -->
<!DOCTYPE svg PUBLIC "-//W3C//DTD SVG 1.0//EN" "http://www.w3.org/TR/2001/REC-SVG-20010904/DTD/svg10.dtd">
<svg version="1.0" id="Layer_1" xmlns="http://www.w3.org/2000/svg" xmlns:xlink="http://www.w3.org/1999/xlink" x="0px" y="0px"
	 width="680.311px" height="941.101px" viewBox="0 0 680.311 941.101" enable-background="new 0 0 680.311 941.101"
	 xml:space="preserve">
<title>ui_btns_whole</title>
<path fill="#CCCCCC" d="M68.031,119.396h544.248c38.551,0,68.031,29.48,68.031,68.031v544.247c0,38.551-29.48,68.031-68.031,68.031
	H68.031C29.48,799.705,0,770.224,0,731.673V187.426C0,148.875,29.48,119.396,68.031,119.396z"/>
<path d="M459.956,306.862l-83.859,83.859l83.859,83.86l32.943-32.945c2.996-5.99,11.98-5.99,14.977-2.995
	c5.988,2.995,8.984,8.984,8.984,14.974v104.824c0,8.987-5.99,14.977-14.975,14.977h-101.83c-5.99,0-11.979-2.995-14.975-8.984
	c-2.996-5.992,0-11.981,2.996-14.977l32.943-32.943l-80.865-89.849l-83.859,83.857l32.944,32.945
	c5.99,2.995,5.99,11.979,2.995,14.975c-2.995,5.992-8.985,8.987-14.974,8.987h-101.83c-8.985,0-14.976-5.992-14.976-14.977V447.625
	c0-5.989,2.995-11.979,8.986-14.974c5.99-2.995,11.979,0,14.974,2.995l32.945,32.946l83.858-83.861l-80.865-77.869l-32.944,32.944
	c-2.996,2.996-11.979,5.991-14.974,2.996c-8.987,0-11.98-5.991-11.98-11.979V225.998c0-8.984,5.991-14.974,14.976-14.974h104.823
	c5.991,0,11.979,2.996,14.976,8.985c2.995,5.989,0,11.979-2.996,14.974l-32.944,32.945l83.859,83.86l83.861-83.86l-38.936-32.945
	c-5.99-2.995-5.99-11.98-2.994-14.974c2.994-5.991,8.984-8.985,14.973-8.985H504.88c8.984,0,14.973,5.991,14.973,14.974v104.826
	c0,5.988-2.996,11.978-8.984,14.975c-2.996,0-2.996,0-5.988,0c-2.996,0-8.988-2.998-11.98-2.998L459.956,306.862z"/>
<g>
	<path d="M219.45,633.245c-4.76,55.811-10.242,93.597-16.441,113.351c-2.309,7.214-5.482,10.817-9.517,10.817
		c-6.204,0-14.207-8.005-24.012-24.012c-5.337-9.086-13.412-22.712-24.227-40.885c-6.057,28.268-15.434,49.897-28.121,64.896
		c-3.607,4.181-7.356,6.272-11.248,6.272c-3.461,0-6.204-1.587-8.221-4.759c-1.588-2.597-2.379-5.766-2.379-9.519
		c0-13.553-2.67-32.156-8.005-55.812c-5.482-24.514-11.464-41.89-17.956-52.132c-1.297-2.021-1.946-4.325-1.946-6.925
		c0-3.461,1.3-6.377,3.895-8.759c2.595-2.381,5.625-3.571,9.085-3.571c4.326,0,7.713,1.949,10.167,5.842
		c10.239,16.007,18.604,42.545,25.093,79.605c4.614-14.418,8.075-31.507,10.384-51.268c1.006-8.796,4.758-13.195,11.248-13.195
		c4.469,0,8.362,2.67,11.682,8.006l36.556,59.053c3.75-21.772,6.851-48.165,9.302-79.174c0.576-7.643,4.613-11.463,12.114-11.463
		c4.035,0,7.209,1.298,9.518,3.895C218.727,626.107,219.738,629.349,219.45,633.245z"/>
	<path d="M335.613,692.083c1.006,21.492-1.372,40.887-7.139,58.191c-1.731,5.477-5.482,8.222-11.248,8.222
		c-3.463,0-6.457-1.157-8.979-3.461c-2.526-2.309-3.784-5.05-3.784-8.221c0-1.44,0.215-3.246,0.647-5.412
		c4.181-15.715,5.912-32.444,5.191-50.184c-0.29-10.528-4.254-15.792-11.897-15.792c-7.067,0-16.947,12.328-29.637,36.989v28.338
		c0,3.753-1.155,6.744-3.46,8.978c-2.308,2.239-5.336,3.355-9.085,3.355c-3.607,0-6.565-1.153-8.87-3.464
		c-2.307-2.305-3.46-5.261-3.46-8.867V615.29c0-4.614,1.694-8.725,5.083-12.331c3.386-3.602,7.318-5.408,11.79-5.408
		c5.333,0,8.003,3.03,8.003,9.085v66.844c11.104-13.986,21.92-20.981,32.45-20.981c9.373,0,17.521,4.399,24.443,13.194
		C332.004,673.768,335.321,682.564,335.613,692.083z"/>
	<path d="M442.69,696.408c0,15.143-3.823,29.062-11.464,41.752c-8.799,14.709-20.334,22.064-34.611,22.064
		c-2.596,0-5.268-0.292-8.004-0.867c-10.385-2.16-18.247-7.857-23.581-17.087c-4.758-8.076-7.137-17.81-7.137-29.203
		c0-15.145,3.818-28.986,11.465-41.535c8.94-14.709,20.475-22.065,34.61-22.065c2.597,0,5.263,0.293,8.003,0.868
		c10.384,2.163,18.243,7.863,23.581,17.087C440.311,675.356,442.69,685.019,442.69,696.408z M418.031,697.491
		c0-4.325-0.867-8.796-2.597-13.41c-2.162-5.627-5.05-8.799-8.652-9.521c-5.338-1.15-10.457,1.877-15.358,9.085
		c-3.896,5.626-6.491,11.466-7.788,17.524c-0.723,3.461-1.081,7.065-1.081,10.816c0,4.322,0.866,8.795,2.597,13.41
		c2.162,5.625,5.046,8.799,8.653,9.519c3.603,0.723,7.57-0.864,11.896-4.759c5.478-4.901,9.227-12.186,11.249-21.85
		C417.669,704.847,418.031,701.242,418.031,697.491z"/>
	<path d="M509.531,754.6c0,3.169-1.082,5.803-3.246,7.895c-2.163,2.09-4.833,3.135-8.004,3.135c-2.022,0-3.968-0.431-5.841-1.298
		c-7.788-3.461-12.113-5.482-12.979-6.055c-5.623-3.464-8.436-7.356-8.436-11.685l0.217-124.383c0-3.603,1.152-6.562,3.461-8.867
		c2.305-2.307,5.263-3.461,8.867-3.461s6.599,1.154,8.979,3.461c2.38,2.308,3.57,5.265,3.57,8.867l-0.217,116.381
		C504.989,742.632,509.531,747.967,509.531,754.6z"/>
	<path d="M612.934,671.965c0,6.202-1.661,12.404-4.979,18.604c-3.604,6.777-9.445,12.868-17.519,18.276
		c-8.079,5.408-16.227,8.62-24.445,9.627c-4.186,0.579-7.285,0.291-9.301-0.864c2.593,9.808,7.138,14.709,13.627,14.709
		c5.768,0,12.619-3.532,20.551-10.599c2.449-2.163,5.192-3.246,8.221-3.246c2.737,0,5.299,1.228,7.68,3.676
		c2.379,2.455,3.569,5.338,3.569,8.654c0,3.462-1.443,6.488-4.326,9.086c-11.684,10.383-23.075,15.575-34.18,15.575
		c-12.116,0-22.065-5.623-29.854-16.871c-6.922-10.094-10.382-21.487-10.382-34.18c0-11.394,2.882-21.773,8.653-31.15
		c4.612-7.645,11.319-14.203,20.115-19.686c8.798-5.477,17.522-8.222,26.175-8.222c7.931,0,14.312,2.456,19.146,7.356
		C610.517,657.617,612.934,664.034,612.934,671.965z M591.519,673.91c0-3.027-2.311-4.541-6.924-4.541
		c-2.455,0-4.544,0.359-6.274,1.08c-12.837,5.627-20.191,14.062-22.065,25.311c1.155,0.864,3.102,1.661,5.841,2.382
		c6.923-0.576,12.907-2.45,17.955-5.627c3.316-2.019,6.128-5.046,8.436-9.086C590.506,679.826,591.519,676.654,591.519,673.91z"/>
</g>
</svg>
