<?xml version="1.0" encoding="utf-8"?>
<!-- Generator: Adobe Illustrator 16.0.4, SVG Export Plug-In . SVG Version: 6.00 Build 0)  -->
<!DOCTYPE svg PUBLIC "-//W3C//DTD SVG 1.0//EN" "http://www.w3.org/TR/2001/REC-SVG-20010904/DTD/svg10.dtd">
<svg version="1.0" id="Layer_1" xmlns="http://www.w3.org/2000/svg" xmlns:xlink="http://www.w3.org/1999/xlink" x="0px" y="0px"
	 width="680.311px" height="941.101px" viewBox="0 0 680.311 941.101" enable-background="new 0 0 680.311 941.101"
	 xml:space="preserve">
<title>ui_btns_screenshot</title>
<path fill="#CCCCCC" d="M68.03,131h544.248c38.551,0,68.031,29.48,68.031,68.031v544.248c0,38.551-29.48,68.029-68.031,68.029H68.03
	C29.479,811.308,0,781.828,0,743.277V199.03C0,160.479,29.479,131,68.03,131z"/>
<g>
	<g>
		<path d="M135.346,333.287c0,16.694-9.158,31.28-27.47,43.758c15.232,8.592,22.852,21.07,22.852,37.437
			c0,16.045-9.967,28.363-29.901,36.951c-15.235,6.48-32.009,9.481-50.322,8.995c-9.078-0.327-13.613-4.941-13.613-13.856
			c0-1.781,0.402-3.563,1.215-5.348v-98.699c-3.89,0-7.213-1.458-9.967-4.375c-2.757-2.917-4.132-6.321-4.132-10.21
			c0-4.699,2.024-8.425,6.077-11.183c16.854-11.828,34.68-17.746,53.482-17.746c13.614,0,24.956,2.351,34.034,7.05
			C129.428,311.895,135.346,320.973,135.346,333.287z M107.147,334.989c0-5.348-7.863-8.022-23.581-8.022
			c-6.161,0-11.995,0.893-17.503,2.674v34.034c7.616-1.132,15.881-4.292,24.796-9.481
			C101.715,347.873,107.147,341.473,107.147,334.989z M102.771,414.482c0-6.807-4.376-11.912-13.127-15.315
			c-6.32-2.431-13.454-3.646-21.393-3.646h-2.188V431.5C90.532,427.937,102.771,422.262,102.771,414.482z"/>
		<path d="M237.203,363.675c0,3.73-1.337,6.97-4.011,9.724c-2.674,2.757-5.876,4.132-9.602,4.132c-5.675,0-9.808-3.24-12.398-9.724
			c-8.106,0.812-14.183,3.73-18.232,8.751c-1.622,2.917-3.16,5.834-4.619,8.751v63.692c0,4.053-1.337,7.373-4.011,9.967
			c-2.674,2.591-6.04,3.89-10.089,3.89c-4.053,0-7.376-1.299-9.967-3.89c-2.594-2.594-3.89-5.914-3.89-9.967v-75.118
			c-5.348-2.268-8.022-7.209-8.022-14.829c0-8.588,3.563-12.884,10.696-12.884c3.404,0,9.481,2.431,18.232,7.293
			c11.02-8.911,20.744-13.37,29.172-13.37c7.938,0,15.152,3.81,21.636,11.426C235.501,355.573,237.203,359.625,237.203,363.675z"/>
		<path d="M296.032,306.303c0,4.539-1.58,8.387-4.741,11.547c-3.16,3.16-7.012,4.74-11.547,4.74c-4.539,0-8.387-1.58-11.547-4.74
			c-3.16-3.161-4.74-7.008-4.74-11.547c0-4.535,1.58-8.387,4.74-11.547c3.16-3.16,7.008-4.74,11.547-4.74
			c4.535,0,8.387,1.58,11.547,4.74C294.452,297.917,296.032,301.768,296.032,306.303z M295.789,436.604
			c-0.163,6.161-3.081,12.155-8.751,17.99c-4.703,4.535-9.321,6.807-13.857,6.807c-5.188,0-7.779-3.001-7.779-8.995v-89.704
			c0-5.185,2.188-10.168,6.564-14.95c4.376-4.779,9.074-7.172,14.1-7.172c4.862-0.972,8.102,1.136,9.724,6.321
			C296.276,377.531,296.276,407.433,295.789,436.604z"/>
		<path d="M424.386,445.356c0,2.757-0.729,8.672-2.188,17.746c-0.973,5.994-6.32,12.641-16.045,19.934
			c-10.695,8.102-21.879,12.154-33.547,12.154c-17.018,0-31.523-9.156-43.515-27.469c-1.622-2.431-2.431-5.025-2.431-7.779
			c0-3.89,1.458-7.209,4.375-9.967c2.918-2.754,6.321-4.133,10.211-4.133c4.861,0,8.668,2.188,11.426,6.564
			c6.156,9.397,13.529,14.1,22.121,14.1c4.535,0,9.238-1.379,14.1-4.133c3.891-2.108,5.834-3.487,5.834-4.132
			c1.133-6.644,1.703-11.342,1.703-14.1v-17.989c-8.594,4.216-17.102,6.321-25.525,6.321c-7.457,0-14.344-1.782-20.664-5.348
			c-18.153-10.37-27.228-26.092-27.228-47.162c0-12.964,3.726-24.146,11.183-33.548c8.101-10.21,18.476-15.315,31.117-15.315
			c10.209,0,20.906,3.566,32.088,10.696c2.105-5.834,6.48-8.751,13.129-8.751c4.211,0,7.574,1.257,10.088,3.768
			c2.512,2.515,3.768,5.876,3.768,10.089V445.356z M396.431,392.847l-0.973-19.691c-10.051-9.561-18.883-14.343-26.498-14.343
			c-5.348,0-9.48,2.271-12.398,6.807c-2.758,3.89-4.133,8.592-4.133,14.1c0,6.321,1.619,11.589,4.861,15.802
			c3.727,4.862,8.59,7.293,14.586,7.293C379.169,402.814,387.353,399.494,396.431,392.847z"/>
		<path d="M557.118,386.04c1.133,24.15-1.541,45.946-8.021,65.394c-1.945,6.157-6.162,9.238-12.641,9.238
			c-3.891,0-7.256-1.299-10.09-3.89c-2.838-2.59-4.254-5.671-4.254-9.238c0-1.618,0.244-3.646,0.729-6.077
			c4.699-17.663,6.645-36.465,5.836-56.399c-0.328-11.828-4.783-17.746-13.371-17.746c-7.943,0-19.045,13.856-33.305,41.57v31.846
			c0,4.216-1.299,7.578-3.889,10.089c-2.596,2.515-5.998,3.768-10.211,3.768c-4.053,0-7.377-1.295-9.967-3.89
			c-2.596-2.591-3.891-5.914-3.891-9.967V299.74c0-5.185,1.904-9.804,5.713-13.857c3.807-4.049,8.225-6.078,13.25-6.078
			c5.994,0,8.994,3.404,8.994,10.21v75.118c12.479-15.718,24.633-23.581,36.465-23.581c10.533,0,19.691,4.945,27.471,14.829
			C553.066,365.46,556.792,375.344,557.118,386.04z"/>
		<path d="M656.302,362.216c0,6.161-3.08,10.374-9.236,12.641l-19.205,7.293v70.742c0,4.049-1.338,7.415-4.012,10.088
			c-2.674,2.674-6.039,4.011-10.088,4.011c-4.053,0-7.377-1.337-9.967-4.011c-2.596-2.674-3.891-6.04-3.891-10.088v-60.046
			l-3.889,1.458c-2.271,0.813-4.133,1.216-5.592,1.216c-3.891,0-7.092-1.459-9.604-4.376c-2.514-2.917-3.768-6.321-3.768-10.21
			c0-6.157,2.998-10.37,8.994-12.642l13.857-5.348v-39.868c0-4.862,1.74-9.116,5.227-12.763c3.482-3.646,7.658-5.47,12.52-5.47
			c6.807,0,10.211,3.646,10.211,10.939v36.465l9.236-3.646c1.619-0.646,3.484-0.972,5.592-0.972c3.891,0,7.131,1.458,9.725,4.375
			C655.003,354.923,656.302,358.327,656.302,362.216z"/>
	</g>
	<g>
		<path d="M330.799,643.298c0,4.053-1.338,7.414-4.012,10.088s-6.04,4.012-10.088,4.012c-4.053,0-7.377-1.338-9.967-4.012
			c-2.594-2.674-3.89-6.035-3.89-10.088v-59.074c0-5.834-3-8.752-8.995-8.752c-7.62-0.158-13.697,3.891-18.232,12.156
			c-3.73,6.971-5.591,14.586-5.591,22.852l0.243,31.359c0,4.217-1.299,7.578-3.89,10.088c-2.594,2.516-5.998,3.77-10.21,3.77
			c-4.216,0-7.62-1.254-10.21-3.77c-2.594-2.51-3.89-5.871-3.89-10.088v-80.953c0-4.049,1.295-7.371,3.89-9.967
			c2.59-2.59,5.914-3.889,9.967-3.889c4.212,0,7.616,1.258,10.21,3.768c2.59,2.516,3.89,5.877,3.89,10.088v3.162
			c10.047-11.02,21.066-16.531,33.062-16.531c9.561,0,16.774,3.889,21.636,11.668c4.049,6.648,6.078,14.992,6.078,25.039V643.298z"
			/>
		<path d="M451.863,562.103c0,6.969-1.865,13.939-5.592,20.906c-4.053,7.619-10.617,14.465-19.691,20.541
			c-9.078,6.078-18.232,9.688-27.471,10.818c-4.701,0.65-8.186,0.326-10.453-0.973c2.918,11.023,8.023,16.531,15.316,16.531
			c6.48,0,14.18-3.969,23.094-11.912c2.754-2.43,5.834-3.646,9.238-3.646c3.076,0,5.955,1.379,8.631,4.133
			c2.674,2.758,4.01,5.998,4.01,9.725c0,3.889-1.621,7.293-4.861,10.209c-13.127,11.67-25.932,17.504-38.41,17.504
			c-13.613,0-24.797-6.32-33.547-18.961c-7.779-11.344-11.67-24.146-11.67-38.41c0-12.801,3.24-24.471,9.725-35.006
			c5.186-8.59,12.721-15.961,22.607-22.123c9.885-6.156,19.691-9.238,29.416-9.238c8.91,0,16.082,2.758,21.514,8.266
			C449.146,545.978,451.863,553.191,451.863,562.103z M427.796,564.291c0-3.404-2.596-5.105-7.779-5.105
			c-2.758,0-5.105,0.406-7.051,1.215c-14.426,6.322-22.691,15.803-24.797,28.443c1.297,0.973,3.484,1.865,6.564,2.674
			c7.779-0.645,14.502-2.754,20.178-6.32c3.727-2.268,6.887-5.67,9.48-10.209C426.659,570.937,427.796,567.371,427.796,564.291z"/>
		<path d="M551.531,627.009c0,11.67-4.459,20.99-13.371,27.957c-6.484,5.021-13.939,7.537-22.365,7.537
			c-3.889,0-8.021-0.57-12.398-1.703c-11.832-2.916-22.607-9.803-32.332-20.662c-2.107-2.432-3.16-5.428-3.16-8.996
			c0-7.451,3.646-11.668,10.939-12.641c5.994-0.809,11.992,2.838,17.99,10.939c3.889,5.348,9.396,8.023,16.529,8.023
			c7.131,0,11.184-2.754,12.156-8.266c0.809-5.35-3.16-11.264-11.912-17.746c-0.812-0.646-7.457-4.779-19.934-12.398
			c-15.559-9.398-23.338-19.852-23.338-31.359c0-10.211,4.213-18.557,12.641-25.041c7.779-5.992,16.934-8.994,27.471-8.994
			c10.209,0,20.178,2.838,29.9,8.508c4.535,2.596,6.807,6.564,6.807,11.912c0,7.943-4.215,11.912-12.641,11.912
			c-1.299,0-5.066-1.254-11.305-3.768c-6.24-2.512-11.631-3.768-16.166-3.768c-6.646,0-9.967,3.08-9.967,9.238
			c0,5.834,6.48,11.424,19.447,16.773C539.861,593.869,551.531,608.048,551.531,627.009z"/>
		<path d="M653.872,627.009c0,11.67-4.459,20.99-13.371,27.957c-6.484,5.021-13.939,7.537-22.365,7.537
			c-3.889,0-8.021-0.57-12.398-1.703c-11.832-2.916-22.607-9.803-32.332-20.662c-2.107-2.432-3.16-5.428-3.16-8.996
			c0-7.451,3.646-11.668,10.939-12.641c5.994-0.809,11.992,2.838,17.99,10.939c3.889,5.348,9.396,8.023,16.529,8.023
			c7.131,0,11.184-2.754,12.156-8.266c0.809-5.35-3.16-11.264-11.912-17.746c-0.812-0.646-7.457-4.779-19.934-12.398
			c-15.559-9.398-23.338-19.852-23.338-31.359c0-10.211,4.213-18.557,12.641-25.041c7.779-5.992,16.934-8.994,27.471-8.994
			c10.209,0,20.178,2.838,29.9,8.508c4.535,2.596,6.807,6.564,6.807,11.912c0,7.943-4.215,11.912-12.641,11.912
			c-1.299,0-5.066-1.254-11.305-3.768c-6.24-2.512-11.631-3.768-16.166-3.768c-6.646,0-9.967,3.08-9.967,9.238
			c0,5.834,6.48,11.424,19.447,16.773C642.202,593.869,653.872,608.048,653.872,627.009z"/>
	</g>
</g>
</svg>
