<?xml version="1.0" encoding="utf-8"?>
<!-- Generator: Adobe Illustrator 16.0.4, SVG Export Plug-In . SVG Version: 6.00 Build 0)  -->
<!DOCTYPE svg PUBLIC "-//W3C//DTD SVG 1.0//EN" "http://www.w3.org/TR/2001/REC-SVG-20010904/DTD/svg10.dtd">
<svg version="1.0" id="Layer_1" xmlns="http://www.w3.org/2000/svg" xmlns:xlink="http://www.w3.org/1999/xlink" x="0px" y="0px"
	 width="680.311px" height="941.101px" viewBox="0 0 680.311 941.101" enable-background="new 0 0 680.311 941.101"
	 xml:space="preserve">
<title>ui_btns_minify</title>
<path fill="#CCCCCC" d="M68.031,130.396h544.248c38.551,0,68.031,29.48,68.031,68.031v544.247c0,38.551-29.48,68.031-68.031,68.031
	H68.031C29.48,810.705,0,781.224,0,742.673V198.426C0,159.875,29.48,130.396,68.031,130.396z"/>
<path d="M539.99,583.963c0,18.516-12.346,30.86-30.862,30.86c-9.261,0-15.433-3.086-21.604-9.258l-83.329-83.33
	c-27.777,21.605-61.725,30.864-95.674,30.864c-21.604,0-46.294-3.087-64.812-12.345c-40.12-15.431-74.07-49.38-89.501-89.501
	c-18.516-43.208-18.516-89.5,0-132.708c15.432-40.121,49.38-74.07,89.501-89.5c43.208-18.518,89.501-18.518,132.708,0
	c40.121,15.43,74.069,49.379,89.502,89.5c9.259,21.604,12.344,43.208,12.344,64.811c0,33.948-9.259,67.897-30.862,95.675
	l83.329,83.326C536.904,568.53,539.99,574.705,539.99,583.963z M385.679,460.512c43.208-43.208,43.208-111.103,0-151.225l0,0
	c-43.207-43.208-111.105-43.208-151.225,0l0,0c-43.208,43.208-43.208,111.103,0,151.225l0,0
	C274.574,500.634,342.472,500.634,385.679,460.512L385.679,460.512z M385.679,374.099v15.43c0,3.086-3.087,6.173-6.172,6.173
	H240.626c-3.087,0-6.172-3.087-6.172-6.173v-15.43c0-3.089,3.086-6.174,6.172-6.174h138.881
	C382.592,367.925,385.679,371.012,385.679,374.099z"/>
<g enable-background="new    ">
	<path d="M39.577,710.028l40.536-48.503h-34.83c-2.441,0-4.279-0.538-5.518-1.614c-1.237-1.077-1.858-2.495-1.858-4.254
		c0-1.83,0.621-3.311,1.858-4.44c1.238-1.131,3.077-1.698,5.518-1.698H90.18c5.813,0,8.721,2.713,8.721,8.132
		c0,2.582-0.484,4.648-1.453,6.189c-0.969,1.543-2.925,4.038-5.867,7.483l-37.899,45.112h41.774c2.477,0,4.325,0.511,5.545,1.533
		c1.219,1.023,1.83,2.452,1.83,4.28c0,1.903-0.61,3.41-1.83,4.522c-1.22,1.112-3.069,1.67-5.545,1.67h-51.25
		c-3.482,0-6.103-0.781-7.86-2.341c-1.758-1.562-2.637-3.652-2.637-6.273c0-0.895,0.143-1.72,0.431-2.477
		c0.286-0.752,0.672-1.46,1.157-2.125c0.484-0.665,1.158-1.509,2.02-2.531C38.177,711.671,38.93,710.785,39.577,710.028z"/>
	<path d="M147.621,648.176c8.182,0,15.208,1.659,21.075,4.978c5.868,3.32,10.309,8.04,13.324,14.158
		c3.015,6.121,4.522,13.307,4.522,21.561c0,6.103-0.825,11.647-2.476,16.635c-1.651,4.99-4.127,9.313-7.43,12.974
		c-3.302,3.662-7.357,6.46-12.166,8.397c-4.81,1.938-10.318,2.908-16.527,2.908c-6.173,0-11.701-0.996-16.581-2.987
		c-4.881-1.992-8.956-4.801-12.221-8.426c-3.266-3.624-5.733-7.983-7.402-13.081c-1.668-5.096-2.502-10.604-2.502-16.527
		c0-6.064,0.87-11.627,2.611-16.688c1.739-5.06,4.261-9.366,7.563-12.918c3.301-3.553,7.322-6.271,12.059-8.156
		C136.207,649.116,141.592,648.176,147.621,648.176z M170.338,688.765c0-5.779-0.932-10.783-2.798-15.02
		c-1.867-4.235-4.532-7.439-7.995-9.609c-3.463-2.172-7.438-3.258-11.924-3.258c-3.195,0-6.146,0.603-8.856,1.804
		c-2.709,1.204-5.043,2.953-6.998,5.248c-1.956,2.298-3.5,5.232-4.63,8.803c-1.131,3.571-1.696,7.583-1.696,12.032
		c0,4.487,0.565,8.542,1.696,12.168c1.13,3.623,2.727,6.631,4.792,9.016c2.063,2.387,4.432,4.173,7.105,5.355
		c2.673,1.186,5.607,1.777,8.803,1.777c4.091,0,7.851-1.022,11.278-3.068c3.427-2.045,6.154-5.203,8.181-9.474
		C169.324,700.268,170.338,695.009,170.338,688.765z"/>
	<path d="M234.938,648.176c8.184,0,15.209,1.659,21.076,4.978c5.869,3.32,10.31,8.04,13.323,14.158
		c3.016,6.121,4.523,13.307,4.523,21.561c0,6.103-0.826,11.647-2.476,16.635c-1.651,4.99-4.129,9.313-7.43,12.974
		c-3.302,3.662-7.357,6.46-12.166,8.397c-4.81,1.938-10.319,2.908-16.528,2.908c-6.173,0-11.701-0.996-16.58-2.987
		c-4.881-1.992-8.956-4.801-12.221-8.426c-3.266-3.624-5.733-7.983-7.403-13.081c-1.668-5.096-2.502-10.604-2.502-16.527
		c0-6.064,0.869-11.627,2.611-16.688c1.74-5.06,4.261-9.366,7.563-12.918c3.301-3.553,7.322-6.271,12.059-8.156
		C223.526,649.116,228.909,648.176,234.938,648.176z M257.655,688.765c0-5.779-0.932-10.783-2.798-15.02
		c-1.867-4.235-4.533-7.439-7.996-9.609c-3.464-2.172-7.438-3.258-11.925-3.258c-3.193,0-6.145,0.603-8.855,1.804
		c-2.709,1.204-5.042,2.953-6.998,5.248c-1.956,2.298-3.499,5.232-4.63,8.803c-1.13,3.571-1.696,7.583-1.696,12.032
		c0,4.487,0.565,8.542,1.696,12.168c1.131,3.623,2.727,6.631,4.792,9.016c2.062,2.387,4.432,4.173,7.104,5.355
		c2.674,1.186,5.608,1.777,8.803,1.777c4.092,0,7.851-1.022,11.278-3.068c3.428-2.045,6.155-5.203,8.183-9.474
		C256.641,700.268,257.655,695.009,257.655,688.765z"/>
	<path d="M314.18,716.543l-12.652-50.28v54.479c0,3.016-0.672,5.275-2.018,6.784c-1.345,1.506-3.131,2.261-5.356,2.261
		c-2.153,0-3.914-0.744-5.276-2.234c-1.365-1.489-2.045-3.758-2.045-6.811v-62.445c0-3.446,0.896-5.769,2.691-6.971
		c1.793-1.201,4.216-1.804,7.266-1.804h4.952c2.979,0,5.142,0.271,6.488,0.808c1.345,0.539,2.341,1.507,2.988,2.907
		c0.646,1.399,1.38,3.679,2.207,6.837l11.466,43.228l11.467-43.228c0.824-3.158,1.561-5.438,2.207-6.837
		c0.646-1.4,1.642-2.368,2.988-2.907c1.346-0.539,3.506-0.808,6.486-0.808h4.953c3.049,0,5.473,0.603,7.266,1.804
		c1.795,1.202,2.693,3.526,2.693,6.971v62.445c0,3.016-0.674,5.277-2.02,6.786c-1.346,1.507-3.148,2.261-5.41,2.261
		c-2.117,0-3.857-0.754-5.221-2.261c-1.365-1.509-2.047-3.771-2.047-6.786v-54.477l-12.65,50.28c-0.826,3.266-1.5,5.66-2.02,7.186
		c-0.521,1.525-1.479,2.916-2.88,4.173c-1.4,1.255-3.338,1.885-5.813,1.885c-1.867,0-3.447-0.404-4.738-1.212
		c-1.292-0.808-2.298-1.838-3.016-3.095s-1.283-2.647-1.696-4.175C315.033,719.783,314.612,718.194,314.18,716.543z"/>
	<path d="M397.677,706.262h-17.012c-2.584,0-4.549-0.602-5.895-1.804s-2.02-2.755-2.02-4.656c0-1.938,0.654-3.508,1.967-4.712
		c1.309-1.201,3.291-1.801,5.949-1.801h17.01c2.656,0,4.639,0.6,5.949,1.801c1.311,1.204,1.965,2.773,1.965,4.712
		c0,1.901-0.646,3.452-1.938,4.656C402.361,705.661,400.368,706.262,397.677,706.262z"/>
	<path d="M450.81,648.176c8.182,0,15.207,1.659,21.076,4.978c5.867,3.32,10.309,8.04,13.324,14.158
		c3.016,6.121,4.521,13.307,4.521,21.561c0,6.103-0.826,11.647-2.475,16.635c-1.652,4.99-4.129,9.313-7.432,12.974
		c-3.301,3.662-7.355,6.46-12.166,8.397c-4.809,1.938-10.318,2.908-16.527,2.908c-6.172,0-11.699-0.996-16.58-2.987
		c-4.883-1.992-8.955-4.801-12.221-8.426c-3.266-3.624-5.732-7.983-7.4-13.081c-1.67-5.096-2.504-10.604-2.504-16.527
		c0-6.064,0.871-11.627,2.611-16.688c1.74-5.06,4.262-9.366,7.564-12.918c3.301-3.553,7.32-6.271,12.057-8.156
		C439.398,649.116,444.781,648.176,450.81,648.176z M473.529,688.765c0-5.779-0.934-10.783-2.801-15.02
		c-1.865-4.235-4.531-7.439-7.994-9.609c-3.463-2.172-7.438-3.258-11.924-3.258c-3.193,0-6.145,0.603-8.855,1.804
		c-2.711,1.204-5.043,2.953-6.998,5.248c-1.957,2.298-3.5,5.232-4.631,8.803c-1.131,3.571-1.695,7.583-1.695,12.032
		c0,4.487,0.564,8.542,1.695,12.168c1.131,3.623,2.727,6.631,4.793,9.016c2.062,2.387,4.432,4.173,7.105,5.355
		c2.672,1.186,5.607,1.777,8.803,1.777c4.09,0,7.85-1.022,11.277-3.068c3.426-2.045,6.154-5.203,8.182-9.474
		C472.513,700.268,473.529,695.009,473.529,688.765z"/>
	<path d="M503.515,695.819v-37.953c0-3.231,0.725-5.653,2.18-7.268c1.453-1.614,3.363-2.422,5.732-2.422
		c2.477,0,4.441,0.808,5.895,2.422c1.453,1.616,2.182,4.038,2.182,7.268v38.813c0,4.414,0.492,8.101,1.48,11.063
		c0.986,2.96,2.736,5.258,5.248,6.891c2.512,1.631,6.029,2.448,10.553,2.448c6.244,0,10.656-1.659,13.242-4.979
		c2.582-3.318,3.877-8.352,3.877-15.1v-39.137c0-3.267,0.717-5.698,2.152-7.294c1.436-1.597,3.355-2.396,5.762-2.396
		c2.402,0,4.352,0.799,5.84,2.396c1.488,1.596,2.234,4.027,2.234,7.294v37.953c0,6.173-0.602,11.321-1.805,15.449
		s-3.471,7.752-6.809,10.875c-2.871,2.655-6.209,4.594-10.014,5.813c-3.803,1.22-8.256,1.83-13.35,1.83
		c-6.066,0-11.289-0.655-15.666-1.964c-4.379-1.312-7.949-3.339-10.713-6.084c-2.764-2.747-4.791-6.264-6.084-10.552
		C504.161,706.899,503.515,701.775,503.515,695.819z"/>
	<path d="M638.421,662.71h-17.443v57.332c0,3.303-0.736,5.75-2.207,7.349c-1.473,1.597-3.373,2.396-5.707,2.396
		c-2.367,0-4.297-0.808-5.787-2.422s-2.234-4.057-2.234-7.322V662.71h-17.441c-2.729,0-4.756-0.6-6.084-1.804
		c-1.328-1.201-1.992-2.789-1.992-4.764c0-2.046,0.691-3.66,2.072-4.844c1.381-1.186,3.383-1.777,6.004-1.777h50.818
		c2.762,0,4.818,0.612,6.162,1.832c1.348,1.221,2.02,2.816,2.02,4.791s-0.682,3.562-2.045,4.765
		C643.193,662.109,641.146,662.71,638.421,662.71z"/>
</g>
</svg>
