<?xml version="1.0" encoding="utf-8"?>
<!-- Generator: Adobe Illustrator 16.0.4, SVG Export Plug-In . SVG Version: 6.00 Build 0)  -->
<!DOCTYPE svg PUBLIC "-//W3C//DTD SVG 1.1//EN" "http://www.w3.org/Graphics/SVG/1.1/DTD/svg11.dtd">
<svg version="1.1" id="Layer_1" xmlns="http://www.w3.org/2000/svg" xmlns:xlink="http://www.w3.org/1999/xlink" x="0px" y="0px"
	 width="680.311px" height="941.101px" viewBox="0 0 680.311 941.101" enable-background="new 0 0 680.311 941.101"
	 xml:space="preserve">
<title>ui_btns_measure_active</title>
<path fill="#E1378D" d="M340.155,130.396L340.155,130.396c187.862,0,340.155,152.292,340.155,340.154l0,0
	c0,187.862-152.293,340.155-340.155,340.155l0,0C152.293,810.705,0,658.412,0,470.55l0,0C0,282.688,152.293,130.396,340.155,130.396
	z"/>
<path fill="#FFFFFF" stroke="#FFFFFF" stroke-miterlimit="10" d="M453.54,532.613v-45.355h-68.031v-22.676h68.031v-45.355H340.155
	V396.55H453.54v-45.354h-68.031v-22.677h68.031v-45.354H340.155v-22.677H453.54v-22.677c0-12.524-10.152-22.677-22.677-22.677
	H249.447c-12.524,0-22.677,10.153-22.677,22.677v340.155c0,12.523,10.152,22.676,22.677,22.676h181.416
	c12.524,0,22.677-10.152,22.677-22.676v-22.678H340.155v-22.676H453.54z"/>
<g enable-background="new    ">
	<path fill="#FFFFFF" stroke="#040000" stroke-width="1.0619" stroke-miterlimit="10" d="M216.86,693.666
		c0,4.961-2.271,7.914-6.806,8.863c0.737,5.065,1.266,10.817,1.583,17.253c0.104,2.745-0.688,5.037-2.375,6.885
		c-1.689,1.845-3.905,2.77-6.647,2.77c-5.698,0-8.706-2.876-9.022-8.626s-0.95-11.737-1.899-17.965l-25.325,0.158
		c-2.745,0-4.961-0.815-6.648-2.453c-1.689-1.635-2.532-3.823-2.532-6.568c0-2.637,0.871-4.801,2.612-6.489
		c1.741-1.687,3.93-2.533,6.568-2.533l21.526-0.316c-4.538-16.881-10.604-29.967-18.202-39.253
		c-3.798,6.86-7.439,18.993-10.921,36.404c-2.745,13.824-4.486,25.221-5.223,34.188c-0.423,5.594-3.378,8.389-8.863,8.389
		c-2.956,0-5.278-0.95-6.964-2.849c-1.689-1.899-2.429-4.274-2.216-7.123c1.16-13.822,3.27-27.645,6.332-41.47
		c4.325-19.31,9.39-33.08,15.195-41.311c-0.423-2.742,0.289-5.248,2.137-7.519c1.845-2.268,4.14-3.402,6.885-3.402
		c1.899,0,3.586,0.475,5.065,1.424c16.145,10.13,27.961,30.972,35.455,62.521h1.266c2.743,0,4.931,0.819,6.568,2.453
		C216.041,688.734,216.86,690.922,216.86,693.666z"/>
	<path fill="#FFFFFF" stroke="#040000" stroke-width="1.0619" stroke-miterlimit="10" d="M284.443,665.966
		c0,2.532-0.95,4.724-2.849,6.568c-1.899,1.848-4.115,2.771-6.648,2.771c-2.639,0-4.907-1.16-6.806-3.482
		c-2.639-3.27-5.382-4.906-8.231-4.906c-4.748,0-8.653,3.64-11.712,10.921c-2.429,5.805-3.641,11.45-3.641,16.936
		c0,7.914,2.268,12.717,6.806,14.403c1.687,0.634,3.27,0.95,4.749,0.95c3.166,0,5.908-1.528,8.23-4.59
		c1.899-2.533,4.219-3.799,6.964-3.799c2.426,0,4.615,0.925,6.568,2.77c1.951,1.848,2.928,3.984,2.928,6.41
		c0,1.899-0.688,3.747-2.058,5.54c-6.331,8.124-13.718,12.188-22.159,12.188c-8.97,0-16.461-3.799-22.476-11.396
		c-5.594-7.174-8.389-15.353-8.389-24.533c0-8.967,2.636-17.886,7.914-26.749c6.752-11.396,15.195-17.094,25.325-17.094
		c4.749,0,9.972,1.637,15.67,4.906C281.171,657.474,284.443,661.535,284.443,665.966z"/>
	<path fill="#FFFFFF" stroke="#040000" stroke-width="1.0619" stroke-miterlimit="10" d="M350.286,663.592
		c0,4.012-2.006,6.754-6.014,8.23l-12.504,4.748v46.06c0,2.637-0.871,4.827-2.612,6.568c-1.741,1.741-3.932,2.612-6.568,2.612
		c-2.639,0-4.803-0.871-6.489-2.612c-1.689-1.741-2.533-3.932-2.533-6.568v-39.095l-2.532,0.949
		c-1.479,0.529-2.691,0.792-3.641,0.792c-2.533,0-4.617-0.95-6.252-2.85c-1.637-1.899-2.454-4.115-2.454-6.647
		c0-4.009,1.952-6.752,5.856-8.23l9.022-3.482v-25.958c0-3.165,1.133-5.936,3.403-8.31c2.268-2.374,4.986-3.562,8.151-3.562
		c4.432,0,6.648,2.375,6.648,7.123v23.742l6.014-2.375c1.055-0.42,2.268-0.633,3.641-0.633c2.533,0,4.643,0.95,6.332,2.85
		C349.44,658.844,350.286,661.06,350.286,663.592z"/>
	<path fill="#FFFFFF" stroke="#040000" stroke-width="1.0619" stroke-miterlimit="10" d="M390.172,627.188
		c0,2.955-1.028,5.461-3.086,7.519s-4.565,3.086-7.519,3.086c-2.955,0-5.461-1.028-7.519-3.086s-3.086-4.563-3.086-7.519
		c0-2.953,1.028-5.461,3.086-7.519s4.563-3.086,7.519-3.086c2.953,0,5.461,1.028,7.519,3.086S390.172,624.235,390.172,627.188z
		 M390.013,712.026c-0.106,4.011-2.006,7.914-5.698,11.713c-3.062,2.952-6.068,4.432-9.021,4.432c-3.378,0-5.065-1.954-5.065-5.856
		v-58.405c0-3.376,1.425-6.62,4.274-9.734c2.849-3.111,5.908-4.669,9.18-4.669c3.166-0.633,5.275,0.739,6.331,4.115
		C390.33,673.564,390.33,693.032,390.013,712.026z"/>
	<path fill="#FFFFFF" stroke="#040000" stroke-width="1.0619" stroke-miterlimit="10" d="M469.627,660.584
		c0,0.74-0.158,1.531-0.476,2.375c-7.914,25.324-15.986,45.322-24.217,59.987c-2.429,4.22-5.381,6.173-8.863,5.856
		c-3.589-0.213-6.173-2.69-7.756-7.439c-6.647-19.52-14.193-37.037-22.634-52.549c-0.949-1.687-1.373-3.375-1.267-5.064
		c0.211-2.532,1.318-4.615,3.324-6.252c2.003-1.635,4.273-2.347,6.806-2.137c2.953,0.213,5.275,1.795,6.965,4.748
		c5.169,9.497,10.656,21.21,16.461,35.139c5.275-12.45,9.865-25.009,13.771-37.671c1.477-4.643,4.535-6.806,9.18-6.489
		c2.637,0.212,4.801,1.214,6.489,3.007C469.097,655.891,469.837,658.052,469.627,660.584z"/>
	<path fill="#FFFFFF" stroke="#040000" stroke-width="1.0619" stroke-miterlimit="10" d="M545.599,664.383
		c0,4.538-1.214,9.076-3.641,13.612c-2.639,4.961-6.912,9.418-12.82,13.375c-5.91,3.957-11.871,6.306-17.886,7.043
		c-3.062,0.423-5.329,0.213-6.806-0.633c1.899,7.177,5.224,10.763,9.972,10.763c4.219,0,9.232-2.584,15.036-7.756
		c1.793-1.583,3.799-2.374,6.015-2.374c2.004,0,3.878,0.897,5.619,2.69c1.741,1.796,2.611,3.905,2.611,6.332
		c0,2.532-1.056,4.748-3.165,6.647c-8.547,7.598-16.884,11.396-25.009,11.396c-8.863,0-16.145-4.115-21.842-12.346
		c-5.065-7.385-7.598-15.722-7.598-25.008c0-8.334,2.109-15.932,6.331-22.792c3.376-5.592,8.282-10.393,14.72-14.403
		c6.436-4.01,12.821-6.015,19.152-6.015c5.802,0,10.471,1.795,14.008,5.381C543.832,653.885,545.599,658.582,545.599,664.383z
		 M529.93,665.808c0-2.216-1.689-3.324-5.065-3.324c-1.796,0-3.324,0.265-4.59,0.792c-9.394,4.115-14.774,10.288-16.145,18.519
		c0.843,0.633,2.268,1.214,4.273,1.741c5.064-0.421,9.442-1.793,13.137-4.115c2.427-1.477,4.484-3.692,6.173-6.648
		C529.19,670.136,529.93,667.814,529.93,665.808z"/>
</g>
</svg>
