<?xml version="1.0" encoding="utf-8"?>
<!-- Generator: Adobe Illustrator 16.0.4, SVG Export Plug-In . SVG Version: 6.00 Build 0)  -->
<!DOCTYPE svg PUBLIC "-//W3C//DTD SVG 1.0//EN" "http://www.w3.org/TR/2001/REC-SVG-20010904/DTD/svg10.dtd">
<svg version="1.0" id="Layer_1" xmlns="http://www.w3.org/2000/svg" xmlns:xlink="http://www.w3.org/1999/xlink" x="0px" y="0px"
	 width="680.311px" height="941.101px" viewBox="0 0 680.311 941.101" enable-background="new 0 0 680.311 941.101"
	 xml:space="preserve">
<title>ui_btns_input</title>
<path fill="#CCCCCC" d="M68.031,130.396h544.248c38.551,0,68.031,29.48,68.031,68.031v544.247c0,38.551-29.48,68.031-68.031,68.031
	H68.031C29.48,810.705,0,781.224,0,742.673V198.426C0,159.875,29.48,130.396,68.031,130.396z"/>
<path d="M304.26,582.918c0,0,0,3.264,0,6.526s0,3.263,0,6.526c0,3.263,0,3.263,0,6.526c0,3.263,0,3.263-3.265,3.263
	c0,0-3.264,3.263-6.524,0h-81.583c-39.158,0-75.053-32.634-75.053-71.79l0,0V354.491c0-39.158,32.633-71.79,71.792-71.79h81.58
	c3.266,0,6.527,3.263,6.527,6.525c0,0,0,3.264,0,6.528c0,3.264,0,3.264,0,6.526s0,3.264,0,6.527c0,3.264,0,3.264-3.263,3.264
	c0,0-3.267,3.264-6.528,3.264h-81.581c-22.843,0-42.419,16.315-42.419,39.158l0,0v179.48c0,22.841,19.577,39.156,39.158,39.156
	h81.581h3.263h3.263c0,0,0,0,3.266,3.264C304.26,579.656,304.26,579.656,304.26,582.918z M542.476,445.862
	c0,3.263-3.266,9.789-3.266,13.052L402.157,595.971c-6.525,6.526-16.318,6.526-22.842,0c-3.266-3.264-3.266-6.526-3.266-9.789
	v-71.793H255.312c-9.791,0-16.316-6.526-16.316-16.315v-97.898c0-9.791,6.526-16.316,16.316-16.316h114.213v-71.79
	c0-9.789,6.525-16.315,16.314-16.315c3.266,0,9.793,3.264,9.793,3.264l137.055,137.055
	C539.212,436.072,542.476,439.335,542.476,445.862z"/>
<g>
	<path fill="#040000" d="M483.67,264.643c0,5.033-2.305,8.028-6.904,8.992c0.747,5.138,1.284,10.974,1.604,17.502
		c0.105,2.785-0.696,5.11-2.407,6.984c-1.714,1.872-3.962,2.81-6.744,2.81c-5.78,0-8.831-2.918-9.152-8.751
		s-0.964-11.907-1.927-18.224l-25.69,0.161c-2.784,0-5.032-0.828-6.743-2.489c-1.715-1.659-2.569-3.879-2.569-6.664
		c0-2.674,0.884-4.87,2.648-6.583c1.768-1.711,3.986-2.569,6.664-2.569l21.837-0.321c-4.604-17.125-10.758-30.4-18.466-39.82
		c-3.854,6.959-7.546,19.268-11.079,36.93c-2.783,14.024-4.551,25.585-5.298,34.683c-0.43,5.675-3.428,8.51-8.992,8.51
		c-2.998,0-5.354-0.963-7.063-2.89c-1.714-1.927-2.464-4.335-2.248-7.226c1.177-14.021,3.316-28.044,6.423-42.068
		c4.388-19.589,9.525-33.559,15.414-41.908c-0.429-2.783,0.293-5.324,2.168-7.627c1.871-2.301,4.199-3.452,6.984-3.452
		c1.927,0,3.638,0.481,5.138,1.445c16.378,10.276,28.365,31.418,35.967,63.424h1.285c2.782,0,5.002,0.831,6.663,2.489
		C482.839,259.64,483.67,261.86,483.67,264.643z"/>
	<path fill="#040000" d="M562.345,289.209c0,2.355-0.858,4.255-2.569,5.7c-1.713,1.445-3.748,2.167-6.102,2.167
		c-3.319,0-7.28-2.729-11.882-8.189c-6.424,4.711-13.647,7.065-21.677,7.065c-9.312,0-16.434-3.317-21.354-9.955
		c-4.496-5.886-6.854-13.701-7.065-23.443c-0.321-11.666,3.023-21.167,10.035-28.5c7.01-7.331,16.298-10.999,27.858-10.999
		c2.781,0,5.46,0.269,8.027,0.803v-27.457c0-2.674,0.884-4.897,2.649-6.664c1.767-1.766,3.985-2.649,6.664-2.649
		c2.674,0,4.869,0.883,6.583,2.649c1.711,1.766,2.568,3.989,2.568,6.664v80.604C560.259,281.502,562.345,285.571,562.345,289.209z
		 M537.617,266.569V244.25c-1.07-0.426-2.087-1.124-3.051-2.087c-4.175-1.498-8.778-1.176-13.809,0.964
		c-3.428,1.5-6.103,4.042-8.028,7.626c-1.927,3.588-2.89,7.361-2.89,11.32c0,3.854,0.803,7.173,2.407,9.955
		c1.818,3.532,4.496,5.406,8.028,5.62c3.316,0.216,6.688-0.748,10.115-2.89c2.462-1.605,3.906-2.835,4.336-3.693
		C535.583,269.247,536.547,267.749,537.617,266.569z"/>
	<path fill="#040000" d="M642.629,289.209c0,2.355-0.858,4.255-2.569,5.7c-1.713,1.445-3.748,2.167-6.102,2.167
		c-3.319,0-7.28-2.729-11.883-8.189c-6.423,4.711-13.646,7.065-21.676,7.065c-9.312,0-16.434-3.317-21.354-9.955
		c-4.496-5.886-6.854-13.701-7.065-23.443c-0.321-11.666,3.023-21.167,10.035-28.5c7.01-7.331,16.298-10.999,27.857-10.999
		c2.782,0,5.461,0.269,8.028,0.803v-27.457c0-2.674,0.884-4.897,2.649-6.664c1.767-1.766,3.985-2.649,6.664-2.649
		c2.674,0,4.869,0.883,6.583,2.649c1.711,1.766,2.568,3.989,2.568,6.664v80.604C640.542,281.502,642.629,285.571,642.629,289.209z
		 M617.901,266.569V244.25c-1.071-0.426-2.087-1.124-3.051-2.087c-4.175-1.498-8.778-1.176-13.81,0.964
		c-3.427,1.5-6.102,4.042-8.027,7.626c-1.928,3.588-2.891,7.361-2.891,11.32c0,3.854,0.804,7.173,2.408,9.955
		c1.818,3.532,4.496,5.406,8.028,5.62c3.315,0.216,6.688-0.748,10.115-2.89c2.462-1.605,3.905-2.835,4.336-3.693
		C615.866,269.247,616.829,267.749,617.901,266.569z"/>
</g>
<g>
	<path fill="#040000" d="M130.67,745.501c0,8.159-9.435,14.341-28.302,18.548c-9.179,2.037-17.659,3.06-25.434,3.06
		c-3.188,0-5.832-1.053-7.936-3.154c-2.104-2.103-3.156-4.751-3.156-7.937c0-3.185,1.052-5.833,3.156-7.936
		c2.104-2.103,4.747-3.154,7.936-3.154h7.841v-75.344l-3.251,0.764c-1.022,0.259-2.105,0.384-3.251,0.384
		c-3.06,0-5.578-1.115-7.552-3.346c-1.978-2.228-2.965-4.876-2.965-7.936c0-5.48,2.741-8.923,8.223-10.326l37.48-9.753
		c1.019-0.255,2.037-0.383,3.06-0.383c3.186,0,5.767,1.213,7.746,3.633c1.976,2.424,2.964,5.229,2.964,8.415
		c0,5.61-2.744,8.988-8.223,10.133l-12.239,2.679v76.489c2.42-0.765,3.95-1.528,4.589-2.295c2.295-2.549,4.906-3.824,7.84-3.824
		c2.931,0,5.576,1.147,7.936,3.443C129.49,739.957,130.67,742.57,130.67,745.501z"/>
	<path fill="#040000" d="M263.955,747.604c0,3.188-1.022,5.834-3.061,7.936c-2.041,2.107-4.717,3.155-8.031,3.155
		c-3.188,0-5.802-1.048-7.84-3.155c-2.041-2.102-3.06-4.745-3.06-7.936v-52.776c0-5.355-2.423-8.034-7.267-8.034
		c-3.698,0-7.012,2.807-9.943,8.415c-2.423,4.718-3.633,9.179-3.633,13.386v34.422c0,3.188-1.021,5.831-3.06,7.938
		c-2.041,2.103-4.717,3.154-8.031,3.154c-3.189,0-5.802-1.052-7.841-3.154c-2.041-2.107-3.06-4.749-3.06-7.938v-37.481
		c0-3.06-1.435-6.054-4.304-8.988c-2.868-2.93-5.832-4.205-8.892-3.824c-2.04,0.259-4.016,1.437-5.929,3.538
		c-1.912,2.105-2.869,4.18-2.869,6.217v45.892c0,3.189-1.021,5.833-3.06,7.938c-2.04,2.104-4.717,3.157-8.031,3.157
		c-3.188,0-5.803-1.053-7.84-3.157c-2.04-2.105-3.06-4.746-3.06-7.938v-69.223c0-3.182,1.019-5.798,3.06-7.838
		c2.037-2.04,4.652-3.062,7.84-3.062c1.273,0,4.652,2.171,10.135,6.503c4.46-2.804,8.094-4.207,10.899-4.207
		c8.669,0,16.637,3.951,23.904,11.854c7.52-10.963,16.571-16.445,27.154-16.445c8.156,0,14.595,2.869,19.313,8.604
		c4.333,5.357,6.501,12.371,6.501,21.036v52.013H263.955z"/>
	<path fill="#040000" d="M363.773,704.197c0,14.408-5.482,25.814-16.444,34.229c-9.689,7.397-22.12,11.732-37.29,13.003v37.867
		c0,3.183-1.05,5.798-3.154,7.835c-2.104,2.04-4.751,3.062-7.936,3.062c-3.189,0-5.804-1.02-7.841-3.062
		c-2.041-2.039-3.06-4.652-3.06-7.835V673.793c0-3.185,0.986-5.831,2.964-7.936c1.975-2.104,4.559-3.154,7.744-3.154
		c5.738-0.128,9.305,2.423,10.71,7.647c6.884-5.48,13.831-8.222,20.845-8.222c9.942,0,18.164,4.656,24.668,13.96
		C360.84,684.501,363.773,693.871,363.773,704.197z M341.974,699.799c-0.131-3.568-1.275-6.818-3.443-9.753
		c-2.169-2.932-4.973-4.397-8.414-4.397c-6.376,0-13.07,5.159-20.079,15.488v28.107C331.964,727.082,342.61,717.267,341.974,699.799
		z"/>
	<path fill="#040000" d="M457.856,707.256c0,13.386-3.38,25.688-10.135,36.907c-7.777,13.003-17.975,19.505-30.596,19.505
		c-2.295,0-4.655-0.258-7.076-0.767c-9.179-1.912-16.128-6.946-20.844-15.107c-4.206-7.137-6.31-15.741-6.31-25.814
		c0-13.386,3.375-25.624,10.135-36.715c7.902-13.002,18.099-19.505,30.595-19.505c2.296,0,4.652,0.256,7.077,0.765
		c9.177,1.912,16.124,6.951,20.843,15.107C455.752,688.646,457.856,697.188,457.856,707.256z M436.057,708.213
		c0-3.826-0.767-7.775-2.295-11.857c-1.912-4.972-4.465-7.775-7.649-8.414c-4.719-1.018-9.244,1.658-13.576,8.03
		c-3.444,4.975-5.738,10.136-6.885,15.491c-0.639,3.06-0.956,6.247-0.956,9.562c0,3.824,0.766,7.775,2.296,11.855
		c1.911,4.972,4.46,7.777,7.648,8.414c3.185,0.639,6.693-0.764,10.517-4.207c4.843-4.333,8.156-10.77,9.944-19.314
		C435.737,714.713,436.057,711.529,436.057,708.213z"/>
	<path fill="#040000" d="M541.611,685.839c0,2.934-1.052,5.482-3.156,7.647c-2.104,2.17-4.622,3.253-7.554,3.253
		c-4.463,0-7.714-2.549-9.753-7.65c-6.377,0.639-11.155,2.934-14.343,6.883c-1.275,2.296-2.485,4.591-3.634,6.886v50.101
		c0,3.188-1.05,5.799-3.154,7.841c-2.104,2.037-4.751,3.06-7.936,3.06c-3.188,0-5.803-1.022-7.841-3.06
		c-2.04-2.042-3.06-4.653-3.06-7.841v-59.088c-4.206-1.784-6.31-5.671-6.31-11.665c0-6.755,2.803-10.136,8.413-10.136
		c2.678,0,7.459,1.912,14.343,5.738c8.669-7.011,16.318-10.517,22.948-10.517c6.244,0,11.919,2.997,17.018,8.988
		C540.271,679.464,541.611,682.654,541.611,685.839z"/>
	<path fill="#040000" d="M614.467,684.692c0,4.846-2.423,8.158-7.267,9.942l-15.106,5.738v55.646c0,3.186-1.051,5.834-3.154,7.938
		c-2.105,2.103-4.751,3.155-7.938,3.155c-3.188,0-5.801-1.053-7.839-3.155c-2.041-2.104-3.061-4.751-3.061-7.938V708.79
		l-3.061,1.146c-1.786,0.642-3.25,0.957-4.397,0.957c-3.06,0-5.58-1.147-7.554-3.443c-1.979-2.293-2.965-4.972-2.965-8.033
		c0-4.841,2.357-8.154,7.076-9.943l10.898-4.204v-31.362c0-3.824,1.369-7.169,4.112-10.038c2.741-2.869,6.023-4.303,9.848-4.303
		c5.356,0,8.032,2.866,8.032,8.604v28.682l7.267-2.867c1.271-0.508,2.74-0.767,4.399-0.767c3.059,0,5.607,1.15,7.648,3.445
		C613.445,678.956,614.467,681.632,614.467,684.692z"/>
</g>
</svg>
