<?xml version="1.0" encoding="utf-8"?>
<!-- Generator: Adobe Illustrator 16.0.4, SVG Export Plug-In . SVG Version: 6.00 Build 0)  -->
<!DOCTYPE svg PUBLIC "-//W3C//DTD SVG 1.0//EN" "http://www.w3.org/TR/2001/REC-SVG-20010904/DTD/svg10.dtd">
<svg version="1.0" id="Layer_1" xmlns="http://www.w3.org/2000/svg" xmlns:xlink="http://www.w3.org/1999/xlink" x="0px" y="0px"
	 width="680.311px" height="941.101px" viewBox="0 0 680.311 941.101" enable-background="new 0 0 680.311 941.101"
	 xml:space="preserve">
<title>ui_btns_trash</title>
<path fill="#CCCCCC" d="M68.031,130.396h544.248c38.551,0,68.031,29.48,68.031,68.031v544.247c0,38.551-29.48,68.031-68.031,68.031
	H68.031C29.48,810.705,0,781.224,0,742.673V198.426C0,159.875,29.48,130.396,68.031,130.396z"/>
<path d="M505.421,314.737v15.162c0,3.032-3.031,6.064-6.064,6.064l0,0h-24.258v224.4c0,12.129-3.035,24.258-12.131,33.354
	c-6.064,9.102-15.162,15.164-27.291,15.164H238.57c-9.098,0-21.227-6.062-27.292-15.164c-9.098-9.098-12.13-21.227-12.13-33.354
	v-224.4h-18.193c-3.032,0-6.064-3.032-6.064-6.064l0,0v-15.162c0-3.033,3.032-6.065,6.064-6.065l0,0h72.776l18.195-39.421
	c3.032-6.064,6.062-12.13,12.13-15.162c6.064-3.033,12.129-6.065,18.195-6.065h75.81c6.063,0,12.129,3.032,18.193,6.065
	c6.062,3.032,9.098,9.098,12.129,15.162l15.162,39.421h72.775C502.389,308.671,505.421,311.704,505.421,314.737L505.421,314.737z
	 M444.772,563.394V338.996H232.504v224.398c0,3.031,0,6.064,3.034,9.098c0,3.031,3.03,3.031,3.03,6.062l3.032,3.033h197.104
	c0,0,0,0,3.033-3.033c0-3.031,3.031-3.031,3.031-6.062C444.771,569.458,444.772,566.425,444.772,563.394L444.772,563.394z
	 M293.153,390.546v136.458c0,3.033-3.03,6.064-6.062,6.064l0,0h-15.162c-3.032,0-6.063-3.031-6.063-6.064l0,0V390.546
	c0-3.032,3.031-6.064,6.063-6.064l0,0h15.162C290.12,384.482,293.153,387.514,293.153,390.546L293.153,390.546z M284.056,308.671
	H390.19l-12.129-27.291l-3.033-3.033h-75.811c-3.032,0-3.032,0-3.032,3.033L284.056,308.671z M353.802,390.546v136.458
	c0,3.033-3.033,6.064-6.066,6.064l0,0h-15.161c-3.032,0-6.063-3.031-6.063-6.064l0,0V390.546c0-3.032,3.032-6.064,6.063-6.064l0,0
	h15.161C350.768,384.482,353.802,387.514,353.802,390.546L353.802,390.546z M414.448,390.546v136.458
	c0,3.033-3.031,6.064-6.064,6.064l0,0h-15.162c-3.031,0-6.064-3.031-6.064-6.064l0,0V390.546c0-3.032,3.033-6.064,6.064-6.064l0,0
	h15.162C411.417,384.482,414.448,387.514,414.448,390.546L414.448,390.546z"/>
<g>
	<path fill="#040000" d="M141.306,735.5c0,2.87-1.123,5.461-3.368,7.765c-2.247,2.311-4.805,3.465-7.672,3.465
		c-2.621,0-5.053-0.999-7.3-2.996L86.47,710.42c-2.498,0.749-4.992,1.437-7.485,2.058v26.952c0,3.741-1.375,7.02-4.117,9.826
		c-2.747,2.807-5.989,4.21-9.732,4.21c-5.117,0-7.672-2.81-7.672-8.42v-30.508c-2.995-0.121-5.459-1.184-7.393-3.181
		c-1.936-1.994-2.901-4.493-2.901-7.485c0-6.861,3.431-10.417,10.293-10.67V672.43c0-3.744,1.338-7.02,4.024-9.826
		c2.68-2.81,5.893-4.21,9.637-4.21c5.24,0,7.86,2.807,7.86,8.42v23.394c13.972-3.99,24.453-10.355,31.442-19.089
		c2.868-3.616,4.304-6.926,4.304-9.918c0-5.114-3.306-8.982-9.917-11.604c-4.992-1.994-10.482-2.996-16.47-2.996
		c-8.733,0-15.659,1.812-20.774,5.428c-2.122,1.498-4.242,2.244-6.364,2.244c-2.994,0-5.521-1.151-7.578-3.462
		c-2.06-2.307-3.088-4.958-3.088-7.954c0-3.369,1.559-6.176,4.679-8.423c9.231-6.483,19.84-9.731,31.816-9.731
		c11.851,0,22.708,3.06,32.564,9.172c11.229,7.11,16.844,16.282,16.844,27.512c0,7.86-3.058,15.598-9.17,23.205
		c-4.992,6.115-11.417,11.543-19.276,16.282l29.57,26.764C140.058,729.887,141.306,732.507,141.306,735.5z"/>
	<path fill="#040000" d="M229.83,676.923c0,5.367-1.436,10.73-4.305,16.094c-3.12,5.866-8.175,11.136-15.161,15.814
		c-6.989,4.679-14.036,7.457-21.148,8.328c-3.62,0.499-6.301,0.253-8.047-0.749c2.245,8.487,6.177,12.728,11.79,12.728
		c4.989,0,10.916-3.057,17.78-9.169c2.12-1.872,4.491-2.81,7.111-2.81c2.37,0,4.586,1.062,6.645,3.181
		c2.058,2.122,3.087,4.618,3.087,7.488c0,2.993-1.248,5.617-3.743,7.86c-10.106,8.982-19.964,13.476-29.572,13.476
		c-10.48,0-19.091-4.867-25.826-14.599c-5.991-8.733-8.984-18.591-8.984-29.573c0-9.851,2.496-18.837,7.488-26.949
		c3.991-6.608,9.791-12.289,17.404-17.031c7.609-4.739,15.16-7.111,22.645-7.111c6.861,0,12.381,2.122,16.562,6.365
		S229.83,670.062,229.83,676.923z M211.301,678.607c0-2.621-1.997-3.93-5.991-3.93c-2.122,0-3.928,0.313-5.426,0.938
		c-11.106,4.864-17.47,12.164-19.09,21.896c0.997,0.749,2.682,1.437,5.053,2.058c5.989-0.496,11.164-2.118,15.534-4.864
		c2.869-1.747,5.301-4.365,7.298-7.859C210.426,683.724,211.301,680.978,211.301,678.607z"/>
	<path fill="#040000" d="M357.465,737.561c0,3.12-0.999,5.707-2.993,7.766c-1.997,2.058-4.616,3.086-7.859,3.086
		c-3.121,0-5.68-1.028-7.673-3.086c-1.997-2.059-2.994-4.646-2.994-7.766v-51.657c0-5.239-2.373-7.86-7.113-7.86
		c-3.619,0-6.861,2.749-9.73,8.234c-2.372,4.618-3.556,8.983-3.556,13.102v33.688c0,3.12-1.001,5.705-2.994,7.766
		c-1.999,2.058-4.618,3.087-7.86,3.087c-3.12,0-5.68-1.029-7.674-3.087c-1.997-2.061-2.994-4.646-2.994-7.766v-36.684
		c0-2.992-1.402-5.924-4.21-8.798c-2.808-2.867-5.709-4.115-8.705-3.741c-1.995,0.253-3.928,1.403-5.802,3.461
		c-1.872,2.062-2.807,4.089-2.807,6.086v44.915c0,3.12-1,5.707-2.994,7.765c-1.999,2.059-4.618,3.087-7.86,3.087
		c-3.12,0-5.68-1.028-7.672-3.087c-1.999-2.058-2.994-4.645-2.994-7.765v-67.752c0-3.117,0.997-5.674,2.994-7.671
		c1.992-1.997,4.552-2.995,7.672-2.995c1.245,0,4.552,2.121,9.919,6.361c4.365-2.742,7.921-4.118,10.668-4.118
		c8.482,0,16.283,3.869,23.394,11.604c7.36-10.729,16.219-16.094,26.576-16.094c7.983,0,14.285,2.807,18.901,8.42
		c4.241,5.242,6.364,12.104,6.364,20.587v50.912H357.465z"/>
	<path fill="#040000" d="M453.662,698.071c0,13.099-3.308,25.144-9.919,36.12c-7.611,12.728-17.593,19.09-29.944,19.09
		c-2.246,0-4.556-0.25-6.925-0.749c-8.983-1.869-15.785-6.798-20.4-14.782c-4.117-6.986-6.176-15.409-6.176-25.266
		c0-13.102,3.304-25.08,9.919-35.935c7.734-12.728,17.715-19.09,29.944-19.09c2.245,0,4.552,0.25,6.924,0.749
		c8.984,1.869,15.781,6.801,20.399,14.785C451.603,679.855,453.662,688.216,453.662,698.071z M432.326,699.005
		c0-3.744-0.747-7.61-2.246-11.604c-1.871-4.864-4.368-7.607-7.485-8.234c-4.616-0.998-9.047,1.626-13.286,7.863
		c-3.369,4.864-5.616,9.917-6.737,15.159c-0.626,2.992-0.937,6.112-0.937,9.357c0,3.741,0.749,7.61,2.246,11.604
		c1.872,4.865,4.365,7.61,7.485,8.234c3.117,0.624,6.551-0.749,10.294-4.118c4.741-4.24,7.983-10.542,9.731-18.903
		C432.013,705.367,432.326,702.25,432.326,699.005z"/>
	<path fill="#040000" d="M543.307,672.43c0,0.874-0.188,1.812-0.562,2.807c-9.357,29.944-18.902,53.591-28.634,70.933
		c-2.872,4.989-6.364,7.3-10.48,6.926c-4.245-0.253-7.302-3.182-9.171-8.798c-7.859-23.083-16.783-43.795-26.765-62.135
		c-1.122-1.994-1.621-3.994-1.496-5.991c0.248-2.992,1.559-5.455,3.93-7.391c2.368-1.934,5.054-2.773,8.049-2.526
		c3.491,0.252,6.237,2.121,8.235,5.616c6.111,11.229,12.601,25.076,19.462,41.548c6.237-14.721,11.665-29.57,16.283-44.544
		c1.745-5.488,5.363-8.048,10.854-7.674c3.117,0.253,5.678,1.437,7.673,3.556C542.681,666.878,543.555,669.435,543.307,672.43z"/>
	<path fill="#040000" d="M633.14,676.923c0,5.367-1.436,10.73-4.305,16.094c-3.12,5.866-8.173,11.136-15.16,15.814
		c-6.988,4.679-14.036,7.457-21.147,8.328c-3.621,0.499-6.303,0.253-8.049-0.749c2.245,8.487,6.177,12.728,11.79,12.728
		c4.989,0,10.916-3.057,17.78-9.169c2.12-1.872,4.491-2.81,7.111-2.81c2.369,0,4.584,1.062,6.644,3.181
		c2.059,2.122,3.088,4.618,3.088,7.488c0,2.993-1.25,5.617-3.742,7.86c-10.106,8.982-19.967,13.476-29.57,13.476
		c-10.482,0-19.089-4.867-25.827-14.599c-5.989-8.733-8.984-18.591-8.984-29.573c0-9.851,2.496-18.837,7.486-26.949
		c3.992-6.608,9.795-12.289,17.406-17.031c7.608-4.739,15.159-7.111,22.643-7.111c6.861,0,12.382,2.122,16.566,6.365
		C631.049,664.509,633.14,670.062,633.14,676.923z M614.613,678.607c0-2.621-1.999-3.93-5.989-3.93c-2.123,0-3.93,0.313-5.428,0.938
		c-11.106,4.864-17.47,12.164-19.089,21.896c0.996,0.749,2.68,1.437,5.053,2.058c5.987-0.496,11.164-2.118,15.534-4.864
		c2.867-1.747,5.301-4.365,7.299-7.859C613.736,683.724,614.613,680.978,614.613,678.607z"/>
</g>
</svg>
