<?xml version="1.0" encoding="utf-8"?>
<!-- Generator: Adobe Illustrator 16.0.4, SVG Export Plug-In . SVG Version: 6.00 Build 0)  -->
<!DOCTYPE svg PUBLIC "-//W3C//DTD SVG 1.0//EN" "http://www.w3.org/TR/2001/REC-SVG-20010904/DTD/svg10.dtd">
<svg version="1.0" id="Layer_1" xmlns="http://www.w3.org/2000/svg" xmlns:xlink="http://www.w3.org/1999/xlink" x="0px" y="0px"
	 width="680.311px" height="941.101px" viewBox="0 0 680.311 941.101" enable-background="new 0 0 680.311 941.101"
	 xml:space="preserve">
<title>ui_btns_output</title>
<path fill="#CCCCCC" d="M68.031,130.396h544.248c38.551,0,68.031,29.48,68.031,68.031v544.247c0,38.551-29.48,68.031-68.031,68.031
	H68.031C29.48,810.705,0,781.224,0,742.673V198.426C0,159.875,29.48,130.396,68.031,130.396z"/>
<g enable-background="new    ">
	<path d="M447.183,421.24c0,3.344,0,10.033-3.346,13.378L303.366,575.092c-3.346,3.345-6.69,3.345-13.38,3.345
		c-3.346,0-10.033,0-13.379-3.345c-3.344-3.345-3.344-10.033-3.344-13.378v-73.583H156.202c-3.344,0-10.033,0-13.379-3.345
		c-3.344-6.688-3.344-10.033-3.344-13.377V371.071c0-3.346,0-10.036,3.344-13.379c3.348-3.345,6.69-3.345,13.379-3.345h117.061
		v-73.582c0-3.345,0-10.034,3.344-13.378c3.348-3.345,6.69-3.345,13.379-3.345c3.345,0,10.035,0,13.38,3.345L443.837,407.86
		C447.183,411.206,447.183,414.55,447.183,421.24z M540.831,327.59v183.955c0,20.066-6.688,36.789-23.41,53.514
		c-13.379,13.378-33.449,23.411-53.514,23.411H380.29c-3.344,0-3.344,0-6.688-3.345c0,0-3.346-3.347-3.346-6.688
		c0,0,0-3.345,0-6.689c0-3.344,0-6.688,0-6.688c0-3.345,0-3.345,0-6.691c0-3.345,0-3.345,3.346-6.689
		c3.346-3.344,3.346-3.344,6.688-3.344h83.617c10.033,0,20.066-3.345,30.102-13.378c6.689-6.689,13.377-16.723,13.377-30.101
		V320.901c0-10.034-3.346-20.067-13.377-30.102c-6.691-6.688-16.725-13.378-30.102-13.378h-73.582c0,0,0,0-3.346,0
		c-3.344,0-3.344,0-3.344,0s0,0-3.348,0h-3.346c0,0,0,0-3.346,0c0,0,0,0-3.344-3.345v-3.345c0,0,0-3.345,0-6.69s0-6.689,0-6.689
		c0-3.344,0-3.344,0-6.69c0-3.344,0-3.344,3.344-6.688c3.346-3.344,3.346-3.345,6.689-3.345h83.615
		c20.066,0,36.791,6.689,53.514,23.413C534.142,290.799,540.831,307.523,540.831,327.59z"/>
</g>
<g>
	<path fill="#040000" d="M159.381,633.977c0,7.073-3.669,10.807-11.005,11.201c-7.86,0.394-22.401,2.75-43.622,7.072v23.385
		c15.719-3.666,25.084-6.419,28.099-8.255c1.832-1.045,3.798-1.57,5.895-1.57c3.144,0,5.796,1.18,7.958,3.538
		c2.162,2.355,3.242,5.108,3.242,8.252c0,4.061-1.9,7.204-5.698,9.432c-5.374,3.275-18.538,7.204-39.496,11.79v27.116
		c3.013,0.522,6.092,0.785,9.235,0.785c10.479,0,19.19-3.077,26.134-9.236c2.359-2.093,4.845-3.144,7.467-3.144
		c3.013,0,5.665,1.213,7.958,3.636c2.289,2.426,3.438,5.142,3.438,8.154c0,3.144-1.311,5.896-3.929,8.253
		c-11.268,9.956-24.891,14.934-40.87,14.934c-8.911,0-17.36-1.57-25.35-4.715c-4.847-1.964-7.27-5.307-7.27-10.021
		c0-1.18,0.197-2.292,0.59-3.343v-29.08c-6.42-0.914-9.629-4.647-9.629-11.2c0-6.682,3.209-10.416,9.629-11.201v-21.812
		c-3.277,0-5.962-1.143-8.057-3.438c-2.097-2.291-3.144-5.074-3.144-8.35c0-6.025,5.827-10.676,17.487-13.953
		c0.13,0,8.352-1.504,24.661-4.519c16.309-3.013,27.803-4.648,34.485-4.913c3.537-0.129,6.386,0.821,8.547,2.851
		C158.299,627.659,159.381,630.44,159.381,633.977z"/>
	<path fill="#040000" d="M259.396,746.372c0,3.146-1.179,5.766-3.536,7.861c-2.359,2.093-5.109,3.144-8.252,3.144
		c-4.194,0-7.338-1.962-9.432-5.894c-4.98-9.04-12.447-20.501-22.401-34.387c-10.089,12.181-17.879,22.923-23.383,32.224
		c-2.229,3.798-5.304,5.698-9.234,5.698c-3.144,0-5.896-1.079-8.252-3.242c-2.359-2.16-3.537-4.814-3.537-7.958
		c0-1.965,0.588-3.93,1.769-5.895c6.941-11.919,16.504-25.02,28.688-39.3c-8.778-11.131-16.44-19.911-22.99-26.333
		c-2.491-2.358-3.733-4.975-3.733-7.858c0-3.144,1.146-5.896,3.438-8.252c2.29-2.358,5.012-3.538,8.156-3.538
		c2.88,0,5.501,1.18,7.86,3.538c6.941,6.811,14.473,15.196,22.597,25.151c6.289-6.811,12.38-13.034,18.273-18.668
		c2.359-2.225,4.978-3.34,7.86-3.34c3.144,0,5.862,1.18,8.154,3.538c2.291,2.358,3.439,5.108,3.439,8.252
		c0,3.016-1.248,5.698-3.733,8.058c-6.944,6.419-13.626,13.229-20.043,20.436c11.658,15.849,20.565,29.472,26.725,40.871
		C258.871,742.443,259.396,744.407,259.396,746.372z"/>
	<path fill="#040000" d="M351.747,691.55c0,14.806-5.631,26.526-16.895,35.173c-9.957,7.601-22.729,12.056-38.317,13.36v38.911
		c0,3.271-1.08,5.958-3.242,8.052c-2.161,2.099-4.882,3.146-8.154,3.146c-3.276,0-5.963-1.048-8.057-3.146
		c-2.097-2.096-3.144-4.781-3.144-8.052V660.31c0-3.272,1.015-5.991,3.044-8.154c2.03-2.163,4.684-3.242,7.959-3.242
		c5.896-0.131,9.561,2.49,11.004,7.858c7.074-5.631,14.213-8.447,21.419-8.447c10.217,0,18.666,4.783,25.348,14.344
		C348.736,671.312,351.747,680.94,351.747,691.55z M329.349,687.032c-0.134-3.666-1.311-7.006-3.537-10.021
		c-2.229-3.013-5.11-4.519-8.646-4.519c-6.553,0-13.431,5.302-20.633,15.915v28.882
		C319.063,715.067,330.004,704.981,329.349,687.032z"/>
	<path fill="#040000" d="M448.425,694.695c0,13.755-3.473,26.397-10.414,37.925c-7.992,13.36-18.471,20.042-31.439,20.042
		c-2.357,0-4.783-0.265-7.27-0.787c-9.434-1.965-16.574-7.138-21.42-15.524c-4.322-7.333-6.482-16.175-6.482-26.525
		c0-13.755,3.469-26.331,10.414-37.727c8.121-13.361,18.598-20.043,31.438-20.043c2.359,0,4.781,0.263,7.271,0.785
		c9.432,1.965,16.57,7.143,21.418,15.524C446.265,675.572,448.425,684.349,448.425,694.695z M426.027,695.678
		c0-3.932-0.789-7.989-2.359-12.185c-1.965-5.108-4.588-7.989-7.859-8.646c-4.848-1.046-9.498,1.704-13.951,8.252
		c-3.539,5.111-5.896,10.415-7.074,15.918c-0.656,3.144-0.982,6.419-0.982,9.825c0,3.93,0.787,7.99,2.359,12.182
		c1.965,5.108,4.582,7.992,7.859,8.646c3.273,0.656,6.877-0.785,10.807-4.323c4.977-4.452,8.381-11.066,10.219-19.847
		C425.698,702.357,426.027,699.084,426.027,695.678z"/>
	<path fill="#040000" d="M534.488,672.687c0,3.016-1.08,5.634-3.242,7.858c-2.162,2.23-4.75,3.343-7.762,3.343
		c-4.588,0-7.926-2.619-10.023-7.861c-6.551,0.657-11.461,3.016-14.736,7.073c-1.311,2.358-2.555,4.717-3.734,7.075v51.481
		c0,3.275-1.08,5.959-3.24,8.057c-2.162,2.094-4.883,3.145-8.154,3.145c-3.275,0-5.963-1.051-8.057-3.145
		c-2.098-2.098-3.145-4.781-3.145-8.057V680.94c-4.322-1.833-6.484-5.827-6.484-11.986c0-6.941,2.881-10.415,8.646-10.415
		c2.75,0,7.664,1.965,14.736,5.896c8.908-7.204,16.77-10.807,23.582-10.807c6.416,0,12.246,3.08,17.486,9.236
		C533.113,666.137,534.488,669.415,534.488,672.687z"/>
	<path fill="#040000" d="M609.353,671.508c0,4.979-2.49,8.384-7.467,10.217l-15.523,5.896v57.18c0,3.272-1.078,5.994-3.242,8.157
		c-2.162,2.16-4.881,3.241-8.154,3.241c-3.275,0-5.961-1.081-8.057-3.241c-2.096-2.163-3.145-4.882-3.145-8.157V696.27l-3.143,1.177
		c-1.836,0.659-3.34,0.984-4.52,0.984c-3.145,0-5.734-1.18-7.764-3.538c-2.031-2.356-3.045-5.108-3.045-8.255
		c0-4.975,2.422-8.379,7.271-10.217l11.199-4.321v-32.227c0-3.929,1.406-7.366,4.225-10.314c2.816-2.948,6.189-4.421,10.119-4.421
		c5.502,0,8.254,2.945,8.254,8.842v29.472l7.465-2.945c1.309-0.523,2.818-0.788,4.521-0.788c3.145,0,5.764,1.182,7.861,3.54
		C608.302,665.615,609.353,668.365,609.353,671.508z"/>
</g>
</svg>
