<?xml version="1.0" encoding="utf-8"?>
<!-- Generator: Adobe Illustrator 16.0.4, SVG Export Plug-In . SVG Version: 6.00 Build 0)  -->
<!DOCTYPE svg PUBLIC "-//W3C//DTD SVG 1.0//EN" "http://www.w3.org/TR/2001/REC-SVG-20010904/DTD/svg10.dtd">
<svg version="1.0" id="Layer_1" xmlns="http://www.w3.org/2000/svg" xmlns:xlink="http://www.w3.org/1999/xlink" x="0px" y="0px"
	 width="680.311px" height="941.101px" viewBox="0 0 680.311 941.101" enable-background="new 0 0 680.311 941.101"
	 xml:space="preserve">
<title>ui_pin_trash</title>
<path fill="#CCCCCC" d="M68.031,130.396h544.248c38.551,0,68.031,29.48,68.031,68.031v544.247c0,38.551-29.48,68.031-68.031,68.031
	H68.031C29.48,810.705,0,781.224,0,742.673V198.426C0,159.875,29.48,130.396,68.031,130.396z"/>
<g enable-background="new    ">
	<path fill="#FFFFFF" d="M508.06,311.971v15.264c0,3.053,0,3.053-3.053,6.105c-3.053,3.053-3.053,3.053-6.106,3.053h-24.422v225.909
		c0,12.211-3.053,24.422-12.211,33.58c-6.105,9.16-15.265,15.266-27.476,15.266H236.36c-9.158,0-18.316-6.105-27.477-15.266
		c-6.105-9.158-12.211-21.369-12.211-33.58V336.393h-15.264c-3.054,0-3.054,0-6.105-3.053c-3.053-3.053-3.053-3.053-3.053-6.105
		v-15.264c0-3.054,0-3.054,3.053-6.106c3.053-3.052,3.053-3.052,6.105-3.052h73.268l15.265-39.687
		c3.054-6.106,6.105-12.211,12.21-15.265c6.107-3.053,12.212-6.105,18.317-6.105h76.32c6.106,0,12.213,3.053,18.316,6.105
		c6.107,3.053,9.16,9.159,12.212,15.265l15.264,39.687h73.269c3.053,0,3.053,0,6.107,3.052
		C505.008,308.917,508.06,308.917,508.06,311.971z M447.004,562.302V336.393H233.305v225.909c0,3.053,0,6.105,3.054,9.158
		c0,3.053,3.054,6.105,3.054,6.105l3.052,3.053h198.434c0,0,0,0,3.053-3.053c3.054-3.055,3.054-3.055,3.054-6.105
		C447.004,568.408,447.004,565.355,447.004,562.302z M294.363,388.292v137.377c0,3.053,0,3.053-3.053,6.105
		c-3.052,3.053-3.052,3.053-6.104,3.053H269.94c-3.053,0-3.053,0-6.104-3.053c-3.052-3.055-3.054-3.055-3.054-6.105V388.292
		c0-3.053,0-3.053,3.054-6.105c3.053-3.052,3.053-3.054,6.104-3.054h15.266c3.053,0,3.053,0,6.104,3.054
		C294.363,385.239,294.363,385.239,294.363,388.292z M285.205,305.865h106.849l-12.211-27.475l-3.055-3.053h-76.32
		c-3.052,0-3.052,0-3.052,3.053L285.205,305.865z M355.42,388.292v137.377c0,3.053,0,3.053-3.055,6.105
		c-3.053,3.053-3.053,3.053-6.104,3.053h-15.265c-3.054,0-3.054,0-6.105-3.053c-3.052-3.055-3.053-3.055-3.053-6.105V388.292
		c0-3.053,0-3.053,3.053-6.105c3.053-3.052,3.053-3.054,6.105-3.054h15.265c3.053,0,3.053,0,6.104,3.054
		C355.42,385.239,355.42,385.239,355.42,388.292z M416.475,388.292v137.377c0,3.053,0,3.053-3.053,6.105
		c-3.054,3.051-3.054,3.053-6.105,3.053h-15.264c-3.054,0-3.054,0-6.105-3.053c-3.052-3.055-3.053-3.055-3.053-6.105V388.292
		c0-3.053,0-3.053,3.053-6.105c3.054-3.052,3.054-3.054,6.105-3.054h15.264c3.053,0,3.053,0,6.105,3.054
		C416.475,385.239,416.475,385.239,416.475,388.292z"/>
</g>
<g>
	<path fill="#040000" d="M185.57,707.556c0,14.367-4.04,26.743-12.123,37.133c-8.08,10.39-19.113,17.572-33.091,21.548
		c-5.516,1.538-13.342,2.885-23.472,4.039c-4.747,0.512-8.273-1.026-10.583-4.616c-1.925-2.05-2.887-4.682-2.887-7.889V675.81
		c-1.154,0.26-2.245,0.386-3.27,0.386c-3.08,0-5.646-1.155-7.697-3.464c-2.052-2.308-3.078-5.002-3.078-8.081
		c0-4.232,1.988-7.374,5.965-9.429c12.055-6.28,23.665-9.426,34.824-9.426c16.417,0,29.884,6.285,40.403,18.854
		C180.568,676.582,185.57,690.883,185.57,707.556z M163.636,705.632c0-10.39-3.144-19.206-9.426-26.454
		c-6.287-7.246-14.56-10.871-24.82-10.871c-1.283,0-2.566,0.065-3.847,0.191v78.306c12.183-1.926,21.163-6.027,26.936-12.312
		C159.915,726.411,163.636,716.791,163.636,705.632z"/>
	<path fill="#040000" d="M275.61,691.587c0,5.516-1.478,11.032-4.424,16.546c-3.208,6.027-8.403,11.445-15.584,16.256
		c-7.185,4.811-14.43,7.667-21.741,8.562c-3.721,0.515-6.479,0.26-8.273-0.769c2.31,8.723,6.35,13.084,12.121,13.084
		c5.129,0,11.223-3.144,18.278-9.429c2.18-1.924,4.618-2.887,7.312-2.887c2.435,0,4.714,1.092,6.831,3.271
		c2.116,2.183,3.174,4.749,3.174,7.696c0,3.078-1.285,5.773-3.847,8.083c-10.39,9.232-20.523,13.851-30.399,13.851
		c-10.774,0-19.625-5.004-26.55-15.008c-6.158-8.976-9.234-19.11-9.234-30.397c0-10.132,2.563-19.367,7.695-27.707
		c4.104-6.797,10.067-12.631,17.894-17.506c7.822-4.874,15.584-7.312,23.28-7.312c7.051,0,12.727,2.184,17.026,6.542
		C273.46,678.825,275.61,684.533,275.61,691.587z M256.563,693.319c0-2.695-2.052-4.041-6.158-4.041c-2.182,0-4.04,0.322-5.578,0.96
		c-11.418,5.005-17.959,12.508-19.625,22.512c1.025,0.769,2.757,1.477,5.193,2.117c6.158-0.512,11.479-2.178,15.969-5.004
		c2.95-1.795,5.451-4.488,7.504-8.08C255.663,698.581,256.563,695.754,256.563,693.319z"/>
	<path fill="#040000" d="M333.71,765.083c0,2.818-0.962,5.161-2.887,7.021c-1.922,1.857-4.298,2.788-7.118,2.788
		c-1.798,0-3.529-0.383-5.194-1.154c-6.926-3.079-10.774-4.876-11.543-5.386c-5.002-3.078-7.505-6.542-7.505-10.39l0.193-110.629
		c0-3.204,1.024-5.836,3.078-7.886c2.05-2.052,4.681-3.078,7.889-3.078c3.203,0,5.866,1.026,7.983,3.078s3.175,4.682,3.175,7.886
		l-0.191,103.51C329.669,754.436,333.71,759.183,333.71,765.083z"/>
	<path fill="#040000" d="M425.674,691.587c0,5.516-1.478,11.032-4.426,16.546c-3.207,6.027-8.402,11.445-15.583,16.256
		c-7.185,4.811-14.431,7.667-21.74,8.562c-3.724,0.515-6.48,0.26-8.273-0.769c2.309,8.723,6.349,13.084,12.12,13.084
		c5.131,0,11.223-3.144,18.278-9.429c2.18-1.924,4.617-2.887,7.312-2.887c2.434,0,4.713,1.092,6.829,3.271
		c2.117,2.183,3.175,4.749,3.175,7.696c0,3.078-1.284,5.773-3.848,8.083c-10.39,9.232-20.521,13.851-30.398,13.851
		c-10.775,0-19.624-5.004-26.55-15.008c-6.158-8.976-9.234-19.11-9.234-30.397c0-10.132,2.563-19.367,7.695-27.707
		c4.104-6.797,10.068-12.631,17.893-17.506c7.823-4.874,15.583-7.312,23.279-7.312c7.054,0,12.729,2.184,17.026,6.542
		C423.525,678.825,425.674,684.533,425.674,691.587z M406.628,693.319c0-2.695-2.053-4.041-6.157-4.041
		c-2.183,0-4.041,0.322-5.579,0.96c-11.418,5.005-17.958,12.508-19.625,22.512c1.026,0.769,2.757,1.477,5.194,2.117
		c6.157-0.512,11.479-2.178,15.969-5.004c2.949-1.795,5.45-4.488,7.504-8.08C405.729,698.581,406.628,695.754,406.628,693.319z"/>
	<path fill="#040000" d="M500.706,690.624c0,4.876-2.438,8.209-7.312,10.007l-15.199,5.771v55.986c0,3.204-1.057,5.869-3.174,7.987
		c-2.117,2.115-4.78,3.174-7.984,3.174c-3.209,0-5.838-1.059-7.889-3.174c-2.053-2.118-3.078-4.78-3.078-7.987v-47.521l-3.079,1.155
		c-1.799,0.643-3.27,0.96-4.426,0.96c-3.078,0-5.613-1.154-7.6-3.464c-1.99-2.307-2.982-5.002-2.982-8.08
		c0-4.873,2.372-8.206,7.12-10.004l10.965-4.232V659.65c0-3.848,1.378-7.216,4.138-10.1c2.757-2.887,6.061-4.329,9.907-4.329
		c5.389,0,8.081,2.884,8.081,8.657v28.859l7.311-2.887c1.281-0.512,2.757-0.769,4.428-0.769c3.078,0,5.641,1.154,7.695,3.461
		C499.678,684.853,500.706,687.545,500.706,690.624z"/>
	<path fill="#040000" d="M590.94,691.587c0,5.516-1.478,11.032-4.427,16.546c-3.206,6.027-8.402,11.445-15.582,16.256
		c-7.186,4.811-14.433,7.667-21.742,8.562c-3.723,0.515-6.479,0.26-8.272-0.769c2.308,8.723,6.349,13.084,12.121,13.084
		c5.129,0,11.223-3.144,18.278-9.429c2.178-1.924,4.617-2.887,7.311-2.887c2.435,0,4.712,1.092,6.83,3.271
		c2.116,2.183,3.174,4.749,3.174,7.696c0,3.078-1.283,5.773-3.847,8.083c-10.39,9.232-20.522,13.851-30.398,13.851
		c-10.775,0-19.625-5.004-26.552-15.008c-6.156-8.976-9.233-19.11-9.233-30.397c0-10.132,2.562-19.367,7.696-27.707
		c4.103-6.797,10.067-12.631,17.891-17.506c7.824-4.874,15.584-7.312,23.28-7.312c7.053,0,12.729,2.184,17.027,6.542
		C588.79,678.825,590.94,684.533,590.94,691.587z M571.893,693.319c0-2.695-2.055-4.041-6.158-4.041c-2.184,0-4.041,0.322-5.58,0.96
		c-11.417,5.005-17.958,12.508-19.625,22.512c1.026,0.769,2.759,1.477,5.195,2.117c6.156-0.512,11.479-2.178,15.969-5.004
		c2.949-1.795,5.45-4.488,7.503-8.08C570.992,698.581,571.893,695.754,571.893,693.319z"/>
</g>
</svg>
