<svg id="Layer_1" data-name="Layer 1" xmlns="http://www.w3.org/2000/svg" viewBox="0 0 24.98 42.47"><defs><style>.cls-1{fill:#fff;}</style></defs><title>riken_logo</title><rect class="cls-1" x="11.63" y="38.44" width="1.31" height="3.7"/><path class="cls-1" d="M28.49,21.46a4.21,4.21,0,0,1-.32,1.26,14.33,14.33,0,0,0,2.21-2.23A12.43,12.43,0,0,0,32.94,13a12.21,12.21,0,0,0-24.41-.44c0,.14-.06,1.2-.06,2v13.6s0,.25,0,.67,0,1.43.07,2.37a2.74,2.74,0,0,0,2.14,2.62,4.16,4.16,0,0,0,1.06.13A2.89,2.89,0,0,0,15,31.19c.06-.94.06-1.81.07-2.37,0-.41,0-.69,0-.69V13.59a6.7,6.7,0,0,1,.81-3.71,5.84,5.84,0,0,1,4.92-2.71,5.74,5.74,0,0,1,5.74,5.74c0,.05,0,.45,0,.5a7.07,7.07,0,0,0-4.6-1.94A6.82,6.82,0,0,0,15,18.34a6.7,6.7,0,0,0,6.83,6.77c.21,0,.47,0,.78,0a4.27,4.27,0,1,1,5.86-3.61" transform="translate(-8.43 -0.76)"/><path class="cls-1" d="M28.89,25.11a4.51,4.51,0,1,0,4.51,4.51,4.51,4.51,0,0,0-4.51-4.51" transform="translate(-8.43 -0.76)"/><rect class="cls-1" x="5.93" y="35.63" width="1.31" height="6.51"/><rect class="cls-1" x="8.55" y="35.63" width="1.31" height="6.51"/><polygon class="cls-1" points="20.8 37.54 20.8 35.63 19.5 35.63 19.5 37.34 19.5 38.09 19.5 42.14 20.8 42.14 20.8 40.1 20.8 37.54"/><polygon class="cls-1" points="24.18 35.63 22.87 35.63 22.87 39.38 21.73 38.24 20.8 39.16 22.87 41.23 22.87 42.14 24.18 42.14 24.18 42.14 24.18 35.63"/><rect class="cls-1" x="18.14" y="37.21" width="4.14" height="1.32" transform="translate(-29.29 24.66) rotate(-45.06)"/><path class="cls-1" d="M10.88,37.61a1.26,1.26,0,0,1,.77,1.87,1.46,1.46,0,0,1-1.09.65l1.79,3.11,1.14-.66-1.2-2.07h0a2.33,2.33,0,0,0,.81-1.68,2.42,2.42,0,0,0-.71-1.71,2.46,2.46,0,0,0-.33-.28A2.3,2.3,0,0,0,11,36.43a11.73,11.73,0,0,0-1.18,0H8.43v1.16H9.75a4.72,4.72,0,0,1,1.13.06" transform="translate(-8.43 -0.76)"/><polygon class="cls-1" points="0 39.91 0 37.81 1.31 37.81 1.31 42.14 0 42.14 0 39.91"/><rect class="cls-1" x="14.25" y="35.63" width="3.94" height="1.26"/><rect class="cls-1" x="14.25" y="40.9" width="3.94" height="1.24"/><rect class="cls-1" x="14.25" y="38.26" width="3.94" height="1.26"/></svg>