<svg id="Layer_1" data-name="Layer 1" xmlns="http://www.w3.org/2000/svg" viewBox="0 0 33.42 41.22"><defs><style>.cls-1{fill:#fff;}</style></defs><title>riken_</title><path class="cls-1" d="M27.63,6.61A6.16,6.16,0,0,0,15.55,9,6.16,6.16,0,0,0,27.63,6.61Zm-3.23-.43a1.31,1.31,0,1,1,1.31-1.31A1.31,1.31,0,0,1,24.41,6.17Z" transform="translate(-3.29 -1.68)"/><path class="cls-1" d="M36.61,13.54a5.07,5.07,0,1,0-4,5.9A5,5,0,0,0,36.61,13.54ZM34,13.19A1.08,1.08,0,1,1,35,12.11,1.08,1.08,0,0,1,34,13.19Z" transform="translate(-3.29 -1.68)"/><path class="cls-1" d="M36.15,23.82a4.23,4.23,0,0,0-5-3.3,4.18,4.18,0,1,0,5,3.3Zm-2.21-.3a.9.9,0,1,1,.9-.9A.9.9,0,0,1,33.94,23.53Z" transform="translate(-3.29 -1.68)"/><path class="cls-1" d="M29.2,30a3.48,3.48,0,1,0-2.75,4.05A3.49,3.49,0,0,0,29.2,30Zm-1.83-.24a.74.74,0,1,1,.74-.74A.74.74,0,0,1,27.37,29.78Z" transform="translate(-3.29 -1.68)"/><path class="cls-1" d="M20.79,31a2.88,2.88,0,1,0-2.27,3.35A2.86,2.86,0,0,0,20.79,31Zm-1.51-.2a.61.61,0,1,1,.62-.61A.61.61,0,0,1,19.28,30.83Z" transform="translate(-3.29 -1.68)"/><path class="cls-1" d="M14.42,28.22a2.6,2.6,0,0,0-3-2,2.57,2.57,0,1,0,3,2ZM13.06,28a.55.55,0,1,1,.55-.55A.55.55,0,0,1,13.06,28Z" transform="translate(-3.29 -1.68)"/><path class="cls-1" d="M13,17.69A2,2,0,1,0,11.44,20,2,2,0,0,0,13,17.69Z" transform="translate(-3.29 -1.68)"/><path class="cls-1" d="M17.91,16.76a1.78,1.78,0,1,0-1.41,2.07A1.79,1.79,0,0,0,17.91,16.76Z" transform="translate(-3.29 -1.68)"/><path class="cls-1" d="M21.3,19.91a1.62,1.62,0,0,0-1.9-1.27,1.61,1.61,0,1,0,1.9,1.27Z" transform="translate(-3.29 -1.68)"/><ellipse class="cls-1" cx="19.75" cy="24.79" rx="1.47" ry="1.46" transform="translate(-7.66 2.55) rotate(-11)"/><ellipse class="cls-1" cx="16.22" cy="27.5" rx="1.34" ry="1.33" transform="translate(-8.22 1.91) rotate(-10.96)"/><ellipse class="cls-1" cx="7.93" cy="27.03" rx="1.22" ry="1.2" transform="translate(-12.31 2.85) rotate(-20.63)"/><ellipse class="cls-1" cx="5.47" cy="24.36" rx="1.1" ry="1.1" transform="translate(-9.64 0.69) rotate(-15.6)"/><ellipse class="cls-1" cx="4.3" cy="21.51" rx="1.01" ry="1" transform="translate(-8.91 0.27) rotate(-15.59)"/><ellipse class="cls-1" cx="4.37" cy="18.4" rx="0.91" ry="0.91" transform="translate(-8.07 0.17) rotate(-15.58)"/><path class="cls-1" d="M11.2,22.48a2.16,2.16,0,1,0-2,2.55,1.36,1.36,0,1,1,1.43-.62A2.13,2.13,0,0,0,11.2,22.48Z" transform="translate(-3.29 -1.68)"/><polyline class="cls-1" points="12.04 37.7 12.04 34.41 13.41 34.41 13.41 41.22 12.04 41.22 12.04 37.7"/><rect class="cls-1" x="23.19" y="34.41" width="4.12" height="1.32"/><rect class="cls-1" x="14.13" y="39.92" width="2.3" height="1.3"/><polyline class="cls-1" points="24.56 38.88 24.56 36.69 25.93 36.69 25.93 41.22 24.56 41.22 24.56 38.88"/><path class="cls-1" d="M11.78,37.35a1.32,1.32,0,0,0-1,1.28V39H9.44v-.32a2.53,2.53,0,0,1,.74-1.79,2.48,2.48,0,0,1,.34-.29,2.41,2.41,0,0,1,1.16-.44,12.18,12.18,0,0,1,1.24,0h1.43v1.21H13a4.94,4.94,0,0,0-1.18.06" transform="translate(-3.29 -1.68)"/><path class="cls-1" d="M11.78,41.62a1.31,1.31,0,0,1-1-1.28V40H9.44v.32a2.53,2.53,0,0,0,.74,1.79,2.46,2.46,0,0,0,.34.29,2.4,2.4,0,0,0,1.16.44,12.31,12.31,0,0,0,1.24,0h1.43V41.68H13a4.94,4.94,0,0,1-1.18-.06" transform="translate(-3.29 -1.68)"/><path class="cls-1" d="M21.34,40.19l.16.14,1.22-.71a1.18,1.18,0,0,1,.2-2.27,4.87,4.87,0,0,1,1.17-.06h1.37v-1.2H24.05a12.07,12.07,0,0,0-1.23,0,2.39,2.39,0,0,0-1.15.43,2.54,2.54,0,0,0-.34.29,2.51,2.51,0,0,0-.73,1.67h0A2.51,2.51,0,0,0,21.34,40.19Z" transform="translate(-3.29 -1.68)"/><text x="-3.29" y="-1.68"></text></svg>