<?xml version="1.0" encoding="utf-8"?>
<!-- Generator: Adobe Illustrator 20.1.0, SVG Export Plug-In . SVG Version: 6.00 Build 0)  -->
<svg version="1.1" id="Layer_1" xmlns="http://www.w3.org/2000/svg" xmlns:xlink="http://www.w3.org/1999/xlink" x="0px" y="0px"
	 viewBox="0 0 17 17" style="enable-background:new 0 0 17 17;" xml:space="preserve">
<style type="text/css">
	.st0{display:none;fill:#FFF04D;}
	.st1{font-family:'FontAwesome';}
	.st2{font-size:14px;}
	.st3{display:none;fill:#3DCCD4;}
	.st4{font-size:17px;}
	.st5{display:none;}
	.st6{display:inline;}
	.st7{fill:#3DCCD4;}
	.st8{fill:#FFF04D;}
	.st9{display:inline;fill:none;stroke:#3DCCD4;stroke-width:2;stroke-miterlimit:10;}
	.st10{display:inline;fill:none;stroke:#FFF04D;stroke-width:2;stroke-miterlimit:10;}
	.st11{display:inline;fill:#3DCCD4;}
</style>
<text id="Overview" transform="matrix(1 0 0 1 1.5 13.6562)" class="st0 st1 st2"></text>
<text id="Pencil" transform="matrix(1 0 0 1 2.5 13.6562)" class="st0 st1 st2"></text>
<text id="inCamera" transform="matrix(1 0 0 1 1 13.6562)" class="st3 st1 st2"></text>
<text id="inAnnotation" transform="matrix(1 0 0 1 3.6428 14.7612)" class="st3 st1 st4"></text>
<g id="inMeasure" class="st5">
	<g class="st6">
		<path class="st7" d="M13.5,14v-2h-3v-1h3V9h-5V8h5V6h-3V5h3V3h-5V2h5V1c0-0.6-0.4-1-1-1h-8c-0.6,0-1,0.4-1,1v15c0,0.6,0.4,1,1,1h8
			c0.6,0,1-0.4,1-1v-1h-5v-1H13.5z"/>
	</g>
</g>
<text id="inOverview" transform="matrix(1 0 0 1 1.5 13.6562)" class="st3 st1 st2"></text>
<text id="in鉛筆" transform="matrix(1 0 0 1 2.5 13.6562)" class="st3 st1 st2"></text>
<text id="カメラ" transform="matrix(1 0 0 1 1 13.6562)" class="st0 st1 st2"></text>
<text id="アノテーション" transform="matrix(1 0 0 1 3.6428 14.7612)" class="st0 st1 st4"></text>
<g id="定規" class="st5">
	<g class="st6">
		<path class="st8" d="M13.5,14v-2h-3v-1h3V9h-5V8h5V6h-3V5h3V3h-5V2h5V1c0-0.6-0.4-1-1-1h-8c-0.6,0-1,0.4-1,1v15c0,0.6,0.4,1,1,1h8
			c0.6,0,1-0.4,1-1v-1h-5v-1H13.5z"/>
	</g>
</g>
<g id="展開前" class="st5">
	<polyline class="st9" points="12.8,5.9 8.5,11.1 4.2,5.9 	"/>
</g>
<g id="展開済み" class="st5">
	<polyline class="st10" points="4.2,11.1 8.5,5.9 12.8,11.1 	"/>
</g>
<g id="フォルダ">
	<text transform="matrix(1 0 0 1 1.8341 14.08)" class="st8 st1 st2"></text>
</g>
<g id="フォルダ_1_" class="st5">
	<text transform="matrix(1 0 0 1 1.8341 14.0801)" class="st11 st1 st2"></text>
</g>
</svg>
