<?xml version="1.0" encoding="utf-8"?>
<!-- Generator: Adobe Illustrator 20.1.0, SVG Export Plug-In . SVG Version: 6.00 Build 0)  -->
<svg version="1.1" id="Layer_1" xmlns="http://www.w3.org/2000/svg" xmlns:xlink="http://www.w3.org/1999/xlink" x="0px" y="0px"
	 viewBox="0 0 15 14.3" style="enable-background:new 0 0 15 14.3;" xml:space="preserve">
<style type="text/css">
	.st0{enable-background:new    ;}
	.st1{fill:#FFF04D;}
</style>
<title>title_icons_camera_opened</title>
<g class="st0">
	<path class="st1" d="M13,2.3c0.6,0,1,0.2,1.4,0.6S15,3.8,15,4.3v7c0,0.6-0.2,1-0.6,1.4s-0.9,0.6-1.4,0.6H2c-0.6,0-1-0.2-1.4-0.6
		S0,11.9,0,11.3v-7c0-0.6,0.2-1,0.6-1.4S1.4,2.3,2,2.3h1.8l0.4-1.1C4.2,1,4.4,0.8,4.7,0.6C5,0.4,5.2,0.3,5.5,0.3h4
		c0.3,0,0.5,0.1,0.8,0.3c0.3,0.2,0.4,0.4,0.5,0.7l0.4,1.1H13z M5,10.3c0.7,0.7,1.5,1,2.5,1c1,0,1.8-0.3,2.5-1c0.7-0.7,1-1.5,1-2.5
		c0-1-0.3-1.8-1-2.5c-0.7-0.7-1.5-1-2.5-1c-1,0-1.8,0.3-2.5,1C4.3,6,4,6.9,4,7.8C4,8.8,4.3,9.6,5,10.3z M5.9,6.2
		c0.4-0.4,1-0.7,1.6-0.7c0.6,0,1.1,0.2,1.6,0.7c0.4,0.4,0.7,1,0.7,1.6c0,0.6-0.2,1.1-0.7,1.6c-0.4,0.4-1,0.7-1.6,0.7
		c-0.6,0-1.1-0.2-1.6-0.7C5.5,9,5.2,8.4,5.2,7.8C5.2,7.2,5.5,6.7,5.9,6.2z"/>
</g>
</svg>
