<?xml version="1.0" encoding="utf-8"?>
<!-- Generator: Adobe Illustrator 20.1.0, SVG Export Plug-In . SVG Version: 6.00 Build 0)  -->
<svg version="1.1" id="Layer_1" xmlns="http://www.w3.org/2000/svg" xmlns:xlink="http://www.w3.org/1999/xlink" x="0px" y="0px"
	 viewBox="0 0 12 14.3" style="enable-background:new 0 0 12 14.3;" xml:space="preserve">
<style type="text/css">
	.st0{enable-background:new    ;}
	.st1{fill:#3DCCD4;}
</style>
<title>title_icons_pencil_closed</title>
<g class="st0">
	<path class="st1" d="M6.5,3.6l3.2,3.2l-6.5,6.5H0v-3.2L6.5,3.6z M2.8,12.3l0.7-0.7L1.7,9.8L1,10.5v0.8h1v1H2.8z M6.9,5.1
		c0-0.1-0.1-0.2-0.2-0.2c-0.1,0-0.1,0-0.1,0.1L2.4,9.2c0,0-0.1,0.1-0.1,0.1c0,0.1,0.1,0.2,0.2,0.2c0.1,0,0.1,0,0.1-0.1l4.2-4.2
		C6.9,5.2,6.9,5.1,6.9,5.1z M11.8,4.3c0,0.3-0.1,0.5-0.3,0.7l-1.3,1.3L7,3.1l1.3-1.3C8.5,1.6,8.7,1.5,9,1.5c0.3,0,0.5,0.1,0.7,0.3
		l1.8,1.8C11.7,3.8,11.8,4,11.8,4.3z"/>
</g>
</svg>
