<svg id="Layer_1" data-name="Layer 1" xmlns="http://www.w3.org/2000/svg" viewBox="0 0 14 9"><defs><style>.cls-1{fill:#3dccd4;}</style></defs><title>title_icons_overview_closed</title><path class="cls-1" d="M15.5,9.16a1.07,1.07,0,0,1-.16.54,8.29,8.29,0,0,1-2.94,2.88,7.57,7.57,0,0,1-7.8,0A8.34,8.34,0,0,1,1.66,9.7a1,1,0,0,1,0-1.08A8.35,8.35,0,0,1,4.6,5.74a7.55,7.55,0,0,1,7.8,0,8.35,8.35,0,0,1,2.94,2.88A1.08,1.08,0,0,1,15.5,9.16Zm-1,0a7.69,7.69,0,0,0-3-2.76A3.42,3.42,0,0,1,12,8.16a3.37,3.37,0,0,1-1,2.47,3.37,3.37,0,0,1-2.47,1,3.37,3.37,0,0,1-2.47-1A3.37,3.37,0,0,1,5,8.16,3.42,3.42,0,0,1,5.48,6.4a7.69,7.69,0,0,0-3,2.76,8.06,8.06,0,0,0,2.61,2.55,6.54,6.54,0,0,0,6.79,0A8.06,8.06,0,0,0,14.5,9.16ZM8.77,6.42a.38.38,0,0,0-.27-.64A2.39,2.39,0,0,0,6.13,8.16a.38.38,0,1,0,.75,0A1.63,1.63,0,0,1,8.5,6.53.36.36,0,0,0,8.77,6.42Z" transform="translate(-1.5 -4.66)"/></svg>