<?xml version="1.0" encoding="utf-8"?>
<!-- Generator: Adobe Illustrator 21.0.2, SVG Export Plug-In . SVG Version: 6.00 Build 0)  -->
<svg version="1.1" id="Layer_1" xmlns="http://www.w3.org/2000/svg" xmlns:xlink="http://www.w3.org/1999/xlink" x="0px" y="0px"
	 viewBox="0 0 30 30" style="enable-background:new 0 0 30 30;" xml:space="preserve">
<style type="text/css">
	.st0{fill:#CCCCCC;}
	.st1{enable-background:new    ;}
</style>
<title>ui_btns_picture</title>
<path class="st0" d="M3,0h24c1.7,0,3,1.3,3,3v24c0,1.7-1.3,3-3,3H3c-1.7,0-3-1.3-3-3V3C0,1.3,1.3,0,3,0z"/>
<g class="st1">
	<path d="M21.4,11.1v8.1c0,0.3-0.1,0.5-0.3,0.8s-0.5,0.3-0.8,0.3H9.6c-0.3,0-0.5-0.1-0.8-0.3c-0.2-0.2-0.3-0.5-0.3-0.8v-8.1
		c0-0.3,0.1-0.5,0.3-0.8C9.1,10.1,9.3,10,9.6,10h10.7c0.3,0,0.5,0.1,0.8,0.3C21.3,10.5,21.4,10.8,21.4,11.1z M20.4,10.8H9.6
		c-0.1,0-0.1,0-0.2,0.1c0,0-0.1,0.1-0.1,0.2v8.1c0,0.1,0,0.1,0.1,0.2c0,0,0.1,0.1,0.2,0.1h10.7c0.1,0,0.1,0,0.2-0.1
		c0,0,0.1-0.1,0.1-0.2v-8.1c0-0.1,0-0.1-0.1-0.2C20.5,10.9,20.4,10.8,20.4,10.8z M12.5,12.1c0.2,0.2,0.4,0.6,0.4,0.9
		s-0.1,0.7-0.4,0.9s-0.6,0.4-0.9,0.4c-0.4,0-0.7-0.1-0.9-0.4s-0.4-0.6-0.4-0.9s0.1-0.7,0.4-0.9s0.6-0.4,0.9-0.4
		C11.9,11.7,12.2,11.8,12.5,12.1z M19.7,15.6v3h-9.4v-1.3l2.1-2.1l1.1,1.1l3.4-3.4L19.7,15.6z"/>
</g>
</svg>
