<?xml version="1.0" encoding="utf-8"?>
<!-- Generator: Adobe Illustrator 21.0.2, SVG Export Plug-In . SVG Version: 6.00 Build 0)  -->
<svg version="1.1" id="Layer_1" xmlns="http://www.w3.org/2000/svg" xmlns:xlink="http://www.w3.org/1999/xlink" x="0px" y="0px"
	 viewBox="0 0 30 30" style="enable-background:new 0 0 30 30;" xml:space="preserve">
<style type="text/css">
	.st0{fill:#CCCCCC;}
</style>
<title>ui_btns_magnify</title>
<path class="st0" d="M3,0h24c1.7,0,3,1.3,3,3v24c0,1.7-1.3,3-3,3H3c-1.7,0-3-1.3-3-3V3C0,1.3,1.3,0,3,0z"/>
<path d="M21.5,21.2c0,0.6-0.4,1-1,1c-0.3,0-0.5-0.1-0.7-0.3l-2.7-2.7c-0.9,0.7-2,1-3.1,1c-0.7,0-1.5-0.1-2.1-0.4
	c-1.3-0.5-2.4-1.6-2.9-2.9c-0.6-1.4-0.6-2.9,0-4.3c0.5-1.3,1.6-2.4,2.9-2.9c1.4-0.6,2.9-0.6,4.3,0c1.3,0.5,2.4,1.6,2.9,2.9
	c0.3,0.7,0.4,1.4,0.4,2.1c0,1.1-0.3,2.2-1,3.1l2.7,2.7C21.4,20.7,21.5,20.9,21.5,21.2z M16.5,17.2c1.4-1.4,1.4-3.6,0-4.9
	c0,0,0,0,0,0c-1.4-1.4-3.6-1.4-4.9,0c0,0,0,0,0,0c-1.4,1.4-1.4,3.6,0,4.9c0,0,0,0,0,0C12.9,18.5,15.1,18.5,16.5,17.2
	C16.5,17.2,16.5,17.2,16.5,17.2z M16.5,14.4v0.5c0,0.1-0.1,0.2-0.2,0.2h-1.8v1.7c0,0.1,0,0.1-0.1,0.2c0,0-0.1,0.1-0.2,0.1h-0.5
	c-0.1,0-0.1,0-0.2-0.1c0,0-0.1-0.1-0.1-0.2v-1.8h-1.8c-0.1,0-0.2-0.1-0.2-0.2v-0.5c0-0.1,0.1-0.2,0.2-0.2h1.8v-1.8
	c0-0.1,0.1-0.2,0.2-0.2h0.5c0.1,0,0.2,0.1,0.2,0.2v1.8h1.8C16.4,14.2,16.5,14.3,16.5,14.4L16.5,14.4z"/>
</svg>
