<?xml version="1.0" encoding="utf-8"?>
<!-- Generator: Adobe Illustrator 21.0.2, SVG Export Plug-In . SVG Version: 6.00 Build 0)  -->
<svg version="1.1" id="Layer_1" xmlns="http://www.w3.org/2000/svg" xmlns:xlink="http://www.w3.org/1999/xlink" x="0px" y="0px"
	 viewBox="0 0 30 30" style="enable-background:new 0 0 30 30;" xml:space="preserve">
<style type="text/css">
	.st0{fill:#CCCCCC;}
</style>
<title>ui_btns_whole</title>
<path class="st0" d="M3,0h24c1.7,0,3,1.3,3,3v24c0,1.7-1.3,3-3,3H3c-1.7,0-3-1.3-3-3V3C0,1.3,1.3,0,3,0z"/>
<path d="M19,12.4l-2.8,2.8l2.8,2.8l1.1-1.1c0.1-0.2,0.4-0.2,0.5-0.1c0.2,0.1,0.3,0.3,0.3,0.5v3.5c0,0.3-0.2,0.5-0.5,0.5H17
	c-0.2,0-0.4-0.1-0.5-0.3c-0.1-0.2,0-0.4,0.1-0.5l1.1-1.1L15,16.4l-2.8,2.8l1.1,1.1c0.2,0.1,0.2,0.4,0.1,0.5
	c-0.1,0.2-0.3,0.3-0.5,0.3H9.5c-0.3,0-0.5-0.2-0.5-0.5v-3.5c0-0.2,0.1-0.4,0.3-0.5c0.2-0.1,0.4,0,0.5,0.1l1.1,1.1l2.8-2.8L11,12.4
	l-1.1,1.1c-0.1,0.1-0.4,0.2-0.5,0.1C9.1,13.6,9,13.4,9,13.2V9.7c0-0.3,0.2-0.5,0.5-0.5H13c0.2,0,0.4,0.1,0.5,0.3
	c0.1,0.2,0,0.4-0.1,0.5l-1.1,1.1l2.8,2.8l2.8-2.8L16.6,10c-0.2-0.1-0.2-0.4-0.1-0.5c0.1-0.2,0.3-0.3,0.5-0.3h3.5
	c0.3,0,0.5,0.2,0.5,0.5v3.5c0,0.2-0.1,0.4-0.3,0.5c-0.1,0-0.1,0-0.2,0c-0.1,0-0.3-0.1-0.4-0.1L19,12.4z"/>
</svg>
