<?xml version="1.0" encoding="utf-8"?>
<!-- Generator: Adobe Illustrator 21.0.2, SVG Export Plug-In . SVG Version: 6.00 Build 0)  -->
<svg version="1.1" id="Layer_1" xmlns="http://www.w3.org/2000/svg" xmlns:xlink="http://www.w3.org/1999/xlink" x="0px" y="0px"
	 viewBox="0 0 30 30" style="enable-background:new 0 0 30 30;" xml:space="preserve">
<style type="text/css">
	.st0{fill:#CCCCCC;}
	.st1{enable-background:new    ;}
	.st2{fill:#FFFFFF;}
</style>
<title>ui_pin_trash</title>
<path class="st0" d="M3,0h24c1.7,0,3,1.3,3,3v24c0,1.7-1.3,3-3,3H3c-1.7,0-3-1.3-3-3V3C0,1.3,1.3,0,3,0z"/>
<g class="st1">
	<path class="st2" d="M20.5,11.4v0.5c0,0.1,0,0.1-0.1,0.2s-0.1,0.1-0.2,0.1h-0.8v7.4c0,0.4-0.1,0.8-0.4,1.1
		c-0.2,0.3-0.5,0.5-0.9,0.5h-6.5c-0.3,0-0.6-0.2-0.9-0.5c-0.2-0.3-0.4-0.7-0.4-1.1v-7.4H9.8c-0.1,0-0.1,0-0.2-0.1S9.5,12,9.5,11.9
		v-0.5c0-0.1,0-0.1,0.1-0.2s0.1-0.1,0.2-0.1h2.4l0.5-1.3c0.1-0.2,0.2-0.4,0.4-0.5s0.4-0.2,0.6-0.2h2.5c0.2,0,0.4,0.1,0.6,0.2
		s0.3,0.3,0.4,0.5l0.5,1.3h2.4c0.1,0,0.1,0,0.2,0.1S20.5,11.3,20.5,11.4z M18.5,19.6v-7.4h-7v7.4c0,0.1,0,0.2,0.1,0.3
		c0,0.1,0.1,0.2,0.1,0.2l0.1,0.1h6.5c0,0,0,0,0.1-0.1s0.1-0.1,0.1-0.2C18.5,19.8,18.5,19.7,18.5,19.6z M13.5,13.9v4.5
		c0,0.1,0,0.1-0.1,0.2s-0.1,0.1-0.2,0.1h-0.5c-0.1,0-0.1,0-0.2-0.1s-0.1-0.1-0.1-0.2v-4.5c0-0.1,0-0.1,0.1-0.2s0.1-0.1,0.2-0.1h0.5
		c0.1,0,0.1,0,0.2,0.1S13.5,13.8,13.5,13.9z M13.2,11.2h3.5l-0.4-0.9l-0.1-0.1h-2.5c-0.1,0-0.1,0-0.1,0.1L13.2,11.2z M15.5,13.9v4.5
		c0,0.1,0,0.1-0.1,0.2s-0.1,0.1-0.2,0.1h-0.5c-0.1,0-0.1,0-0.2-0.1s-0.1-0.1-0.1-0.2v-4.5c0-0.1,0-0.1,0.1-0.2s0.1-0.1,0.2-0.1h0.5
		c0.1,0,0.1,0,0.2,0.1S15.5,13.8,15.5,13.9z M17.5,13.9v4.5c0,0.1,0,0.1-0.1,0.2s-0.1,0.1-0.2,0.1h-0.5c-0.1,0-0.1,0-0.2-0.1
		s-0.1-0.1-0.1-0.2v-4.5c0-0.1,0-0.1,0.1-0.2s0.1-0.1,0.2-0.1h0.5c0.1,0,0.1,0,0.2,0.1S17.5,13.8,17.5,13.9z"/>
</g>
</svg>
